  0
SECTION
  2
HEADER
  9
$ACADVER
  1
AC1014
  9
$HANDSEED
  5
FFFF
  9
$INSUNITS
 70
     0
  9
$MEASUREMENT
 70
     1
  0
ENDSEC
  0
SECTION
  2
TABLES
  0
TABLE
  2
VPORT
  5
8
330
0
100
AcDbSymbolTable
 70
     4
  0
VPORT
  5
2E
330
8
100
AcDbSymbolTableRecord
100
AcDbViewportTableRecord
  2
*ACTIVE
 70
     0
 10
0.0
 20
0.0
 11
1.0
 21
1.0
 12
210.0
 22
148.5
 13
0.0
 23
0.0
 14
10.0
 24
10.0
 15
10.0
 25
10.0
 16
0.0
 26
0.0
 36
1.0
 17
0.0
 27
0.0
 37
0.0
 40
341.0
 41
1.24
 42
50.0
 43
0.0
 44
0.0
 50
0.0
 51
0.0
 71
     0
 72
   100
 73
     1
 74
     3
 75
     0
 76
     0
 77
     0
 78
     0
  0
ENDTAB
  0
TABLE
  2
LTYPE
  5
5
330
0
100
AcDbSymbolTable
 70
     1
  0
LTYPE
  5
14
330
5
100
AcDbSymbolTableRecord
100
AcDbLinetypeTableRecord
  2
BYBLOCK
 70
     0
  3

 72
    65
 73
     0
 40
0.0
  0
LTYPE
  5
15
330
5
100
AcDbSymbolTableRecord
100
AcDbLinetypeTableRecord
  2
BYLAYER
 70
     0
  3

 72
    65
 73
     0
 40
0.0
  0
LTYPE
  5
16
330
5
100
AcDbSymbolTableRecord
100
AcDbLinetypeTableRecord
  2
CONTINUOUS
 70
     0
  3
Solid line
 72
    65
 73
     0
 40
0.0
  0
ENDTAB
  0
TABLE
  2
LAYER
  5
2
100
AcDbSymbolTable
 70
2
  0
LAYER
  5
50
100
AcDbSymbolTableRecord
100
AcDbLayerTableRecord
  2
0
 70
0
  6
CONTINUOUS
  0
LAYER
  5
51
100
AcDbSymbolTableRecord
100
AcDbLayerTableRecord
  2
1
 70
0
  6
CONTINUOUS
  0
ENDTAB
  0
TABLE
  2
STYLE
  5
3
330
0
100
AcDbSymbolTable
 70
     1
  0
STYLE
  5
11
330
3
100
AcDbSymbolTableRecord
100
AcDbTextStyleTableRecord
  2
STANDARD
 70
     0
 40
0.0
 41
1.0
 50
0.0
 71
     0
 42
2.5
  3
txt
  4

  0
ENDTAB
  0
TABLE
  2
VIEW
  5
6
330
0
100
AcDbSymbolTable
 70
     0
  0
ENDTAB
  0
TABLE
  2
UCS
  5
7
330
0
100
AcDbSymbolTable
 70
     0
  0
ENDTAB
  0
TABLE
  2
APPID
  5
9
330
0
100
AcDbSymbolTable
 70
     2
  0
APPID
  5
12
330
9
100
AcDbSymbolTableRecord
100
AcDbRegAppTableRecord
  2
ACAD
 70
     0
  0
ENDTAB
  0
TABLE
  2
DIMSTYLE
  5
A
330
0
100
AcDbSymbolTable
 70
     1
  0
DIMSTYLE
105
27
330
A
100
AcDbSymbolTableRecord
100
AcDbDimStyleTableRecord
  2
ISO-25
 70
     0
  3

  4

  5

  6

  7

 40
1.0
 41
2.5
 42
0.625
 43
3.75
 44
1.25
 45
0.0
 46
0.0
 47
0.0
 48
0.0
140
2.5
141
2.5
142
0.0
143
0.03937007874016
144
1.0
145
0.0
146
1.0
147
0.625
 71
     0
 72
     0
 73
     0
 74
     0
 75
     0
 76
     0
 77
     1
 78
     8
170
     0
171
     3
172
     1
173
     0
174
     0
175
     0
176
     0
177
     0
178
     0
270
     2
271
     2
272
     2
273
     2
274
     3
340
11
275
     0
280
     0
281
     0
282
     0
283
     0
284
     8
285
     0
286
     0
287
     3
288
     0
  0
ENDTAB
  0
TABLE
  2
BLOCK_RECORD
  5
1
330
0
100
AcDbSymbolTable
 70
     1
  0
BLOCK_RECORD
  5
1F
330
1
100
AcDbSymbolTableRecord
100
AcDbBlockTableRecord
  2
*MODEL_SPACE
  0
BLOCK_RECORD
  5
1B
330
1
100
AcDbSymbolTableRecord
100
AcDbBlockTableRecord
  2
*PAPER_SPACE
  0
ENDTAB
  0
ENDSEC
  0
SECTION
  2
BLOCKS
  0
BLOCK
  5
20
330
1F
100
AcDbEntity
  8
0
100
AcDbBlockBegin
  2
*MODEL_SPACE
 70
     0
 10
0.0
 20
0.0
 30
0.0
  3
*MODEL_SPACE
  1

  0
ENDBLK
  5
21
330
1F
100
AcDbEntity
  8
0
100
AcDbBlockEnd
  0
BLOCK
  5
1C
330
1B
100
AcDbEntity
 67
     1
  8
0
100
AcDbBlockBegin
  2
*PAPER_SPACE
  1

  0
ENDBLK
  5
1D
330
1B
100
AcDbEntity
 67
     1
  8
0
100
AcDbBlockEnd
  0
ENDSEC
  0
SECTION
  2
ENTITIES
  0
LWPOLYLINE
  5
100
100
AcDbEntity
  8
1
 62
7
100
AcDbPolyline
 90
4
 70
1
 10
0.000000
 20
793.333310
 30
0.0
 10
1122.480000
 20
793.333310
 30
0.0
 10
1122.480000
 20
-0.339418
 30
0.0
 10
0.000000
 20
-0.339418
 30
0.0
  0
LWPOLYLINE
  5
101
100
AcDbEntity
  8
1
 62
7
100
AcDbPolyline
 90
8
 70
1
 10
0.000000
 20
793.337310
 30
0.0
 10
1122.480000
 20
793.337310
 30
0.0
 10
1122.484000
 20
793.333310
 30
0.0
 10
1122.484000
 20
-0.339418
 30
0.0
 10
1122.480000
 20
-0.343418
 30
0.0
 10
0.000000
 20
-0.343418
 30
0.0
 10
-0.004000
 20
-0.339418
 30
0.0
 10
-0.004000
 20
793.333310
 30
0.0
  0
LWPOLYLINE
  5
102
100
AcDbEntity
  8
1
 62
7
100
AcDbPolyline
 90
12
 70
1
 10
0.004000
 20
793.333310
 30
0.0
 10
0.004000
 20
-0.339418
 30
0.0
 10
0.000000
 20
-0.339418
 30
0.0
 10
0.000000
 20
-0.335418
 30
0.0
 10
1122.480000
 20
-0.335418
 30
0.0
 10
1122.480000
 20
-0.339418
 30
0.0
 10
1122.476000
 20
-0.339418
 30
0.0
 10
1122.476000
 20
793.333310
 30
0.0
 10
1122.480000
 20
793.333310
 30
0.0
 10
1122.480000
 20
793.329310
 30
0.0
 10
0.000000
 20
793.329310
 30
0.0
 10
0.000000
 20
793.333310
 30
0.0
  0
LWPOLYLINE
  5
103
100
AcDbEntity
  8
1
 62
5
100
AcDbPolyline
 90
2
 70
0
 10
560.896610
 20
630.949364
 30
0.0
 10
547.398505
 20
630.949364
 30
0.0
  0
LWPOLYLINE
  5
104
100
AcDbEntity
  8
1
 62
5
100
AcDbPolyline
 90
2
 70
0
 10
461.010631
 20
630.949364
 30
0.0
 10
462.090479
 20
630.949364
 30
0.0
  0
LWPOLYLINE
  5
105
100
AcDbEntity
  8
1
 62
5
100
AcDbPolyline
 90
2
 70
0
 10
486.926993
 20
630.949364
 30
0.0
 10
494.485932
 20
630.949364
 30
0.0
  0
LWPOLYLINE
  5
106
100
AcDbEntity
  8
1
 62
5
100
AcDbPolyline
 90
2
 70
0
 10
546.318656
 20
630.949364
 30
0.0
 10
547.398505
 20
630.949364
 30
0.0
  0
LWPOLYLINE
  5
107
100
AcDbEntity
  8
1
 62
5
100
AcDbPolyline
 90
2
 70
0
 10
461.010631
 20
630.949364
 30
0.0
 10
362.474462
 20
630.949364
 30
0.0
  0
LWPOLYLINE
  5
108
100
AcDbEntity
  8
1
 62
5
100
AcDbPolyline
 90
2
 70
0
 10
265.288104
 20
630.949364
 30
0.0
 10
266.637914
 20
630.949364
 30
0.0
  0
LWPOLYLINE
  5
109
100
AcDbEntity
  8
1
 62
5
100
AcDbPolyline
 90
2
 70
0
 10
361.124651
 20
630.949364
 30
0.0
 10
362.474462
 20
630.949364
 30
0.0
  0
LWPOLYLINE
  5
10a
100
AcDbEntity
  8
1
 62
5
100
AcDbPolyline
 90
2
 70
0
 10
265.288104
 20
630.949364
 30
0.0
 10
209.945872
 20
630.949364
 30
0.0
  0
LWPOLYLINE
  5
10b
100
AcDbEntity
  8
1
 62
5
100
AcDbPolyline
 90
2
 70
0
 10
560.896610
 20
711.937996
 30
0.0
 10
560.896610
 20
630.949364
 30
0.0
  0
LWPOLYLINE
  5
10c
100
AcDbEntity
  8
1
 62
5
100
AcDbPolyline
 90
2
 70
0
 10
547.398505
 20
630.949364
 30
0.0
 10
547.398505
 20
614.751638
 30
0.0
  0
LWPOLYLINE
  5
10d
100
AcDbEntity
  8
1
 62
5
100
AcDbPolyline
 90
2
 70
0
 10
577.094336
 20
614.751638
 30
0.0
 10
547.398505
 20
614.751638
 30
0.0
  0
LWPOLYLINE
  5
10e
100
AcDbEntity
  8
1
 62
5
100
AcDbPolyline
 90
2
 70
0
 10
577.094336
 20
695.740270
 30
0.0
 10
577.094336
 20
614.751638
 30
0.0
  0
LWPOLYLINE
  5
10f
100
AcDbEntity
  8
1
 62
5
100
AcDbPolyline
 90
2
 70
0
 10
613.539221
 20
695.740270
 30
0.0
 10
577.094336
 20
695.740270
 30
0.0
  0
LWPOLYLINE
  5
110
100
AcDbEntity
  8
1
 62
5
100
AcDbPolyline
 90
3
 70
0
 10
613.539221
 20
695.740270
 30
0.0
 10
613.539221
 20
711.937996
 30
0.0
 10
560.896610
 20
711.937996
 30
0.0
  0
LWPOLYLINE
  5
111
100
AcDbEntity
  8
1
 62
5
100
AcDbPolyline
 90
3
 70
0
 10
547.398505
 20
614.751638
 30
0.0
 10
461.010631
 20
614.751638
 30
0.0
 10
461.010631
 20
630.949364
 30
0.0
  0
LWPOLYLINE
  5
112
100
AcDbEntity
  8
1
 62
5
100
AcDbPolyline
 90
2
 70
0
 10
362.474462
 20
630.949364
 30
0.0
 10
362.474462
 20
614.751638
 30
0.0
  0
LWPOLYLINE
  5
113
100
AcDbEntity
  8
1
 62
5
100
AcDbPolyline
 90
4
 70
0
 10
461.010631
 20
614.751638
 30
0.0
 10
362.474462
 20
614.751638
 30
0.0
 10
265.288104
 20
614.751638
 30
0.0
 10
265.288104
 20
630.949364
 30
0.0
  0
LWPOLYLINE
  5
114
100
AcDbEntity
  8
1
 62
5
100
AcDbPolyline
 90
3
 70
0
 10
209.945872
 20
630.949364
 30
0.0
 10
209.945872
 20
452.774374
 30
0.0
 10
226.143598
 20
452.774374
 30
0.0
  0
LWPOLYLINE
  5
115
100
AcDbEntity
  8
1
 62
5
100
AcDbPolyline
 90
2
 70
0
 10
226.143598
 20
614.751638
 30
0.0
 10
226.143598
 20
452.774374
 30
0.0
  0
LWPOLYLINE
  5
116
100
AcDbEntity
  8
1
 62
5
100
AcDbPolyline
 90
2
 70
0
 10
265.288104
 20
614.751638
 30
0.0
 10
226.143598
 20
614.751638
 30
0.0
  0
LWPOLYLINE
  5
117
100
AcDbEntity
  8
1
 62
5
100
AcDbPolyline
 90
2
 70
0
 10
209.945872
 20
355.588016
 30
0.0
 10
209.945872
 20
356.937826
 30
0.0
  0
LWPOLYLINE
  5
118
100
AcDbEntity
  8
1
 62
5
100
AcDbPolyline
 90
2
 70
0
 10
209.945872
 20
451.424563
 30
0.0
 10
209.945872
 20
452.774374
 30
0.0
  0
LWPOLYLINE
  5
119
100
AcDbEntity
  8
1
 62
5
100
AcDbPolyline
 90
3
 70
0
 10
209.945872
 20
355.588016
 30
0.0
 10
209.945872
 20
253.002415
 30
0.0
 10
209.945872
 20
251.652605
 30
0.0
  0
LWPOLYLINE
  5
11a
100
AcDbEntity
  8
1
 62
5
100
AcDbPolyline
 90
4
 70
0
 10
209.945872
 20
157.165868
 30
0.0
 10
209.945872
 20
155.816057
 30
0.0
 10
209.945872
 20
72.127804
 30
0.0
 10
321.980146
 20
72.127804
 30
0.0
  0
LWPOLYLINE
  5
11b
100
AcDbEntity
  8
1
 62
5
100
AcDbPolyline
 90
2
 70
0
 10
419.166504
 20
72.127804
 30
0.0
 10
321.980146
 20
72.127804
 30
0.0
  0
LWPOLYLINE
  5
11c
100
AcDbEntity
  8
1
 62
5
100
AcDbPolyline
 90
2
 70
0
 10
419.166504
 20
72.127804
 30
0.0
 10
543.349073
 20
72.127804
 30
0.0
  0
LWPOLYLINE
  5
11d
100
AcDbEntity
  8
1
 62
5
100
AcDbPolyline
 90
2
 70
0
 10
640.535431
 20
72.127804
 30
0.0
 10
639.185621
 20
72.127804
 30
0.0
  0
LWPOLYLINE
  5
11e
100
AcDbEntity
  8
1
 62
5
100
AcDbPolyline
 90
2
 70
0
 10
544.698884
 20
72.127804
 30
0.0
 10
543.349073
 20
72.127804
 30
0.0
  0
LWPOLYLINE
  5
11f
100
AcDbEntity
  8
1
 62
5
100
AcDbPolyline
 90
2
 70
0
 10
640.535431
 20
72.127804
 30
0.0
 10
740.421411
 20
72.127804
 30
0.0
  0
LWPOLYLINE
  5
120
100
AcDbEntity
  8
1
 62
5
100
AcDbPolyline
 90
2
 70
0
 10
837.607769
 20
72.127804
 30
0.0
 10
836.257958
 20
72.127804
 30
0.0
  0
LWPOLYLINE
  5
121
100
AcDbEntity
  8
1
 62
5
100
AcDbPolyline
 90
2
 70
0
 10
741.771221
 20
72.127804
 30
0.0
 10
740.421411
 20
72.127804
 30
0.0
  0
LWPOLYLINE
  5
122
100
AcDbEntity
  8
1
 62
5
100
AcDbPolyline
 90
3
 70
0
 10
837.607769
 20
72.127804
 30
0.0
 10
911.847348
 20
72.127804
 30
0.0
 10
911.847348
 20
392.032900
 30
0.0
  0
LWPOLYLINE
  5
123
100
AcDbEntity
  8
1
 62
5
100
AcDbPolyline
 90
2
 70
0
 10
911.847348
 20
440.626079
 30
0.0
 10
911.847348
 20
439.276269
 30
0.0
  0
LWPOLYLINE
  5
124
100
AcDbEntity
  8
1
 62
5
100
AcDbPolyline
 90
2
 70
0
 10
911.847348
 20
393.382711
 30
0.0
 10
911.847348
 20
392.032900
 30
0.0
  0
LWPOLYLINE
  5
125
100
AcDbEntity
  8
1
 62
5
100
AcDbPolyline
 90
3
 70
0
 10
911.847348
 20
440.626079
 30
0.0
 10
911.847348
 20
711.937996
 30
0.0
 10
861.634396
 20
711.937996
 30
0.0
  0
LWPOLYLINE
  5
126
100
AcDbEntity
  8
1
 62
5
100
AcDbPolyline
 90
2
 70
0
 10
764.448038
 20
711.937996
 30
0.0
 10
765.797849
 20
711.937996
 30
0.0
  0
LWPOLYLINE
  5
127
100
AcDbEntity
  8
1
 62
5
100
AcDbPolyline
 90
2
 70
0
 10
860.284586
 20
711.937996
 30
0.0
 10
861.634396
 20
711.937996
 30
0.0
  0
LWPOLYLINE
  5
128
100
AcDbEntity
  8
1
 62
5
100
AcDbPolyline
 90
2
 70
0
 10
764.448038
 20
711.937996
 30
0.0
 10
662.132400
 20
711.937996
 30
0.0
  0
LWPOLYLINE
  5
129
100
AcDbEntity
  8
1
 62
5
100
AcDbPolyline
 90
2
 70
0
 10
613.539221
 20
711.937996
 30
0.0
 10
614.889031
 20
711.937996
 30
0.0
  0
LWPOLYLINE
  5
12a
100
AcDbEntity
  8
1
 62
5
100
AcDbPolyline
 90
2
 70
0
 10
660.782589
 20
711.937996
 30
0.0
 10
662.132400
 20
711.937996
 30
0.0
  0
LWPOLYLINE
  5
12b
100
AcDbEntity
  8
1
 62
5
100
AcDbPolyline
 90
5
 70
0
 10
895.649622
 20
695.740270
 30
0.0
 10
861.634396
 20
695.740270
 30
0.0
 10
764.448038
 20
695.740270
 30
0.0
 10
662.132400
 20
695.740270
 30
0.0
 10
613.539221
 20
695.740270
 30
0.0
  0
LWPOLYLINE
  5
12c
100
AcDbEntity
  8
1
 62
5
100
AcDbPolyline
 90
4
 70
0
 10
895.649622
 20
88.325530
 30
0.0
 10
895.649622
 20
392.032900
 30
0.0
 10
895.649622
 20
440.626079
 30
0.0
 10
895.649622
 20
695.740270
 30
0.0
  0
LWPOLYLINE
  5
12d
100
AcDbEntity
  8
1
 62
5
100
AcDbPolyline
 90
8
 70
0
 10
226.143598
 20
88.325530
 30
0.0
 10
321.980146
 20
88.325530
 30
0.0
 10
419.166504
 20
88.325530
 30
0.0
 10
543.349073
 20
88.325530
 30
0.0
 10
640.535431
 20
88.325530
 30
0.0
 10
740.421411
 20
88.325530
 30
0.0
 10
837.607769
 20
88.325530
 30
0.0
 10
895.649622
 20
88.325530
 30
0.0
  0
LWPOLYLINE
  5
12e
100
AcDbEntity
  8
1
 62
5
100
AcDbPolyline
 90
2
 70
0
 10
226.143598
 20
355.588016
 30
0.0
 10
226.143598
 20
452.774374
 30
0.0
  0
LWPOLYLINE
  5
12f
100
AcDbEntity
  8
1
 62
5
100
AcDbPolyline
 90
4
 70
0
 10
226.143598
 20
355.588016
 30
0.0
 10
226.143598
 20
253.002415
 30
0.0
 10
226.143598
 20
155.816057
 30
0.0
 10
226.143598
 20
88.325530
 30
0.0
  0
LWPOLYLINE
  5
130
100
AcDbEntity
  8
1
 62
5
100
AcDbPolyline
 90
2
 70
0
 10
226.143598
 20
355.588016
 30
0.0
 10
209.945872
 20
355.588016
 30
0.0
  0
LWPOLYLINE
  5
131
100
AcDbEntity
  8
1
 62
5
100
AcDbPolyline
 90
2
 70
0
 10
209.945872
 20
253.002415
 30
0.0
 10
226.143598
 20
253.002415
 30
0.0
  0
LWPOLYLINE
  5
132
100
AcDbEntity
  8
1
 62
5
100
AcDbPolyline
 90
2
 70
0
 10
226.143598
 20
155.816057
 30
0.0
 10
209.945872
 20
155.816057
 30
0.0
  0
LWPOLYLINE
  5
133
100
AcDbEntity
  8
1
 62
5
100
AcDbPolyline
 90
2
 70
0
 10
321.980146
 20
72.127804
 30
0.0
 10
321.980146
 20
88.325530
 30
0.0
  0
LWPOLYLINE
  5
134
100
AcDbEntity
  8
1
 62
5
100
AcDbPolyline
 90
2
 70
0
 10
419.166504
 20
88.325530
 30
0.0
 10
419.166504
 20
72.127804
 30
0.0
  0
LWPOLYLINE
  5
135
100
AcDbEntity
  8
1
 62
5
100
AcDbPolyline
 90
2
 70
0
 10
543.349073
 20
72.127804
 30
0.0
 10
543.349073
 20
88.325530
 30
0.0
  0
LWPOLYLINE
  5
136
100
AcDbEntity
  8
1
 62
5
100
AcDbPolyline
 90
2
 70
0
 10
640.535431
 20
88.325530
 30
0.0
 10
640.535431
 20
72.127804
 30
0.0
  0
LWPOLYLINE
  5
137
100
AcDbEntity
  8
1
 62
5
100
AcDbPolyline
 90
2
 70
0
 10
740.421411
 20
72.127804
 30
0.0
 10
740.421411
 20
88.325530
 30
0.0
  0
LWPOLYLINE
  5
138
100
AcDbEntity
  8
1
 62
5
100
AcDbPolyline
 90
2
 70
0
 10
837.607769
 20
88.325530
 30
0.0
 10
837.607769
 20
72.127804
 30
0.0
  0
LWPOLYLINE
  5
139
100
AcDbEntity
  8
1
 62
5
100
AcDbPolyline
 90
2
 70
0
 10
911.847348
 20
392.032900
 30
0.0
 10
895.649622
 20
392.032900
 30
0.0
  0
LWPOLYLINE
  5
13a
100
AcDbEntity
  8
1
 62
5
100
AcDbPolyline
 90
2
 70
0
 10
895.649622
 20
440.626079
 30
0.0
 10
911.847348
 20
440.626079
 30
0.0
  0
LWPOLYLINE
  5
13b
100
AcDbEntity
  8
1
 62
5
100
AcDbPolyline
 90
2
 70
0
 10
861.634396
 20
711.937996
 30
0.0
 10
861.634396
 20
695.740270
 30
0.0
  0
LWPOLYLINE
  5
13c
100
AcDbEntity
  8
1
 62
5
100
AcDbPolyline
 90
2
 70
0
 10
764.448038
 20
695.740270
 30
0.0
 10
764.448038
 20
711.937996
 30
0.0
  0
LWPOLYLINE
  5
13d
100
AcDbEntity
  8
1
 62
5
100
AcDbPolyline
 90
2
 70
0
 10
662.132400
 20
711.937996
 30
0.0
 10
662.132400
 20
695.740270
 30
0.0
  0
LWPOLYLINE
  5
13e
100
AcDbEntity
  8
1
 62
5
100
AcDbPolyline
 90
2
 70
0
 10
397.569536
 20
500.017743
 30
0.0
 10
397.569536
 20
614.751638
 30
0.0
  0
LWPOLYLINE
  5
13f
100
AcDbEntity
  8
1
 62
5
100
AcDbPolyline
 90
2
 70
0
 10
895.649622
 20
500.017743
 30
0.0
 10
776.866295
 20
500.017743
 30
0.0
  0
LWPOLYLINE
  5
140
100
AcDbEntity
  8
1
 62
5
100
AcDbPolyline
 90
4
 70
0
 10
728.273116
 20
500.017743
 30
0.0
 10
562.246421
 20
500.017743
 30
0.0
 10
508.253999
 20
500.017743
 30
0.0
 10
397.569536
 20
500.017743
 30
0.0
  0
LWPOLYLINE
  5
141
100
AcDbEntity
  8
1
 62
5
100
AcDbPolyline
 90
4
 70
0
 10
508.253999
 20
500.017743
 30
0.0
 10
508.253999
 20
512.975924
 30
0.0
 10
410.527717
 20
512.975924
 30
0.0
 10
410.527717
 20
614.751638
 30
0.0
  0
LWPOLYLINE
  5
142
100
AcDbEntity
  8
1
 62
5
100
AcDbPolyline
 90
2
 70
0
 10
895.649622
 20
512.975924
 30
0.0
 10
776.866295
 20
512.975924
 30
0.0
  0
LWPOLYLINE
  5
143
100
AcDbEntity
  8
1
 62
5
100
AcDbPolyline
 90
2
 70
0
 10
728.273116
 20
512.975924
 30
0.0
 10
562.246421
 20
512.975924
 30
0.0
  0
LWPOLYLINE
  5
144
100
AcDbEntity
  8
1
 62
5
100
AcDbPolyline
 90
2
 70
0
 10
508.253999
 20
512.975924
 30
0.0
 10
562.246421
 20
512.975924
 30
0.0
  0
LWPOLYLINE
  5
145
100
AcDbEntity
  8
1
 62
5
100
AcDbPolyline
 90
2
 70
0
 10
776.866295
 20
512.975924
 30
0.0
 10
776.866295
 20
500.017743
 30
0.0
  0
LWPOLYLINE
  5
146
100
AcDbEntity
  8
1
 62
5
100
AcDbPolyline
 90
2
 70
0
 10
728.273116
 20
500.017743
 30
0.0
 10
728.273116
 20
512.975924
 30
0.0
  0
LWPOLYLINE
  5
147
100
AcDbEntity
  8
1
 62
5
100
AcDbPolyline
 90
2
 70
0
 10
562.246421
 20
512.975924
 30
0.0
 10
562.246421
 20
500.017743
 30
0.0
  0
LWPOLYLINE
  5
148
100
AcDbEntity
  8
1
 62
5
100
AcDbPolyline
 90
2
 70
0
 10
489.356652
 20
332.641237
 30
0.0
 10
589.242631
 20
332.641237
 30
0.0
  0
LWPOLYLINE
  5
149
100
AcDbEntity
  8
1
 62
5
100
AcDbPolyline
 90
2
 70
0
 10
637.835810
 20
332.641237
 30
0.0
 10
725.573495
 20
332.641237
 30
0.0
  0
LWPOLYLINE
  5
14a
100
AcDbEntity
  8
1
 62
5
100
AcDbPolyline
 90
2
 70
0
 10
774.166674
 20
332.641237
 30
0.0
 10
895.649622
 20
332.641237
 30
0.0
  0
LWPOLYLINE
  5
14b
100
AcDbEntity
  8
1
 62
5
100
AcDbPolyline
 90
2
 70
0
 10
489.356652
 20
88.325530
 30
0.0
 10
489.356652
 20
332.641237
 30
0.0
  0
LWPOLYLINE
  5
14c
100
AcDbEntity
  8
1
 62
5
100
AcDbPolyline
 90
4
 70
0
 10
502.314833
 20
88.325530
 30
0.0
 10
502.314833
 20
319.683056
 30
0.0
 10
589.242631
 20
319.683056
 30
0.0
 10
589.242631
 20
332.641237
 30
0.0
  0
LWPOLYLINE
  5
14d
100
AcDbEntity
  8
1
 62
5
100
AcDbPolyline
 90
4
 70
0
 10
637.835810
 20
332.641237
 30
0.0
 10
637.835810
 20
319.683056
 30
0.0
 10
725.573495
 20
319.683056
 30
0.0
 10
725.573495
 20
332.641237
 30
0.0
  0
LWPOLYLINE
  5
14e
100
AcDbEntity
  8
1
 62
5
100
AcDbPolyline
 90
3
 70
0
 10
774.166674
 20
332.641237
 30
0.0
 10
774.166674
 20
319.683056
 30
0.0
 10
895.649622
 20
319.683056
 30
0.0
  0
LWPOLYLINE
  5
14f
100
AcDbEntity
  8
1
 62
5
100
AcDbPolyline
 90
2
 70
0
 10
774.166674
 20
319.683056
 30
0.0
 10
772.546901
 20
319.683056
 30
0.0
  0
LWPOLYLINE
  5
150
100
AcDbEntity
  8
1
 62
5
100
AcDbPolyline
 90
2
 70
0
 10
727.193267
 20
319.683056
 30
0.0
 10
772.546901
 20
319.683056
 30
0.0
  0
LWPOLYLINE
  5
151
100
AcDbEntity
  8
1
 62
5
100
AcDbPolyline
 90
2
 70
0
 10
727.193267
 20
319.683056
 30
0.0
 10
725.573495
 20
319.683056
 30
0.0
  0
LWPOLYLINE
  5
152
100
AcDbEntity
  8
1
 62
5
100
AcDbPolyline
 90
2
 70
0
 10
727.193267
 20
332.641237
 30
0.0
 10
727.193267
 20
319.683056
 30
0.0
  0
LWPOLYLINE
  5
153
100
AcDbEntity
  8
1
 62
5
100
AcDbPolyline
 90
2
 70
0
 10
727.193267
 20
332.641237
 30
0.0
 10
725.573495
 20
332.641237
 30
0.0
  0
LWPOLYLINE
  5
154
100
AcDbEntity
  8
1
 62
5
100
AcDbPolyline
 90
2
 70
0
 10
774.166674
 20
332.641237
 30
0.0
 10
772.546901
 20
332.641237
 30
0.0
  0
LWPOLYLINE
  5
155
100
AcDbEntity
  8
1
 62
5
100
AcDbPolyline
 90
2
 70
0
 10
727.193267
 20
332.641237
 30
0.0
 10
772.546901
 20
332.641237
 30
0.0
  0
LWPOLYLINE
  5
156
100
AcDbEntity
  8
1
 62
5
100
AcDbPolyline
 90
2
 70
0
 10
772.546901
 20
319.683056
 30
0.0
 10
772.546901
 20
332.641237
 30
0.0
  0
LWPOLYLINE
  5
157
100
AcDbEntity
  8
1
 62
5
100
AcDbPolyline
 90
3
 70
0
 10
729.892889
 20
319.143131
 30
0.0
 10
727.193267
 20
319.143131
 30
0.0
 10
727.193267
 20
274.869346
 30
0.0
  0
LWPOLYLINE
  5
158
100
AcDbEntity
  8
1
 62
5
100
AcDbPolyline
 90
2
 70
0
 10
729.892889
 20
319.143131
 30
0.0
 10
729.892889
 20
274.869346
 30
0.0
  0
LWPOLYLINE
  5
159
100
AcDbEntity
  8
1
 62
5
100
AcDbPolyline
 90
2
 70
0
 10
727.193267
 20
274.869346
 30
0.0
 10
729.892889
 20
274.869346
 30
0.0
  0
LWPOLYLINE
  5
15a
100
AcDbEntity
  8
1
 62
5
100
AcDbPolyline
 90
2
 70
0
 10
637.835810
 20
319.683056
 30
0.0
 10
636.216038
 20
319.683056
 30
0.0
  0
LWPOLYLINE
  5
15b
100
AcDbEntity
  8
1
 62
5
100
AcDbPolyline
 90
2
 70
0
 10
590.862404
 20
319.683056
 30
0.0
 10
636.216038
 20
319.683056
 30
0.0
  0
LWPOLYLINE
  5
15c
100
AcDbEntity
  8
1
 62
5
100
AcDbPolyline
 90
2
 70
0
 10
590.862404
 20
319.683056
 30
0.0
 10
589.242631
 20
319.683056
 30
0.0
  0
LWPOLYLINE
  5
15d
100
AcDbEntity
  8
1
 62
5
100
AcDbPolyline
 90
2
 70
0
 10
590.862404
 20
332.641237
 30
0.0
 10
590.862404
 20
319.683056
 30
0.0
  0
LWPOLYLINE
  5
15e
100
AcDbEntity
  8
1
 62
5
100
AcDbPolyline
 90
2
 70
0
 10
590.862404
 20
332.641237
 30
0.0
 10
589.242631
 20
332.641237
 30
0.0
  0
LWPOLYLINE
  5
15f
100
AcDbEntity
  8
1
 62
5
100
AcDbPolyline
 90
2
 70
0
 10
637.835810
 20
332.641237
 30
0.0
 10
636.216038
 20
332.641237
 30
0.0
  0
LWPOLYLINE
  5
160
100
AcDbEntity
  8
1
 62
5
100
AcDbPolyline
 90
2
 70
0
 10
590.862404
 20
332.641237
 30
0.0
 10
636.216038
 20
332.641237
 30
0.0
  0
LWPOLYLINE
  5
161
100
AcDbEntity
  8
1
 62
5
100
AcDbPolyline
 90
2
 70
0
 10
636.216038
 20
319.683056
 30
0.0
 10
636.216038
 20
332.641237
 30
0.0
  0
LWPOLYLINE
  5
162
100
AcDbEntity
  8
1
 62
5
100
AcDbPolyline
 90
3
 70
0
 10
633.516417
 20
274.869346
 30
0.0
 10
636.216038
 20
274.869346
 30
0.0
 10
636.216038
 20
319.143131
 30
0.0
  0
LWPOLYLINE
  5
163
100
AcDbEntity
  8
1
 62
5
100
AcDbPolyline
 90
2
 70
0
 10
633.516417
 20
274.869346
 30
0.0
 10
633.516417
 20
319.143131
 30
0.0
  0
LWPOLYLINE
  5
164
100
AcDbEntity
  8
1
 62
5
100
AcDbPolyline
 90
2
 70
0
 10
636.216038
 20
319.143131
 30
0.0
 10
633.516417
 20
319.143131
 30
0.0
  0
LWPOLYLINE
  5
165
100
AcDbEntity
  8
1
 62
5
100
AcDbPolyline
 90
2
 70
0
 10
728.273116
 20
512.975924
 30
0.0
 10
729.892889
 20
512.975924
 30
0.0
  0
LWPOLYLINE
  5
166
100
AcDbEntity
  8
1
 62
5
100
AcDbPolyline
 90
2
 70
0
 10
775.246522
 20
512.975924
 30
0.0
 10
729.892889
 20
512.975924
 30
0.0
  0
LWPOLYLINE
  5
167
100
AcDbEntity
  8
1
 62
5
100
AcDbPolyline
 90
2
 70
0
 10
775.246522
 20
512.975924
 30
0.0
 10
776.866295
 20
512.975924
 30
0.0
  0
LWPOLYLINE
  5
168
100
AcDbEntity
  8
1
 62
5
100
AcDbPolyline
 90
2
 70
0
 10
775.246522
 20
500.017743
 30
0.0
 10
775.246522
 20
512.975924
 30
0.0
  0
LWPOLYLINE
  5
169
100
AcDbEntity
  8
1
 62
5
100
AcDbPolyline
 90
2
 70
0
 10
775.246522
 20
500.017743
 30
0.0
 10
776.866295
 20
500.017743
 30
0.0
  0
LWPOLYLINE
  5
16a
100
AcDbEntity
  8
1
 62
5
100
AcDbPolyline
 90
2
 70
0
 10
728.273116
 20
500.017743
 30
0.0
 10
729.892889
 20
500.017743
 30
0.0
  0
LWPOLYLINE
  5
16b
100
AcDbEntity
  8
1
 62
5
100
AcDbPolyline
 90
2
 70
0
 10
775.246522
 20
500.017743
 30
0.0
 10
729.892889
 20
500.017743
 30
0.0
  0
LWPOLYLINE
  5
16c
100
AcDbEntity
  8
1
 62
5
100
AcDbPolyline
 90
2
 70
0
 10
729.892889
 20
512.975924
 30
0.0
 10
729.892889
 20
500.017743
 30
0.0
  0
LWPOLYLINE
  5
16d
100
AcDbEntity
  8
1
 62
5
100
AcDbPolyline
 90
3
 70
0
 10
732.592510
 20
557.789633
 30
0.0
 10
729.892889
 20
557.789633
 30
0.0
 10
729.892889
 20
513.515848
 30
0.0
  0
LWPOLYLINE
  5
16e
100
AcDbEntity
  8
1
 62
5
100
AcDbPolyline
 90
2
 70
0
 10
732.592510
 20
557.789633
 30
0.0
 10
732.592510
 20
513.515848
 30
0.0
  0
LWPOLYLINE
  5
16f
100
AcDbEntity
  8
1
 62
5
100
AcDbPolyline
 90
2
 70
0
 10
729.892889
 20
513.515848
 30
0.0
 10
732.592510
 20
513.515848
 30
0.0
  0
LWPOLYLINE
  5
170
100
AcDbEntity
  8
1
 62
5
100
AcDbPolyline
 90
2
 70
0
 10
706.676147
 20
512.975924
 30
0.0
 10
706.676147
 20
695.740270
 30
0.0
  0
LWPOLYLINE
  5
171
100
AcDbEntity
  8
1
 62
5
100
AcDbPolyline
 90
2
 70
0
 10
698.577284
 20
512.975924
 30
0.0
 10
698.577284
 20
695.740270
 30
0.0
  0
LWPOLYLINE
  5
172
100
AcDbEntity
  8
1
 62
5
100
AcDbPolyline
 90
2
 70
0
 10
693.178042
 20
88.325530
 30
0.0
 10
693.178042
 20
319.143131
 30
0.0
  0
LWPOLYLINE
  5
173
100
AcDbEntity
  8
1
 62
5
100
AcDbPolyline
 90
2
 70
0
 10
685.079179
 20
319.143131
 30
0.0
 10
693.178042
 20
319.143131
 30
0.0
  0
LWPOLYLINE
  5
174
100
AcDbEntity
  8
1
 62
5
100
AcDbPolyline
 90
2
 70
0
 10
685.079179
 20
88.325530
 30
0.0
 10
685.079179
 20
319.143131
 30
0.0
  0
LWPOLYLINE
  5
175
100
AcDbEntity
  8
1
 62
5
100
AcDbPolyline
 90
2
 70
0
 10
577.094336
 20
512.975924
 30
0.0
 10
577.094336
 20
558.059595
 30
0.0
  0
LWPOLYLINE
  5
176
100
AcDbEntity
  8
1
 62
5
100
AcDbPolyline
 90
2
 70
0
 10
577.094336
 20
603.953153
 30
0.0
 10
577.094336
 20
560.759216
 30
0.0
  0
LWPOLYLINE
  5
177
100
AcDbEntity
  8
1
 62
5
100
AcDbPolyline
 90
2
 70
0
 10
577.094336
 20
606.652774
 30
0.0
 10
577.094336
 20
614.751638
 30
0.0
  0
LWPOLYLINE
  5
178
100
AcDbEntity
  8
1
 62
5
100
AcDbPolyline
 90
2
 70
0
 10
577.094336
 20
558.059595
 30
0.0
 10
568.995473
 20
558.059595
 30
0.0
  0
LWPOLYLINE
  5
179
100
AcDbEntity
  8
1
 62
5
100
AcDbPolyline
 90
2
 70
0
 10
568.995473
 20
512.975924
 30
0.0
 10
568.995473
 20
558.059595
 30
0.0
  0
LWPOLYLINE
  5
17a
100
AcDbEntity
  8
1
 62
5
100
AcDbPolyline
 90
2
 70
0
 10
568.995473
 20
601.253532
 30
0.0
 10
568.995473
 20
560.759216
 30
0.0
  0
LWPOLYLINE
  5
17b
100
AcDbEntity
  8
1
 62
5
100
AcDbPolyline
 90
2
 70
0
 10
568.995473
 20
606.652774
 30
0.0
 10
577.094336
 20
606.652774
 30
0.0
  0
LWPOLYLINE
  5
17c
100
AcDbEntity
  8
1
 62
5
100
AcDbPolyline
 90
2
 70
0
 10
568.995473
 20
606.652774
 30
0.0
 10
568.995473
 20
614.751638
 30
0.0
  0
LWPOLYLINE
  5
17d
100
AcDbEntity
  8
1
 62
5
100
AcDbPolyline
 90
2
 70
0
 10
793.064021
 20
332.641237
 30
0.0
 10
793.064021
 20
397.432142
 30
0.0
  0
LWPOLYLINE
  5
17e
100
AcDbEntity
  8
1
 62
5
100
AcDbPolyline
 90
2
 70
0
 10
793.064021
 20
437.926458
 30
0.0
 10
793.064021
 20
400.131763
 30
0.0
  0
LWPOLYLINE
  5
17f
100
AcDbEntity
  8
1
 62
5
100
AcDbPolyline
 90
2
 70
0
 10
793.064021
 20
440.626079
 30
0.0
 10
793.064021
 20
500.017743
 30
0.0
  0
LWPOLYLINE
  5
180
100
AcDbEntity
  8
1
 62
5
100
AcDbPolyline
 90
2
 70
0
 10
793.064021
 20
397.432142
 30
0.0
 10
784.965158
 20
397.432142
 30
0.0
  0
LWPOLYLINE
  5
181
100
AcDbEntity
  8
1
 62
5
100
AcDbPolyline
 90
2
 70
0
 10
784.965158
 20
332.641237
 30
0.0
 10
784.965158
 20
397.432142
 30
0.0
  0
LWPOLYLINE
  5
182
100
AcDbEntity
  8
1
 62
5
100
AcDbPolyline
 90
2
 70
0
 10
784.965158
 20
435.226837
 30
0.0
 10
784.965158
 20
400.131763
 30
0.0
  0
LWPOLYLINE
  5
183
100
AcDbEntity
  8
1
 62
5
100
AcDbPolyline
 90
2
 70
0
 10
784.965158
 20
440.626079
 30
0.0
 10
793.064021
 20
440.626079
 30
0.0
  0
LWPOLYLINE
  5
184
100
AcDbEntity
  8
1
 62
5
100
AcDbPolyline
 90
2
 70
0
 10
784.965158
 20
440.626079
 30
0.0
 10
784.965158
 20
500.017743
 30
0.0
  0
LWPOLYLINE
  5
185
100
AcDbEntity
  8
1
 62
5
100
AcDbPolyline
 90
2
 70
0
 10
679.679937
 20
440.626079
 30
0.0
 10
598.691305
 20
440.626079
 30
0.0
  0
LWPOLYLINE
  5
186
100
AcDbEntity
  8
1
 62
5
100
AcDbPolyline
 90
2
 70
0
 10
679.679937
 20
432.527216
 30
0.0
 10
598.691305
 20
432.527216
 30
0.0
  0
LWPOLYLINE
  5
187
100
AcDbEntity
  8
1
 62
5
100
AcDbPolyline
 90
2
 70
0
 10
687.778800
 20
400.131763
 30
0.0
 10
687.778800
 20
500.017743
 30
0.0
  0
LWPOLYLINE
  5
188
100
AcDbEntity
  8
1
 62
5
100
AcDbPolyline
 90
2
 70
0
 10
679.679937
 20
400.131763
 30
0.0
 10
687.778800
 20
400.131763
 30
0.0
  0
LWPOLYLINE
  5
189
100
AcDbEntity
  8
1
 62
5
100
AcDbPolyline
 90
2
 70
0
 10
679.679937
 20
400.131763
 30
0.0
 10
679.679937
 20
500.017743
 30
0.0
  0
LWPOLYLINE
  5
18a
100
AcDbEntity
  8
1
 62
5
100
AcDbPolyline
 90
2
 70
0
 10
598.691305
 20
400.131763
 30
0.0
 10
598.691305
 20
451.424563
 30
0.0
  0
LWPOLYLINE
  5
18b
100
AcDbEntity
  8
1
 62
5
100
AcDbPolyline
 90
2
 70
0
 10
598.691305
 20
491.918879
 30
0.0
 10
598.691305
 20
454.124184
 30
0.0
  0
LWPOLYLINE
  5
18c
100
AcDbEntity
  8
1
 62
5
100
AcDbPolyline
 90
2
 70
0
 10
598.691305
 20
494.618500
 30
0.0
 10
598.691305
 20
500.017743
 30
0.0
  0
LWPOLYLINE
  5
18d
100
AcDbEntity
  8
1
 62
5
100
AcDbPolyline
 90
2
 70
0
 10
590.592442
 20
400.131763
 30
0.0
 10
598.691305
 20
400.131763
 30
0.0
  0
LWPOLYLINE
  5
18e
100
AcDbEntity
  8
1
 62
5
100
AcDbPolyline
 90
2
 70
0
 10
598.691305
 20
451.424563
 30
0.0
 10
590.592442
 20
451.424563
 30
0.0
  0
LWPOLYLINE
  5
18f
100
AcDbEntity
  8
1
 62
5
100
AcDbPolyline
 90
2
 70
0
 10
590.592442
 20
400.131763
 30
0.0
 10
590.592442
 20
451.424563
 30
0.0
  0
LWPOLYLINE
  5
190
100
AcDbEntity
  8
1
 62
5
100
AcDbPolyline
 90
2
 70
0
 10
590.592442
 20
489.219258
 30
0.0
 10
590.592442
 20
454.124184
 30
0.0
  0
LWPOLYLINE
  5
191
100
AcDbEntity
  8
1
 62
5
100
AcDbPolyline
 90
2
 70
0
 10
590.592442
 20
494.618500
 30
0.0
 10
598.691305
 20
494.618500
 30
0.0
  0
LWPOLYLINE
  5
192
100
AcDbEntity
  8
1
 62
5
100
AcDbPolyline
 90
2
 70
0
 10
590.592442
 20
494.618500
 30
0.0
 10
590.592442
 20
500.017743
 30
0.0
  0
LWPOLYLINE
  5
193
100
AcDbEntity
  8
1
 62
5
100
AcDbPolyline
 90
2
 70
0
 10
568.995473
 20
606.652774
 30
0.0
 10
568.995473
 20
603.953153
 30
0.0
  0
LWPOLYLINE
  5
194
100
AcDbEntity
  8
1
 62
5
100
AcDbPolyline
 90
2
 70
0
 10
577.094336
 20
603.953153
 30
0.0
 10
568.995473
 20
603.953153
 30
0.0
  0
LWPOLYLINE
  5
195
100
AcDbEntity
  8
1
 62
5
100
AcDbPolyline
 90
2
 70
0
 10
577.094336
 20
606.652774
 30
0.0
 10
577.094336
 20
603.953153
 30
0.0
  0
LWPOLYLINE
  5
196
100
AcDbEntity
  8
1
 62
5
100
AcDbPolyline
 90
2
 70
0
 10
568.995473
 20
560.759216
 30
0.0
 10
568.995473
 20
558.059595
 30
0.0
  0
LWPOLYLINE
  5
197
100
AcDbEntity
  8
1
 62
5
100
AcDbPolyline
 90
3
 70
0
 10
568.995473
 20
560.759216
 30
0.0
 10
577.094336
 20
560.759216
 30
0.0
 10
577.094336
 20
558.059595
 30
0.0
  0
LWPOLYLINE
  5
198
100
AcDbEntity
  8
1
 62
5
100
AcDbPolyline
 90
2
 70
0
 10
568.995473
 20
601.253532
 30
0.0
 10
568.995473
 20
603.953153
 30
0.0
  0
LWPOLYLINE
  5
199
100
AcDbEntity
  8
1
 62
5
100
AcDbPolyline
 90
2
 70
0
 10
525.801536
 20
603.953153
 30
0.0
 10
525.801536
 20
601.253532
 30
0.0
  0
LWPOLYLINE
  5
19a
100
AcDbEntity
  8
1
 62
5
100
AcDbPolyline
 90
2
 70
0
 10
568.995473
 20
603.953153
 30
0.0
 10
525.801536
 20
603.953153
 30
0.0
  0
LWPOLYLINE
  5
19b
100
AcDbEntity
  8
1
 62
5
100
AcDbPolyline
 90
2
 70
0
 10
568.995473
 20
601.253532
 30
0.0
 10
525.801536
 20
601.253532
 30
0.0
  0
LWPOLYLINE
  5
19c
100
AcDbEntity
  8
1
 62
5
100
AcDbPolyline
 90
2
 70
0
 10
590.592442
 20
494.618500
 30
0.0
 10
590.592442
 20
491.918879
 30
0.0
  0
LWPOLYLINE
  5
19d
100
AcDbEntity
  8
1
 62
5
100
AcDbPolyline
 90
2
 70
0
 10
598.691305
 20
491.918879
 30
0.0
 10
590.592442
 20
491.918879
 30
0.0
  0
LWPOLYLINE
  5
19e
100
AcDbEntity
  8
1
 62
5
100
AcDbPolyline
 90
2
 70
0
 10
598.691305
 20
494.618500
 30
0.0
 10
598.691305
 20
491.918879
 30
0.0
  0
LWPOLYLINE
  5
19f
100
AcDbEntity
  8
1
 62
5
100
AcDbPolyline
 90
2
 70
0
 10
590.592442
 20
454.124184
 30
0.0
 10
590.592442
 20
451.424563
 30
0.0
  0
LWPOLYLINE
  5
1a0
100
AcDbEntity
  8
1
 62
5
100
AcDbPolyline
 90
3
 70
0
 10
590.592442
 20
454.124184
 30
0.0
 10
598.691305
 20
454.124184
 30
0.0
 10
598.691305
 20
451.424563
 30
0.0
  0
LWPOLYLINE
  5
1a1
100
AcDbEntity
  8
1
 62
5
100
AcDbPolyline
 90
2
 70
0
 10
590.592442
 20
489.219258
 30
0.0
 10
590.592442
 20
491.918879
 30
0.0
  0
LWPOLYLINE
  5
1a2
100
AcDbEntity
  8
1
 62
5
100
AcDbPolyline
 90
2
 70
0
 10
552.797747
 20
491.918879
 30
0.0
 10
552.797747
 20
489.219258
 30
0.0
  0
LWPOLYLINE
  5
1a3
100
AcDbEntity
  8
1
 62
5
100
AcDbPolyline
 90
2
 70
0
 10
590.592442
 20
491.918879
 30
0.0
 10
552.797747
 20
491.918879
 30
0.0
  0
LWPOLYLINE
  5
1a4
100
AcDbEntity
  8
1
 62
5
100
AcDbPolyline
 90
2
 70
0
 10
590.592442
 20
489.219258
 30
0.0
 10
552.797747
 20
489.219258
 30
0.0
  0
LWPOLYLINE
  5
1a5
100
AcDbEntity
  8
1
 62
5
100
AcDbPolyline
 90
2
 70
0
 10
784.965158
 20
440.626079
 30
0.0
 10
784.965158
 20
437.926458
 30
0.0
  0
LWPOLYLINE
  5
1a6
100
AcDbEntity
  8
1
 62
5
100
AcDbPolyline
 90
2
 70
0
 10
793.064021
 20
437.926458
 30
0.0
 10
784.965158
 20
437.926458
 30
0.0
  0
LWPOLYLINE
  5
1a7
100
AcDbEntity
  8
1
 62
5
100
AcDbPolyline
 90
2
 70
0
 10
793.064021
 20
440.626079
 30
0.0
 10
793.064021
 20
437.926458
 30
0.0
  0
LWPOLYLINE
  5
1a8
100
AcDbEntity
  8
1
 62
5
100
AcDbPolyline
 90
2
 70
0
 10
784.965158
 20
400.131763
 30
0.0
 10
784.965158
 20
397.432142
 30
0.0
  0
LWPOLYLINE
  5
1a9
100
AcDbEntity
  8
1
 62
5
100
AcDbPolyline
 90
3
 70
0
 10
784.965158
 20
400.131763
 30
0.0
 10
793.064021
 20
400.131763
 30
0.0
 10
793.064021
 20
397.432142
 30
0.0
  0
LWPOLYLINE
  5
1aa
100
AcDbEntity
  8
1
 62
5
100
AcDbPolyline
 90
2
 70
0
 10
784.965158
 20
435.226837
 30
0.0
 10
784.965158
 20
437.926458
 30
0.0
  0
LWPOLYLINE
  5
1ab
100
AcDbEntity
  8
1
 62
5
100
AcDbPolyline
 90
2
 70
0
 10
747.170463
 20
437.926458
 30
0.0
 10
747.170463
 20
435.226837
 30
0.0
  0
LWPOLYLINE
  5
1ac
100
AcDbEntity
  8
1
 62
5
100
AcDbPolyline
 90
2
 70
0
 10
784.965158
 20
437.926458
 30
0.0
 10
747.170463
 20
437.926458
 30
0.0
  0
LWPOLYLINE
  5
1ad
100
AcDbEntity
  8
1
 62
5
100
AcDbPolyline
 90
2
 70
0
 10
784.965158
 20
435.226837
 30
0.0
 10
747.170463
 20
435.226837
 30
0.0
  0
LWPOLYLINE
  5
1ae
100
AcDbEntity
  8
1
 62
5
100
AcDbPolyline
 90
2
 70
0
 10
397.569536
 20
416.329490
 30
0.0
 10
397.569536
 20
500.017743
 30
0.0
  0
LWPOLYLINE
  5
1af
100
AcDbEntity
  8
1
 62
5
100
AcDbPolyline
 90
2
 70
0
 10
397.569536
 20
416.329490
 30
0.0
 10
416.466883
 20
416.329490
 30
0.0
  0
LWPOLYLINE
  5
1b0
100
AcDbEntity
  8
1
 62
5
100
AcDbPolyline
 90
2
 70
0
 10
419.166504
 20
416.329490
 30
0.0
 10
454.261578
 20
416.329490
 30
0.0
  0
LWPOLYLINE
  5
1b1
100
AcDbEntity
  8
1
 62
5
100
AcDbPolyline
 90
2
 70
0
 10
459.660820
 20
416.329490
 30
0.0
 10
500.155136
 20
416.329490
 30
0.0
  0
LWPOLYLINE
  5
1b2
100
AcDbEntity
  8
1
 62
5
100
AcDbPolyline
 90
2
 70
0
 10
416.466883
 20
416.329490
 30
0.0
 10
416.466883
 20
424.428353
 30
0.0
  0
LWPOLYLINE
  5
1b3
100
AcDbEntity
  8
1
 62
5
100
AcDbPolyline
 90
2
 70
0
 10
405.668399
 20
424.428353
 30
0.0
 10
416.466883
 20
424.428353
 30
0.0
  0
LWPOLYLINE
  5
1b4
100
AcDbEntity
  8
1
 62
5
100
AcDbPolyline
 90
2
 70
0
 10
405.668399
 20
500.017743
 30
0.0
 10
405.668399
 20
424.428353
 30
0.0
  0
LWPOLYLINE
  5
1b5
100
AcDbEntity
  8
1
 62
5
100
AcDbPolyline
 90
2
 70
0
 10
500.155136
 20
424.428353
 30
0.0
 10
500.155136
 20
416.329490
 30
0.0
  0
LWPOLYLINE
  5
1b6
100
AcDbEntity
  8
1
 62
5
100
AcDbPolyline
 90
2
 70
0
 10
419.166504
 20
424.428353
 30
0.0
 10
456.961199
 20
424.428353
 30
0.0
  0
LWPOLYLINE
  5
1b7
100
AcDbEntity
  8
1
 62
5
100
AcDbPolyline
 90
2
 70
0
 10
459.660820
 20
424.428353
 30
0.0
 10
500.155136
 20
424.428353
 30
0.0
  0
LWPOLYLINE
  5
1b8
100
AcDbEntity
  8
1
 62
5
100
AcDbPolyline
 90
2
 70
0
 10
459.660820
 20
424.428353
 30
0.0
 10
459.660820
 20
416.329490
 30
0.0
  0
LWPOLYLINE
  5
1b9
100
AcDbEntity
  8
1
 62
5
100
AcDbPolyline
 90
2
 70
0
 10
459.660820
 20
424.428353
 30
0.0
 10
459.660820
 20
500.017743
 30
0.0
  0
LWPOLYLINE
  5
1ba
100
AcDbEntity
  8
1
 62
5
100
AcDbPolyline
 90
2
 70
0
 10
467.759683
 20
500.017743
 30
0.0
 10
467.759683
 20
424.428353
 30
0.0
  0
LWPOLYLINE
  5
1bb
100
AcDbEntity
  8
1
 62
5
100
AcDbPolyline
 90
2
 70
0
 10
416.466883
 20
416.329490
 30
0.0
 10
419.166504
 20
416.329490
 30
0.0
  0
LWPOLYLINE
  5
1bc
100
AcDbEntity
  8
1
 62
5
100
AcDbPolyline
 90
2
 70
0
 10
419.166504
 20
424.428353
 30
0.0
 10
419.166504
 20
416.329490
 30
0.0
  0
LWPOLYLINE
  5
1bd
100
AcDbEntity
  8
1
 62
5
100
AcDbPolyline
 90
2
 70
0
 10
416.466883
 20
424.428353
 30
0.0
 10
419.166504
 20
424.428353
 30
0.0
  0
LWPOLYLINE
  5
1be
100
AcDbEntity
  8
1
 62
5
100
AcDbPolyline
 90
2
 70
0
 10
456.961199
 20
416.329490
 30
0.0
 10
459.660820
 20
416.329490
 30
0.0
  0
LWPOLYLINE
  5
1bf
100
AcDbEntity
  8
1
 62
5
100
AcDbPolyline
 90
3
 70
0
 10
456.961199
 20
416.329490
 30
0.0
 10
456.961199
 20
424.428353
 30
0.0
 10
459.660820
 20
424.428353
 30
0.0
  0
LWPOLYLINE
  5
1c0
100
AcDbEntity
  8
1
 62
5
100
AcDbPolyline
 90
2
 70
0
 10
454.261578
 20
378.534795
 30
0.0
 10
456.961199
 20
378.534795
 30
0.0
  0
LWPOLYLINE
  5
1c1
100
AcDbEntity
  8
1
 62
5
100
AcDbPolyline
 90
2
 70
0
 10
456.961199
 20
416.329490
 30
0.0
 10
454.261578
 20
416.329490
 30
0.0
  0
LWPOLYLINE
  5
1c2
100
AcDbEntity
  8
1
 62
5
100
AcDbPolyline
 90
2
 70
0
 10
456.961199
 20
378.534795
 30
0.0
 10
456.961199
 20
416.329490
 30
0.0
  0
LWPOLYLINE
  5
1c3
100
AcDbEntity
  8
1
 62
5
100
AcDbPolyline
 90
2
 70
0
 10
454.261578
 20
378.534795
 30
0.0
 10
454.261578
 20
416.329490
 30
0.0
  0
LWPOLYLINE
  5
1c4
100
AcDbEntity
  8
1
 62
5
100
AcDbPolyline
 90
2
 70
0
 10
361.124651
 20
630.949364
 30
0.0
 10
359.774841
 20
630.949364
 30
0.0
  0
LWPOLYLINE
  5
1c5
100
AcDbEntity
  8
1
 62
5
100
AcDbPolyline
 90
2
 70
0
 10
267.987725
 20
630.949364
 30
0.0
 10
266.637914
 20
630.949364
 30
0.0
  0
LWPOLYLINE
  5
1c6
100
AcDbEntity
  8
1
 62
5
100
AcDbPolyline
 90
2
 70
0
 10
361.124651
 20
630.895372
 30
0.0
 10
359.774841
 20
630.895372
 30
0.0
  0
LWPOLYLINE
  5
1c7
100
AcDbEntity
  8
1
 62
5
100
AcDbPolyline
 90
2
 70
0
 10
267.987725
 20
630.895372
 30
0.0
 10
266.637914
 20
630.895372
 30
0.0
  0
LWPOLYLINE
  5
1c8
100
AcDbEntity
  8
1
 62
5
100
AcDbPolyline
 90
2
 70
0
 10
361.124651
 20
625.550122
 30
0.0
 10
361.124651
 20
630.949364
 30
0.0
  0
LWPOLYLINE
  5
1c9
100
AcDbEntity
  8
1
 62
5
100
AcDbPolyline
 90
4
 70
0
 10
361.124651
 20
625.550122
 30
0.0
 10
359.774841
 20
625.550122
 30
0.0
 10
267.987725
 20
625.550122
 30
0.0
 10
266.637914
 20
625.550122
 30
0.0
  0
LWPOLYLINE
  5
1ca
100
AcDbEntity
  8
1
 62
5
100
AcDbPolyline
 90
2
 70
0
 10
359.774841
 20
625.550122
 30
0.0
 10
359.774841
 20
630.949364
 30
0.0
  0
LWPOLYLINE
  5
1cb
100
AcDbEntity
  8
1
 62
5
100
AcDbPolyline
 90
2
 70
0
 10
267.987725
 20
630.949364
 30
0.0
 10
267.987725
 20
625.550122
 30
0.0
  0
LWPOLYLINE
  5
1cc
100
AcDbEntity
  8
1
 62
5
100
AcDbPolyline
 90
2
 70
0
 10
266.637914
 20
630.949364
 30
0.0
 10
266.637914
 20
625.550122
 30
0.0
  0
LWPOLYLINE
  5
1cd
100
AcDbEntity
  8
1
 62
5
100
AcDbPolyline
 90
2
 70
0
 10
359.774841
 20
630.949364
 30
0.0
 10
358.425030
 20
630.949364
 30
0.0
  0
LWPOLYLINE
  5
1ce
100
AcDbEntity
  8
1
 62
5
100
AcDbPolyline
 90
2
 70
0
 10
315.231093
 20
630.949364
 30
0.0
 10
312.531472
 20
630.949364
 30
0.0
  0
LWPOLYLINE
  5
1cf
100
AcDbEntity
  8
1
 62
5
100
AcDbPolyline
 90
2
 70
0
 10
269.337535
 20
630.949364
 30
0.0
 10
267.987725
 20
630.949364
 30
0.0
  0
LWPOLYLINE
  5
1d0
100
AcDbEntity
  8
1
 62
5
100
AcDbPolyline
 90
2
 70
0
 10
359.774841
 20
628.249743
 30
0.0
 10
358.425030
 20
628.249743
 30
0.0
  0
LWPOLYLINE
  5
1d1
100
AcDbEntity
  8
1
 62
5
100
AcDbPolyline
 90
2
 70
0
 10
315.231093
 20
628.249743
 30
0.0
 10
312.531472
 20
628.249743
 30
0.0
  0
LWPOLYLINE
  5
1d2
100
AcDbEntity
  8
1
 62
5
100
AcDbPolyline
 90
2
 70
0
 10
269.337535
 20
628.249743
 30
0.0
 10
267.987725
 20
628.249743
 30
0.0
  0
LWPOLYLINE
  5
1d3
100
AcDbEntity
  8
1
 62
5
100
AcDbPolyline
 90
2
 70
0
 10
358.425030
 20
628.249743
 30
0.0
 10
358.425030
 20
630.949364
 30
0.0
  0
LWPOLYLINE
  5
1d4
100
AcDbEntity
  8
1
 62
5
100
AcDbPolyline
 90
2
 70
0
 10
315.231093
 20
630.949364
 30
0.0
 10
315.231093
 20
628.249743
 30
0.0
  0
LWPOLYLINE
  5
1d5
100
AcDbEntity
  8
1
 62
5
100
AcDbPolyline
 90
2
 70
0
 10
312.531472
 20
628.249743
 30
0.0
 10
312.531472
 20
630.949364
 30
0.0
  0
LWPOLYLINE
  5
1d6
100
AcDbEntity
  8
1
 62
5
100
AcDbPolyline
 90
2
 70
0
 10
269.337535
 20
630.949364
 30
0.0
 10
269.337535
 20
628.249743
 30
0.0
  0
LWPOLYLINE
  5
1d7
100
AcDbEntity
  8
1
 62
5
100
AcDbPolyline
 90
2
 70
0
 10
358.425030
 20
630.949364
 30
0.0
 10
315.231093
 20
630.949364
 30
0.0
  0
LWPOLYLINE
  5
1d8
100
AcDbEntity
  8
1
 62
5
100
AcDbPolyline
 90
2
 70
0
 10
358.425030
 20
628.249743
 30
0.0
 10
315.231093
 20
628.249743
 30
0.0
  0
LWPOLYLINE
  5
1d9
100
AcDbEntity
  8
1
 62
5
100
AcDbPolyline
 90
2
 70
0
 10
312.531472
 20
630.949364
 30
0.0
 10
269.337535
 20
630.949364
 30
0.0
  0
LWPOLYLINE
  5
1da
100
AcDbEntity
  8
1
 62
5
100
AcDbPolyline
 90
2
 70
0
 10
312.531472
 20
628.249743
 30
0.0
 10
269.337535
 20
628.249743
 30
0.0
  0
LWPOLYLINE
  5
1db
100
AcDbEntity
  8
1
 62
5
100
AcDbPolyline
 90
3
 70
0
 10
860.284586
 20
706.538754
 30
0.0
 10
860.284586
 20
711.937996
 30
0.0
 10
858.934775
 20
711.937996
 30
0.0
  0
LWPOLYLINE
  5
1dc
100
AcDbEntity
  8
1
 62
5
100
AcDbPolyline
 90
2
 70
0
 10
767.147659
 20
711.937996
 30
0.0
 10
765.797849
 20
711.937996
 30
0.0
  0
LWPOLYLINE
  5
1dd
100
AcDbEntity
  8
1
 62
5
100
AcDbPolyline
 90
4
 70
0
 10
860.284586
 20
706.538754
 30
0.0
 10
858.934775
 20
706.538754
 30
0.0
 10
767.147659
 20
706.538754
 30
0.0
 10
765.797849
 20
706.538754
 30
0.0
  0
LWPOLYLINE
  5
1de
100
AcDbEntity
  8
1
 62
5
100
AcDbPolyline
 90
2
 70
0
 10
858.934775
 20
706.538754
 30
0.0
 10
858.934775
 20
711.937996
 30
0.0
  0
LWPOLYLINE
  5
1df
100
AcDbEntity
  8
1
 62
5
100
AcDbPolyline
 90
2
 70
0
 10
767.147659
 20
711.937996
 30
0.0
 10
767.147659
 20
706.538754
 30
0.0
  0
LWPOLYLINE
  5
1e0
100
AcDbEntity
  8
1
 62
5
100
AcDbPolyline
 90
2
 70
0
 10
765.797849
 20
711.937996
 30
0.0
 10
765.797849
 20
706.538754
 30
0.0
  0
LWPOLYLINE
  5
1e1
100
AcDbEntity
  8
1
 62
5
100
AcDbPolyline
 90
2
 70
0
 10
858.934775
 20
711.937996
 30
0.0
 10
857.584965
 20
711.937996
 30
0.0
  0
LWPOLYLINE
  5
1e2
100
AcDbEntity
  8
1
 62
5
100
AcDbPolyline
 90
2
 70
0
 10
814.391028
 20
711.937996
 30
0.0
 10
811.691407
 20
711.937996
 30
0.0
  0
LWPOLYLINE
  5
1e3
100
AcDbEntity
  8
1
 62
5
100
AcDbPolyline
 90
2
 70
0
 10
768.497470
 20
711.937996
 30
0.0
 10
767.147659
 20
711.937996
 30
0.0
  0
LWPOLYLINE
  5
1e4
100
AcDbEntity
  8
1
 62
5
100
AcDbPolyline
 90
2
 70
0
 10
858.934775
 20
709.238375
 30
0.0
 10
857.584965
 20
709.238375
 30
0.0
  0
LWPOLYLINE
  5
1e5
100
AcDbEntity
  8
1
 62
5
100
AcDbPolyline
 90
2
 70
0
 10
814.391028
 20
709.238375
 30
0.0
 10
811.691407
 20
709.238375
 30
0.0
  0
LWPOLYLINE
  5
1e6
100
AcDbEntity
  8
1
 62
5
100
AcDbPolyline
 90
2
 70
0
 10
768.497470
 20
709.238375
 30
0.0
 10
767.147659
 20
709.238375
 30
0.0
  0
LWPOLYLINE
  5
1e7
100
AcDbEntity
  8
1
 62
5
100
AcDbPolyline
 90
2
 70
0
 10
857.584965
 20
709.238375
 30
0.0
 10
857.584965
 20
711.937996
 30
0.0
  0
LWPOLYLINE
  5
1e8
100
AcDbEntity
  8
1
 62
5
100
AcDbPolyline
 90
2
 70
0
 10
814.391028
 20
711.937996
 30
0.0
 10
814.391028
 20
709.238375
 30
0.0
  0
LWPOLYLINE
  5
1e9
100
AcDbEntity
  8
1
 62
5
100
AcDbPolyline
 90
2
 70
0
 10
811.691407
 20
709.238375
 30
0.0
 10
811.691407
 20
711.937996
 30
0.0
  0
LWPOLYLINE
  5
1ea
100
AcDbEntity
  8
1
 62
5
100
AcDbPolyline
 90
2
 70
0
 10
768.497470
 20
711.937996
 30
0.0
 10
768.497470
 20
709.238375
 30
0.0
  0
LWPOLYLINE
  5
1eb
100
AcDbEntity
  8
1
 62
5
100
AcDbPolyline
 90
2
 70
0
 10
811.691407
 20
711.937996
 30
0.0
 10
768.497470
 20
711.937996
 30
0.0
  0
LWPOLYLINE
  5
1ec
100
AcDbEntity
  8
1
 62
5
100
AcDbPolyline
 90
2
 70
0
 10
811.691407
 20
709.238375
 30
0.0
 10
768.497470
 20
709.238375
 30
0.0
  0
LWPOLYLINE
  5
1ed
100
AcDbEntity
  8
1
 62
5
100
AcDbPolyline
 90
2
 70
0
 10
857.584965
 20
711.937996
 30
0.0
 10
814.391028
 20
711.937996
 30
0.0
  0
LWPOLYLINE
  5
1ee
100
AcDbEntity
  8
1
 62
5
100
AcDbPolyline
 90
2
 70
0
 10
857.584965
 20
709.238375
 30
0.0
 10
814.391028
 20
709.238375
 30
0.0
  0
LWPOLYLINE
  5
1ef
100
AcDbEntity
  8
1
 62
5
100
AcDbPolyline
 90
3
 70
0
 10
544.698884
 20
77.527046
 30
0.0
 10
544.698884
 20
72.127804
 30
0.0
 10
546.048694
 20
72.127804
 30
0.0
  0
LWPOLYLINE
  5
1f0
100
AcDbEntity
  8
1
 62
5
100
AcDbPolyline
 90
2
 70
0
 10
637.835810
 20
72.127804
 30
0.0
 10
639.185621
 20
72.127804
 30
0.0
  0
LWPOLYLINE
  5
1f1
100
AcDbEntity
  8
1
 62
5
100
AcDbPolyline
 90
4
 70
0
 10
544.698884
 20
77.527046
 30
0.0
 10
546.048694
 20
77.527046
 30
0.0
 10
637.835810
 20
77.527046
 30
0.0
 10
639.185621
 20
77.527046
 30
0.0
  0
LWPOLYLINE
  5
1f2
100
AcDbEntity
  8
1
 62
5
100
AcDbPolyline
 90
2
 70
0
 10
546.048694
 20
77.527046
 30
0.0
 10
546.048694
 20
72.127804
 30
0.0
  0
LWPOLYLINE
  5
1f3
100
AcDbEntity
  8
1
 62
5
100
AcDbPolyline
 90
2
 70
0
 10
637.835810
 20
72.127804
 30
0.0
 10
637.835810
 20
77.527046
 30
0.0
  0
LWPOLYLINE
  5
1f4
100
AcDbEntity
  8
1
 62
5
100
AcDbPolyline
 90
2
 70
0
 10
639.185621
 20
72.127804
 30
0.0
 10
639.185621
 20
77.527046
 30
0.0
  0
LWPOLYLINE
  5
1f5
100
AcDbEntity
  8
1
 62
5
100
AcDbPolyline
 90
2
 70
0
 10
546.048694
 20
72.127804
 30
0.0
 10
547.398505
 20
72.127804
 30
0.0
  0
LWPOLYLINE
  5
1f6
100
AcDbEntity
  8
1
 62
5
100
AcDbPolyline
 90
2
 70
0
 10
590.592442
 20
72.127804
 30
0.0
 10
593.292063
 20
72.127804
 30
0.0
  0
LWPOLYLINE
  5
1f7
100
AcDbEntity
  8
1
 62
5
100
AcDbPolyline
 90
2
 70
0
 10
636.486000
 20
72.127804
 30
0.0
 10
637.835810
 20
72.127804
 30
0.0
  0
LWPOLYLINE
  5
1f8
100
AcDbEntity
  8
1
 62
5
100
AcDbPolyline
 90
2
 70
0
 10
546.048694
 20
74.827425
 30
0.0
 10
547.398505
 20
74.827425
 30
0.0
  0
LWPOLYLINE
  5
1f9
100
AcDbEntity
  8
1
 62
5
100
AcDbPolyline
 90
2
 70
0
 10
590.592442
 20
74.827425
 30
0.0
 10
593.292063
 20
74.827425
 30
0.0
  0
LWPOLYLINE
  5
1fa
100
AcDbEntity
  8
1
 62
5
100
AcDbPolyline
 90
2
 70
0
 10
636.486000
 20
74.827425
 30
0.0
 10
637.835810
 20
74.827425
 30
0.0
  0
LWPOLYLINE
  5
1fb
100
AcDbEntity
  8
1
 62
5
100
AcDbPolyline
 90
2
 70
0
 10
547.398505
 20
74.827425
 30
0.0
 10
547.398505
 20
72.127804
 30
0.0
  0
LWPOLYLINE
  5
1fc
100
AcDbEntity
  8
1
 62
5
100
AcDbPolyline
 90
2
 70
0
 10
590.592442
 20
72.127804
 30
0.0
 10
590.592442
 20
74.827425
 30
0.0
  0
LWPOLYLINE
  5
1fd
100
AcDbEntity
  8
1
 62
5
100
AcDbPolyline
 90
2
 70
0
 10
593.292063
 20
74.827425
 30
0.0
 10
593.292063
 20
72.127804
 30
0.0
  0
LWPOLYLINE
  5
1fe
100
AcDbEntity
  8
1
 62
5
100
AcDbPolyline
 90
2
 70
0
 10
636.486000
 20
72.127804
 30
0.0
 10
636.486000
 20
74.827425
 30
0.0
  0
LWPOLYLINE
  5
1ff
100
AcDbEntity
  8
1
 62
5
100
AcDbPolyline
 90
2
 70
0
 10
547.398505
 20
72.127804
 30
0.0
 10
590.592442
 20
72.127804
 30
0.0
  0
LWPOLYLINE
  5
200
100
AcDbEntity
  8
1
 62
5
100
AcDbPolyline
 90
2
 70
0
 10
547.398505
 20
74.827425
 30
0.0
 10
590.592442
 20
74.827425
 30
0.0
  0
LWPOLYLINE
  5
201
100
AcDbEntity
  8
1
 62
5
100
AcDbPolyline
 90
2
 70
0
 10
593.292063
 20
72.127804
 30
0.0
 10
636.486000
 20
72.127804
 30
0.0
  0
LWPOLYLINE
  5
202
100
AcDbEntity
  8
1
 62
5
100
AcDbPolyline
 90
2
 70
0
 10
593.292063
 20
74.827425
 30
0.0
 10
636.486000
 20
74.827425
 30
0.0
  0
LWPOLYLINE
  5
203
100
AcDbEntity
  8
1
 62
5
100
AcDbPolyline
 90
3
 70
0
 10
741.771221
 20
77.527046
 30
0.0
 10
741.771221
 20
72.127804
 30
0.0
 10
743.121032
 20
72.127804
 30
0.0
  0
LWPOLYLINE
  5
204
100
AcDbEntity
  8
1
 62
5
100
AcDbPolyline
 90
2
 70
0
 10
834.908148
 20
72.127804
 30
0.0
 10
836.257958
 20
72.127804
 30
0.0
  0
LWPOLYLINE
  5
205
100
AcDbEntity
  8
1
 62
5
100
AcDbPolyline
 90
4
 70
0
 10
741.771221
 20
77.527046
 30
0.0
 10
743.121032
 20
77.527046
 30
0.0
 10
834.908148
 20
77.527046
 30
0.0
 10
836.257958
 20
77.527046
 30
0.0
  0
LWPOLYLINE
  5
206
100
AcDbEntity
  8
1
 62
5
100
AcDbPolyline
 90
2
 70
0
 10
743.121032
 20
77.527046
 30
0.0
 10
743.121032
 20
72.127804
 30
0.0
  0
LWPOLYLINE
  5
207
100
AcDbEntity
  8
1
 62
5
100
AcDbPolyline
 90
2
 70
0
 10
834.908148
 20
72.127804
 30
0.0
 10
834.908148
 20
77.527046
 30
0.0
  0
LWPOLYLINE
  5
208
100
AcDbEntity
  8
1
 62
5
100
AcDbPolyline
 90
2
 70
0
 10
836.257958
 20
72.127804
 30
0.0
 10
836.257958
 20
77.527046
 30
0.0
  0
LWPOLYLINE
  5
209
100
AcDbEntity
  8
1
 62
5
100
AcDbPolyline
 90
2
 70
0
 10
743.121032
 20
72.127804
 30
0.0
 10
744.470842
 20
72.127804
 30
0.0
  0
LWPOLYLINE
  5
20a
100
AcDbEntity
  8
1
 62
5
100
AcDbPolyline
 90
2
 70
0
 10
787.664779
 20
72.127804
 30
0.0
 10
790.364400
 20
72.127804
 30
0.0
  0
LWPOLYLINE
  5
20b
100
AcDbEntity
  8
1
 62
5
100
AcDbPolyline
 90
2
 70
0
 10
833.558337
 20
72.127804
 30
0.0
 10
834.908148
 20
72.127804
 30
0.0
  0
LWPOLYLINE
  5
20c
100
AcDbEntity
  8
1
 62
5
100
AcDbPolyline
 90
2
 70
0
 10
743.121032
 20
74.827425
 30
0.0
 10
744.470842
 20
74.827425
 30
0.0
  0
LWPOLYLINE
  5
20d
100
AcDbEntity
  8
1
 62
5
100
AcDbPolyline
 90
2
 70
0
 10
787.664779
 20
74.827425
 30
0.0
 10
790.364400
 20
74.827425
 30
0.0
  0
LWPOLYLINE
  5
20e
100
AcDbEntity
  8
1
 62
5
100
AcDbPolyline
 90
2
 70
0
 10
833.558337
 20
74.827425
 30
0.0
 10
834.908148
 20
74.827425
 30
0.0
  0
LWPOLYLINE
  5
20f
100
AcDbEntity
  8
1
 62
5
100
AcDbPolyline
 90
2
 70
0
 10
744.470842
 20
74.827425
 30
0.0
 10
744.470842
 20
72.127804
 30
0.0
  0
LWPOLYLINE
  5
210
100
AcDbEntity
  8
1
 62
5
100
AcDbPolyline
 90
2
 70
0
 10
787.664779
 20
72.127804
 30
0.0
 10
787.664779
 20
74.827425
 30
0.0
  0
LWPOLYLINE
  5
211
100
AcDbEntity
  8
1
 62
5
100
AcDbPolyline
 90
2
 70
0
 10
790.364400
 20
74.827425
 30
0.0
 10
790.364400
 20
72.127804
 30
0.0
  0
LWPOLYLINE
  5
212
100
AcDbEntity
  8
1
 62
5
100
AcDbPolyline
 90
2
 70
0
 10
833.558337
 20
72.127804
 30
0.0
 10
833.558337
 20
74.827425
 30
0.0
  0
LWPOLYLINE
  5
213
100
AcDbEntity
  8
1
 62
5
100
AcDbPolyline
 90
2
 70
0
 10
744.470842
 20
72.127804
 30
0.0
 10
787.664779
 20
72.127804
 30
0.0
  0
LWPOLYLINE
  5
214
100
AcDbEntity
  8
1
 62
5
100
AcDbPolyline
 90
2
 70
0
 10
744.470842
 20
74.827425
 30
0.0
 10
787.664779
 20
74.827425
 30
0.0
  0
LWPOLYLINE
  5
215
100
AcDbEntity
  8
1
 62
5
100
AcDbPolyline
 90
2
 70
0
 10
790.364400
 20
72.127804
 30
0.0
 10
833.558337
 20
72.127804
 30
0.0
  0
LWPOLYLINE
  5
216
100
AcDbEntity
  8
1
 62
5
100
AcDbPolyline
 90
2
 70
0
 10
790.364400
 20
74.827425
 30
0.0
 10
833.558337
 20
74.827425
 30
0.0
  0
LWPOLYLINE
  5
217
100
AcDbEntity
  8
1
 62
5
100
AcDbPolyline
 90
3
 70
0
 10
660.782589
 20
706.538754
 30
0.0
 10
660.782589
 20
711.937996
 30
0.0
 10
659.432779
 20
711.937996
 30
0.0
  0
LWPOLYLINE
  5
218
100
AcDbEntity
  8
1
 62
5
100
AcDbPolyline
 90
2
 70
0
 10
616.238842
 20
711.937996
 30
0.0
 10
614.889031
 20
711.937996
 30
0.0
  0
LWPOLYLINE
  5
219
100
AcDbEntity
  8
1
 62
5
100
AcDbPolyline
 90
4
 70
0
 10
660.782589
 20
706.538754
 30
0.0
 10
659.432779
 20
706.538754
 30
0.0
 10
616.238842
 20
706.538754
 30
0.0
 10
614.889031
 20
706.538754
 30
0.0
  0
LWPOLYLINE
  5
21a
100
AcDbEntity
  8
1
 62
5
100
AcDbPolyline
 90
2
 70
0
 10
659.432779
 20
706.538754
 30
0.0
 10
659.432779
 20
711.937996
 30
0.0
  0
LWPOLYLINE
  5
21b
100
AcDbEntity
  8
1
 62
5
100
AcDbPolyline
 90
2
 70
0
 10
616.238842
 20
711.937996
 30
0.0
 10
616.238842
 20
706.538754
 30
0.0
  0
LWPOLYLINE
  5
21c
100
AcDbEntity
  8
1
 62
5
100
AcDbPolyline
 90
2
 70
0
 10
614.889031
 20
711.937996
 30
0.0
 10
614.889031
 20
706.538754
 30
0.0
  0
LWPOLYLINE
  5
21d
100
AcDbEntity
  8
1
 62
5
100
AcDbPolyline
 90
2
 70
0
 10
659.432779
 20
711.937996
 30
0.0
 10
658.082968
 20
711.937996
 30
0.0
  0
LWPOLYLINE
  5
21e
100
AcDbEntity
  8
1
 62
5
100
AcDbPolyline
 90
2
 70
0
 10
617.588652
 20
711.937996
 30
0.0
 10
616.238842
 20
711.937996
 30
0.0
  0
LWPOLYLINE
  5
21f
100
AcDbEntity
  8
1
 62
5
100
AcDbPolyline
 90
2
 70
0
 10
659.432779
 20
709.238375
 30
0.0
 10
658.082968
 20
709.238375
 30
0.0
  0
LWPOLYLINE
  5
220
100
AcDbEntity
  8
1
 62
5
100
AcDbPolyline
 90
2
 70
0
 10
617.588652
 20
709.238375
 30
0.0
 10
616.238842
 20
709.238375
 30
0.0
  0
LWPOLYLINE
  5
221
100
AcDbEntity
  8
1
 62
5
100
AcDbPolyline
 90
2
 70
0
 10
658.082968
 20
709.238375
 30
0.0
 10
658.082968
 20
711.937996
 30
0.0
  0
LWPOLYLINE
  5
222
100
AcDbEntity
  8
1
 62
5
100
AcDbPolyline
 90
2
 70
0
 10
617.588652
 20
711.937996
 30
0.0
 10
617.588652
 20
709.238375
 30
0.0
  0
LWPOLYLINE
  5
223
100
AcDbEntity
  8
1
 62
5
100
AcDbPolyline
 90
2
 70
0
 10
658.082968
 20
711.937996
 30
0.0
 10
617.588652
 20
711.937996
 30
0.0
  0
LWPOLYLINE
  5
224
100
AcDbEntity
  8
1
 62
5
100
AcDbPolyline
 90
2
 70
0
 10
658.082968
 20
709.238375
 30
0.0
 10
617.588652
 20
709.238375
 30
0.0
  0
LWPOLYLINE
  5
225
100
AcDbEntity
  8
1
 62
5
100
AcDbPolyline
 90
3
 70
0
 10
906.448106
 20
393.382711
 30
0.0
 10
911.847348
 20
393.382711
 30
0.0
 10
911.847348
 20
394.732521
 30
0.0
  0
LWPOLYLINE
  5
226
100
AcDbEntity
  8
1
 62
5
100
AcDbPolyline
 90
2
 70
0
 10
911.847348
 20
437.926458
 30
0.0
 10
911.847348
 20
439.276269
 30
0.0
  0
LWPOLYLINE
  5
227
100
AcDbEntity
  8
1
 62
5
100
AcDbPolyline
 90
4
 70
0
 10
906.448106
 20
393.382711
 30
0.0
 10
906.448106
 20
394.732521
 30
0.0
 10
906.448106
 20
437.926458
 30
0.0
 10
906.448106
 20
439.276269
 30
0.0
  0
LWPOLYLINE
  5
228
100
AcDbEntity
  8
1
 62
5
100
AcDbPolyline
 90
2
 70
0
 10
906.448106
 20
394.732521
 30
0.0
 10
911.847348
 20
394.732521
 30
0.0
  0
LWPOLYLINE
  5
229
100
AcDbEntity
  8
1
 62
5
100
AcDbPolyline
 90
2
 70
0
 10
911.847348
 20
437.926458
 30
0.0
 10
906.448106
 20
437.926458
 30
0.0
  0
LWPOLYLINE
  5
22a
100
AcDbEntity
  8
1
 62
5
100
AcDbPolyline
 90
2
 70
0
 10
911.847348
 20
439.276269
 30
0.0
 10
906.448106
 20
439.276269
 30
0.0
  0
LWPOLYLINE
  5
22b
100
AcDbEntity
  8
1
 62
5
100
AcDbPolyline
 90
2
 70
0
 10
911.847348
 20
394.732521
 30
0.0
 10
911.847348
 20
396.082332
 30
0.0
  0
LWPOLYLINE
  5
22c
100
AcDbEntity
  8
1
 62
5
100
AcDbPolyline
 90
2
 70
0
 10
911.847348
 20
436.576648
 30
0.0
 10
911.847348
 20
437.926458
 30
0.0
  0
LWPOLYLINE
  5
22d
100
AcDbEntity
  8
1
 62
5
100
AcDbPolyline
 90
2
 70
0
 10
909.147727
 20
394.732521
 30
0.0
 10
909.147727
 20
396.082332
 30
0.0
  0
LWPOLYLINE
  5
22e
100
AcDbEntity
  8
1
 62
5
100
AcDbPolyline
 90
2
 70
0
 10
909.147727
 20
436.576648
 30
0.0
 10
909.147727
 20
437.926458
 30
0.0
  0
LWPOLYLINE
  5
22f
100
AcDbEntity
  8
1
 62
5
100
AcDbPolyline
 90
2
 70
0
 10
909.147727
 20
396.082332
 30
0.0
 10
911.847348
 20
396.082332
 30
0.0
  0
LWPOLYLINE
  5
230
100
AcDbEntity
  8
1
 62
5
100
AcDbPolyline
 90
2
 70
0
 10
911.847348
 20
436.576648
 30
0.0
 10
909.147727
 20
436.576648
 30
0.0
  0
LWPOLYLINE
  5
231
100
AcDbEntity
  8
1
 62
5
100
AcDbPolyline
 90
2
 70
0
 10
911.847348
 20
396.082332
 30
0.0
 10
911.847348
 20
436.576648
 30
0.0
  0
LWPOLYLINE
  5
232
100
AcDbEntity
  8
1
 62
5
100
AcDbPolyline
 90
2
 70
0
 10
909.147727
 20
396.082332
 30
0.0
 10
909.147727
 20
436.576648
 30
0.0
  0
LWPOLYLINE
  5
233
100
AcDbEntity
  8
1
 62
5
100
AcDbPolyline
 90
2
 70
0
 10
209.945872
 20
691.420876
 30
0.0
 10
209.945872
 20
711.937996
 30
0.0
  0
LWPOLYLINE
  5
234
100
AcDbEntity
  8
1
 62
5
100
AcDbPolyline
 90
2
 70
0
 10
230.462992
 20
691.420876
 30
0.0
 10
209.945872
 20
691.420876
 30
0.0
  0
LWPOLYLINE
  5
235
100
AcDbEntity
  8
1
 62
5
100
AcDbPolyline
 90
2
 70
0
 10
230.462992
 20
711.937996
 30
0.0
 10
230.462992
 20
691.420876
 30
0.0
  0
LWPOLYLINE
  5
236
100
AcDbEntity
  8
1
 62
5
100
AcDbPolyline
 90
2
 70
0
 10
209.945872
 20
711.937996
 30
0.0
 10
230.462992
 20
711.937996
 30
0.0
  0
LWPOLYLINE
  5
237
100
AcDbEntity
  8
1
 62
5
100
AcDbPolyline
 90
3
 70
0
 10
215.345114
 20
451.424563
 30
0.0
 10
209.945872
 20
451.424563
 30
0.0
 10
209.945872
 20
450.074753
 30
0.0
  0
LWPOLYLINE
  5
238
100
AcDbEntity
  8
1
 62
5
100
AcDbPolyline
 90
2
 70
0
 10
209.945872
 20
358.287637
 30
0.0
 10
209.945872
 20
356.937826
 30
0.0
  0
LWPOLYLINE
  5
239
100
AcDbEntity
  8
1
 62
5
100
AcDbPolyline
 90
4
 70
0
 10
215.345114
 20
451.424563
 30
0.0
 10
215.345114
 20
450.074753
 30
0.0
 10
215.345114
 20
358.287637
 30
0.0
 10
215.345114
 20
356.937826
 30
0.0
  0
LWPOLYLINE
  5
23a
100
AcDbEntity
  8
1
 62
5
100
AcDbPolyline
 90
2
 70
0
 10
215.345114
 20
450.074753
 30
0.0
 10
209.945872
 20
450.074753
 30
0.0
  0
LWPOLYLINE
  5
23b
100
AcDbEntity
  8
1
 62
5
100
AcDbPolyline
 90
2
 70
0
 10
209.945872
 20
358.287637
 30
0.0
 10
215.345114
 20
358.287637
 30
0.0
  0
LWPOLYLINE
  5
23c
100
AcDbEntity
  8
1
 62
5
100
AcDbPolyline
 90
2
 70
0
 10
209.945872
 20
356.937826
 30
0.0
 10
215.345114
 20
356.937826
 30
0.0
  0
LWPOLYLINE
  5
23d
100
AcDbEntity
  8
1
 62
5
100
AcDbPolyline
 90
2
 70
0
 10
209.945872
 20
450.074753
 30
0.0
 10
209.945872
 20
448.724942
 30
0.0
  0
LWPOLYLINE
  5
23e
100
AcDbEntity
  8
1
 62
5
100
AcDbPolyline
 90
2
 70
0
 10
209.945872
 20
405.531005
 30
0.0
 10
209.945872
 20
402.831384
 30
0.0
  0
LWPOLYLINE
  5
23f
100
AcDbEntity
  8
1
 62
5
100
AcDbPolyline
 90
2
 70
0
 10
209.945872
 20
359.637447
 30
0.0
 10
209.945872
 20
358.287637
 30
0.0
  0
LWPOLYLINE
  5
240
100
AcDbEntity
  8
1
 62
5
100
AcDbPolyline
 90
2
 70
0
 10
212.645493
 20
450.074753
 30
0.0
 10
212.645493
 20
448.724942
 30
0.0
  0
LWPOLYLINE
  5
241
100
AcDbEntity
  8
1
 62
5
100
AcDbPolyline
 90
2
 70
0
 10
212.645493
 20
405.531005
 30
0.0
 10
212.645493
 20
402.831384
 30
0.0
  0
LWPOLYLINE
  5
242
100
AcDbEntity
  8
1
 62
5
100
AcDbPolyline
 90
2
 70
0
 10
212.645493
 20
359.637447
 30
0.0
 10
212.645493
 20
358.287637
 30
0.0
  0
LWPOLYLINE
  5
243
100
AcDbEntity
  8
1
 62
5
100
AcDbPolyline
 90
2
 70
0
 10
212.645493
 20
448.724942
 30
0.0
 10
209.945872
 20
448.724942
 30
0.0
  0
LWPOLYLINE
  5
244
100
AcDbEntity
  8
1
 62
5
100
AcDbPolyline
 90
2
 70
0
 10
209.945872
 20
405.531005
 30
0.0
 10
212.645493
 20
405.531005
 30
0.0
  0
LWPOLYLINE
  5
245
100
AcDbEntity
  8
1
 62
5
100
AcDbPolyline
 90
2
 70
0
 10
212.645493
 20
402.831384
 30
0.0
 10
209.945872
 20
402.831384
 30
0.0
  0
LWPOLYLINE
  5
246
100
AcDbEntity
  8
1
 62
5
100
AcDbPolyline
 90
2
 70
0
 10
209.945872
 20
359.637447
 30
0.0
 10
212.645493
 20
359.637447
 30
0.0
  0
LWPOLYLINE
  5
247
100
AcDbEntity
  8
1
 62
5
100
AcDbPolyline
 90
2
 70
0
 10
209.945872
 20
448.724942
 30
0.0
 10
209.945872
 20
405.531005
 30
0.0
  0
LWPOLYLINE
  5
248
100
AcDbEntity
  8
1
 62
5
100
AcDbPolyline
 90
2
 70
0
 10
212.645493
 20
448.724942
 30
0.0
 10
212.645493
 20
405.531005
 30
0.0
  0
LWPOLYLINE
  5
249
100
AcDbEntity
  8
1
 62
5
100
AcDbPolyline
 90
2
 70
0
 10
209.945872
 20
402.831384
 30
0.0
 10
209.945872
 20
359.637447
 30
0.0
  0
LWPOLYLINE
  5
24a
100
AcDbEntity
  8
1
 62
5
100
AcDbPolyline
 90
2
 70
0
 10
212.645493
 20
402.831384
 30
0.0
 10
212.645493
 20
359.637447
 30
0.0
  0
LWPOLYLINE
  5
24b
100
AcDbEntity
  8
1
 62
5
100
AcDbPolyline
 90
3
 70
0
 10
215.345114
 20
251.652605
 30
0.0
 10
209.945872
 20
251.652605
 30
0.0
 10
209.945872
 20
250.302794
 30
0.0
  0
LWPOLYLINE
  5
24c
100
AcDbEntity
  8
1
 62
5
100
AcDbPolyline
 90
2
 70
0
 10
209.945872
 20
158.515678
 30
0.0
 10
209.945872
 20
157.165868
 30
0.0
  0
LWPOLYLINE
  5
24d
100
AcDbEntity
  8
1
 62
5
100
AcDbPolyline
 90
4
 70
0
 10
215.345114
 20
251.652605
 30
0.0
 10
215.345114
 20
250.302794
 30
0.0
 10
215.345114
 20
158.515678
 30
0.0
 10
215.345114
 20
157.165868
 30
0.0
  0
LWPOLYLINE
  5
24e
100
AcDbEntity
  8
1
 62
5
100
AcDbPolyline
 90
2
 70
0
 10
215.345114
 20
250.302794
 30
0.0
 10
209.945872
 20
250.302794
 30
0.0
  0
LWPOLYLINE
  5
24f
100
AcDbEntity
  8
1
 62
5
100
AcDbPolyline
 90
2
 70
0
 10
209.945872
 20
158.515678
 30
0.0
 10
215.345114
 20
158.515678
 30
0.0
  0
LWPOLYLINE
  5
250
100
AcDbEntity
  8
1
 62
5
100
AcDbPolyline
 90
2
 70
0
 10
209.945872
 20
157.165868
 30
0.0
 10
215.345114
 20
157.165868
 30
0.0
  0
LWPOLYLINE
  5
251
100
AcDbEntity
  8
1
 62
5
100
AcDbPolyline
 90
2
 70
0
 10
209.945872
 20
250.302794
 30
0.0
 10
209.945872
 20
248.952984
 30
0.0
  0
LWPOLYLINE
  5
252
100
AcDbEntity
  8
1
 62
5
100
AcDbPolyline
 90
2
 70
0
 10
209.945872
 20
205.759047
 30
0.0
 10
209.945872
 20
203.059426
 30
0.0
  0
LWPOLYLINE
  5
253
100
AcDbEntity
  8
1
 62
5
100
AcDbPolyline
 90
2
 70
0
 10
209.945872
 20
159.865489
 30
0.0
 10
209.945872
 20
158.515678
 30
0.0
  0
LWPOLYLINE
  5
254
100
AcDbEntity
  8
1
 62
5
100
AcDbPolyline
 90
2
 70
0
 10
212.645493
 20
250.302794
 30
0.0
 10
212.645493
 20
248.952984
 30
0.0
  0
LWPOLYLINE
  5
255
100
AcDbEntity
  8
1
 62
5
100
AcDbPolyline
 90
2
 70
0
 10
212.645493
 20
205.759047
 30
0.0
 10
212.645493
 20
203.059426
 30
0.0
  0
LWPOLYLINE
  5
256
100
AcDbEntity
  8
1
 62
5
100
AcDbPolyline
 90
2
 70
0
 10
212.645493
 20
159.865489
 30
0.0
 10
212.645493
 20
158.515678
 30
0.0
  0
LWPOLYLINE
  5
257
100
AcDbEntity
  8
1
 62
5
100
AcDbPolyline
 90
2
 70
0
 10
212.645493
 20
248.952984
 30
0.0
 10
209.945872
 20
248.952984
 30
0.0
  0
LWPOLYLINE
  5
258
100
AcDbEntity
  8
1
 62
5
100
AcDbPolyline
 90
2
 70
0
 10
209.945872
 20
205.759047
 30
0.0
 10
212.645493
 20
205.759047
 30
0.0
  0
LWPOLYLINE
  5
259
100
AcDbEntity
  8
1
 62
5
100
AcDbPolyline
 90
2
 70
0
 10
212.645493
 20
203.059426
 30
0.0
 10
209.945872
 20
203.059426
 30
0.0
  0
LWPOLYLINE
  5
25a
100
AcDbEntity
  8
1
 62
5
100
AcDbPolyline
 90
2
 70
0
 10
209.945872
 20
159.865489
 30
0.0
 10
212.645493
 20
159.865489
 30
0.0
  0
LWPOLYLINE
  5
25b
100
AcDbEntity
  8
1
 62
5
100
AcDbPolyline
 90
2
 70
0
 10
209.945872
 20
248.952984
 30
0.0
 10
209.945872
 20
205.759047
 30
0.0
  0
LWPOLYLINE
  5
25c
100
AcDbEntity
  8
1
 62
5
100
AcDbPolyline
 90
2
 70
0
 10
212.645493
 20
248.952984
 30
0.0
 10
212.645493
 20
205.759047
 30
0.0
  0
LWPOLYLINE
  5
25d
100
AcDbEntity
  8
1
 62
5
100
AcDbPolyline
 90
2
 70
0
 10
209.945872
 20
203.059426
 30
0.0
 10
209.945872
 20
159.865489
 30
0.0
  0
LWPOLYLINE
  5
25e
100
AcDbEntity
  8
1
 62
5
100
AcDbPolyline
 90
2
 70
0
 10
212.645493
 20
203.059426
 30
0.0
 10
212.645493
 20
159.865489
 30
0.0
  0
LWPOLYLINE
  5
25f
100
AcDbEntity
  8
1
 62
5
100
AcDbPolyline
 90
2
 70
0
 10
462.090479
 20
630.949364
 30
0.0
 10
462.090479
 20
622.850501
 30
0.0
  0
LWPOLYLINE
  5
260
100
AcDbEntity
  8
1
 62
5
100
AcDbPolyline
 90
2
 70
0
 10
486.926993
 20
630.949364
 30
0.0
 10
484.227372
 20
630.949364
 30
0.0
  0
LWPOLYLINE
  5
261
100
AcDbEntity
  8
1
 62
5
100
AcDbPolyline
 90
2
 70
0
 10
464.790100
 20
630.949364
 30
0.0
 10
462.090479
 20
630.949364
 30
0.0
  0
LWPOLYLINE
  5
262
100
AcDbEntity
  8
1
 62
5
100
AcDbPolyline
 90
2
 70
0
 10
464.790100
 20
622.850501
 30
0.0
 10
462.090479
 20
622.850501
 30
0.0
  0
LWPOLYLINE
  5
263
100
AcDbEntity
  8
1
 62
5
100
AcDbPolyline
 90
2
 70
0
 10
464.790100
 20
630.949364
 30
0.0
 10
464.790100
 20
622.850501
 30
0.0
  0
LWPOLYLINE
  5
264
100
AcDbEntity
  8
1
 62
5
100
AcDbPolyline
 90
3
 70
0
 10
486.926993
 20
622.850501
 30
0.0
 10
484.227372
 20
622.850501
 30
0.0
 10
464.790100
 20
622.850501
 30
0.0
  0
LWPOLYLINE
  5
265
100
AcDbEntity
  8
1
 62
5
100
AcDbPolyline
 90
2
 70
0
 10
486.926993
 20
622.850501
 30
0.0
 10
486.926993
 20
630.949364
 30
0.0
  0
LWPOLYLINE
  5
266
100
AcDbEntity
  8
1
 62
5
100
AcDbPolyline
 90
3
 70
0
 10
484.227372
 20
622.850501
 30
0.0
 10
484.227372
 20
630.949364
 30
0.0
 10
464.790100
 20
630.949364
 30
0.0
  0
LWPOLYLINE
  5
267
100
AcDbEntity
  8
1
 62
5
100
AcDbPolyline
 90
2
 70
0
 10
484.227372
 20
628.249743
 30
0.0
 10
464.790100
 20
628.249743
 30
0.0
  0
LWPOLYLINE
  5
268
100
AcDbEntity
  8
1
 62
5
100
AcDbPolyline
 90
2
 70
0
 10
397.569536
 20
691.420876
 30
0.0
 10
397.569536
 20
711.937996
 30
0.0
  0
LWPOLYLINE
  5
269
100
AcDbEntity
  8
1
 62
5
100
AcDbPolyline
 90
2
 70
0
 10
418.086656
 20
691.420876
 30
0.0
 10
397.569536
 20
691.420876
 30
0.0
  0
LWPOLYLINE
  5
26a
100
AcDbEntity
  8
1
 62
5
100
AcDbPolyline
 90
2
 70
0
 10
418.086656
 20
711.937996
 30
0.0
 10
418.086656
 20
691.420876
 30
0.0
  0
LWPOLYLINE
  5
26b
100
AcDbEntity
  8
1
 62
5
100
AcDbPolyline
 90
2
 70
0
 10
397.569536
 20
711.937996
 30
0.0
 10
418.086656
 20
711.937996
 30
0.0
  0
SPLINE
  5
26c
100
AcDbEntity
  8
1
 62
5
100
AcDbSpline
 70
8
 71
3
 72
8
 73
4
 74
0
 40
0
 40
0
 40
0
 40
0
 40
1
 40
1
 40
1
 40
1
 10
585.787116
 20
518.105204
 30
0.0
 10
585.787116
 20
516.137137
 30
0.0
 10
584.191683
 20
514.541704
 30
0.0
 10
582.223616
 20
514.541704
 30
0.0
  0
SPLINE
  5
26d
100
AcDbEntity
  8
1
 62
5
100
AcDbSpline
 70
8
 71
3
 72
8
 73
4
 74
0
 40
0
 40
0
 40
0
 40
0
 40
1
 40
1
 40
1
 40
1
 10
582.223616
 20
514.541704
 30
0.0
 10
580.255550
 20
514.541704
 30
0.0
 10
578.660117
 20
516.137137
 30
0.0
 10
578.660117
 20
518.105204
 30
0.0
  0
SPLINE
  5
26e
100
AcDbEntity
  8
1
 62
5
100
AcDbSpline
 70
8
 71
3
 72
8
 73
4
 74
0
 40
0
 40
0
 40
0
 40
0
 40
1
 40
1
 40
1
 40
1
 10
578.660117
 20
518.105204
 30
0.0
 10
578.660117
 20
520.073270
 30
0.0
 10
580.255550
 20
521.668703
 30
0.0
 10
582.223616
 20
521.668703
 30
0.0
  0
SPLINE
  5
26f
100
AcDbEntity
  8
1
 62
5
100
AcDbSpline
 70
8
 71
3
 72
8
 73
4
 74
0
 40
0
 40
0
 40
0
 40
0
 40
1
 40
1
 40
1
 40
1
 10
582.223616
 20
521.668703
 30
0.0
 10
584.191683
 20
521.668703
 30
0.0
 10
585.787116
 20
520.073270
 30
0.0
 10
585.787116
 20
518.105204
 30
0.0
  0
LWPOLYLINE
  5
270
100
AcDbEntity
  8
1
 62
5
100
AcDbPolyline
 90
3
 70
0
 10
577.094336
 20
534.032968
 30
0.0
 10
587.352896
 20
534.032968
 30
0.0
 10
587.352896
 20
512.975924
 30
0.0
  0
SPLINE
  5
271
100
AcDbEntity
  8
1
 62
5
100
AcDbSpline
 70
8
 71
3
 72
8
 73
4
 74
0
 40
0
 40
0
 40
0
 40
0
 40
1
 40
1
 40
1
 40
1
 10
585.787116
 20
528.903688
 30
0.0
 10
585.787116
 20
526.935621
 30
0.0
 10
584.191683
 20
525.340188
 30
0.0
 10
582.223616
 20
525.340188
 30
0.0
  0
SPLINE
  5
272
100
AcDbEntity
  8
1
 62
5
100
AcDbSpline
 70
8
 71
3
 72
8
 73
4
 74
0
 40
0
 40
0
 40
0
 40
0
 40
1
 40
1
 40
1
 40
1
 10
582.223616
 20
525.340188
 30
0.0
 10
580.255550
 20
525.340188
 30
0.0
 10
578.660117
 20
526.935621
 30
0.0
 10
578.660117
 20
528.903688
 30
0.0
  0
SPLINE
  5
273
100
AcDbEntity
  8
1
 62
5
100
AcDbSpline
 70
8
 71
3
 72
8
 73
4
 74
0
 40
0
 40
0
 40
0
 40
0
 40
1
 40
1
 40
1
 40
1
 10
578.660117
 20
528.903688
 30
0.0
 10
578.660117
 20
530.871754
 30
0.0
 10
580.255550
 20
532.467188
 30
0.0
 10
582.223616
 20
532.467188
 30
0.0
  0
SPLINE
  5
274
100
AcDbEntity
  8
1
 62
5
100
AcDbSpline
 70
8
 71
3
 72
8
 73
4
 74
0
 40
0
 40
0
 40
0
 40
0
 40
1
 40
1
 40
1
 40
1
 10
582.223616
 20
532.467188
 30
0.0
 10
584.191683
 20
532.467188
 30
0.0
 10
585.787116
 20
530.871754
 30
0.0
 10
585.787116
 20
528.903688
 30
0.0
  0
LWPOLYLINE
  5
275
100
AcDbEntity
  8
1
 62
5
100
AcDbPolyline
 90
1
 70
1
 10
585.787116
 20
518.105204
 30
0.0
  0
LWPOLYLINE
  5
276
100
AcDbEntity
  8
1
 62
5
100
AcDbPolyline
 90
1
 70
1
 10
585.787116
 20
528.903688
 30
0.0
  0
LWPOLYLINE
  5
277
100
AcDbEntity
  8
1
 62
5
100
AcDbPolyline
 90
2
 70
0
 10
587.352896
 20
550.230694
 30
0.0
 10
587.352896
 20
534.032968
 30
0.0
  0
LWPOLYLINE
  5
278
100
AcDbEntity
  8
1
 62
5
100
AcDbPolyline
 90
2
 70
0
 10
577.094336
 20
550.230694
 30
0.0
 10
587.352896
 20
550.230694
 30
0.0
  0
LWPOLYLINE
  5
279
100
AcDbEntity
  8
1
 62
5
100
AcDbPolyline
 90
2
 70
0
 10
493.404628
 20
630.894718
 30
0.0
 10
493.404628
 20
628.195097
 30
0.0
  0
LWPOLYLINE
  5
27a
100
AcDbEntity
  8
1
 62
5
100
AcDbPolyline
 90
2
 70
0
 10
490.705007
 20
630.894718
 30
0.0
 10
493.404628
 20
630.894718
 30
0.0
  0
LWPOLYLINE
  5
27b
100
AcDbEntity
  8
1
 62
5
100
AcDbPolyline
 90
2
 70
0
 10
490.705007
 20
630.732741
 30
0.0
 10
490.705007
 20
630.894718
 30
0.0
  0
LWPOLYLINE
  5
27c
100
AcDbEntity
  8
1
 62
5
100
AcDbPolyline
 90
2
 70
0
 10
493.242651
 20
630.732741
 30
0.0
 10
490.705007
 20
630.732741
 30
0.0
  0
LWPOLYLINE
  5
27d
100
AcDbEntity
  8
1
 62
5
100
AcDbPolyline
 90
2
 70
0
 10
493.242651
 20
628.195097
 30
0.0
 10
493.242651
 20
630.732741
 30
0.0
  0
LWPOLYLINE
  5
27e
100
AcDbEntity
  8
1
 62
5
100
AcDbPolyline
 90
2
 70
0
 10
493.404628
 20
628.195097
 30
0.0
 10
493.242651
 20
628.195097
 30
0.0
  0
LWPOLYLINE
  5
27f
100
AcDbEntity
  8
1
 62
5
100
AcDbPolyline
 90
2
 70
0
 10
493.374862
 20
630.892817
 30
0.0
 10
490.675241
 20
630.892817
 30
0.0
  0
LWPOLYLINE
  5
280
100
AcDbEntity
  8
1
 62
5
100
AcDbPolyline
 90
3
 70
0
 10
493.374862
 20
630.892817
 30
0.0
 10
493.374862
 20
628.193196
 30
0.0
 10
493.374862
 20
625.331597
 30
0.0
  0
LWPOLYLINE
  5
281
100
AcDbEntity
  8
1
 62
5
100
AcDbPolyline
 90
2
 70
0
 10
490.675241
 20
630.730839
 30
0.0
 10
490.675241
 20
630.892817
 30
0.0
  0
LWPOLYLINE
  5
282
100
AcDbEntity
  8
1
 62
5
100
AcDbPolyline
 90
2
 70
0
 10
490.675241
 20
630.730839
 30
0.0
 10
493.212885
 20
630.730839
 30
0.0
  0
LWPOLYLINE
  5
283
100
AcDbEntity
  8
1
 62
5
100
AcDbPolyline
 90
2
 70
0
 10
493.212885
 20
628.193196
 30
0.0
 10
493.212885
 20
630.730839
 30
0.0
  0
LWPOLYLINE
  5
284
100
AcDbEntity
  8
1
 62
5
100
AcDbPolyline
 90
2
 70
0
 10
493.212885
 20
628.193196
 30
0.0
 10
493.374862
 20
628.193196
 30
0.0
  0
LWPOLYLINE
  5
285
100
AcDbEntity
  8
1
 62
5
100
AcDbPolyline
 90
4
 70
0
 10
490.675241
 20
630.730839
 30
0.0
 10
490.675241
 20
625.331597
 30
0.0
 10
493.212885
 20
625.331597
 30
0.0
 10
493.374862
 20
625.331597
 30
0.0
  0
LWPOLYLINE
  5
286
100
AcDbEntity
  8
1
 62
5
100
AcDbPolyline
 90
2
 70
0
 10
493.212885
 20
628.193196
 30
0.0
 10
493.212885
 20
625.331597
 30
0.0
  0
LWPOLYLINE
  5
287
100
AcDbEntity
  8
1
 62
5
100
AcDbPolyline
 90
3
 70
0
 10
546.318656
 20
623.390425
 30
0.0
 10
546.318656
 20
630.949364
 30
0.0
 10
543.888997
 20
630.949364
 30
0.0
  0
LWPOLYLINE
  5
288
100
AcDbEntity
  8
1
 62
5
100
AcDbPolyline
 90
3
 70
0
 10
538.219793
 20
630.949364
 30
0.0
 10
496.915591
 20
630.949364
 30
0.0
 10
494.485932
 20
630.949364
 30
0.0
  0
LWPOLYLINE
  5
289
100
AcDbEntity
  8
1
 62
5
100
AcDbPolyline
 90
4
 70
0
 10
546.318656
 20
623.390425
 30
0.0
 10
543.888997
 20
623.390425
 30
0.0
 10
496.915591
 20
623.390425
 30
0.0
 10
494.485932
 20
623.390425
 30
0.0
  0
LWPOLYLINE
  5
28a
100
AcDbEntity
  8
1
 62
5
100
AcDbPolyline
 90
2
 70
0
 10
543.888997
 20
623.390425
 30
0.0
 10
543.888997
 20
630.949364
 30
0.0
  0
LWPOLYLINE
  5
28b
100
AcDbEntity
  8
1
 62
5
100
AcDbPolyline
 90
2
 70
0
 10
496.915591
 20
630.949364
 30
0.0
 10
496.915591
 20
623.390425
 30
0.0
  0
LWPOLYLINE
  5
28c
100
AcDbEntity
  8
1
 62
5
100
AcDbPolyline
 90
2
 70
0
 10
494.485932
 20
630.949364
 30
0.0
 10
494.485932
 20
623.390425
 30
0.0
  0
LWPOLYLINE
  5
28d
100
AcDbEntity
  8
1
 62
5
100
AcDbPolyline
 90
3
 70
0
 10
538.219793
 20
630.949364
 30
0.0
 10
543.888997
 20
630.949364
 30
0.0
 10
543.888997
 20
677.922771
 30
0.0
  0
LWPOLYLINE
  5
28e
100
AcDbEntity
  8
1
 62
5
100
AcDbPolyline
 90
2
 70
0
 10
538.219793
 20
630.949364
 30
0.0
 10
538.219793
 20
677.922771
 30
0.0
  0
SPLINE
  5
28f
100
AcDbEntity
  8
1
 62
5
100
AcDbSpline
 70
8
 71
3
 72
8
 73
4
 74
0
 40
0
 40
0
 40
0
 40
0
 40
1
 40
1
 40
1
 40
1
 10
772.006977
 20
319.683056
 30
0.0
 10
772.006977
 20
295.981569
 30
0.0
 10
753.551331
 20
276.378533
 30
0.0
 10
729.892889
 20
274.950735
 30
0.0
  0
LWPOLYLINE
  5
290
100
AcDbEntity
  8
1
 62
5
100
AcDbPolyline
 90
2
 70
0
 10
543.888997
 20
677.922771
 30
0.0
 10
538.219793
 20
677.922771
 30
0.0
  0
SPLINE
  5
291
100
AcDbEntity
  8
1
 62
5
100
AcDbSpline
 70
8
 71
3
 72
8
 73
4
 74
0
 40
0
 40
0
 40
0
 40
0
 40
1
 40
1
 40
1
 40
1
 10
591.402328
 20
319.683056
 30
0.0
 10
591.402328
 20
295.981569
 30
0.0
 10
609.857974
 20
276.378533
 30
0.0
 10
633.516417
 20
274.950735
 30
0.0
  0
LWPOLYLINE
  5
292
100
AcDbEntity
  8
1
 62
5
100
AcDbPolyline
 90
2
 70
0
 10
727.193267
 20
319.143131
 30
0.0
 10
727.193267
 20
319.683056
 30
0.0
  0
SPLINE
  5
293
100
AcDbEntity
  8
1
 62
5
100
AcDbSpline
 70
8
 71
3
 72
8
 73
4
 74
0
 40
0
 40
0
 40
0
 40
0
 40
1
 40
1
 40
1
 40
1
 10
774.706598
 20
512.975924
 30
0.0
 10
774.706598
 20
536.677410
 30
0.0
 10
756.250952
 20
556.280446
 30
0.0
 10
732.592510
 20
557.708244
 30
0.0
  0
LWPOLYLINE
  5
294
100
AcDbEntity
  8
1
 62
5
100
AcDbPolyline
 90
2
 70
0
 10
636.216038
 20
319.143131
 30
0.0
 10
636.216038
 20
319.683056
 30
0.0
  0
SPLINE
  5
295
100
AcDbEntity
  8
1
 62
5
100
AcDbSpline
 70
8
 71
3
 72
8
 73
4
 74
0
 40
0
 40
0
 40
0
 40
0
 40
1
 40
1
 40
1
 40
1
 10
568.995473
 20
560.759216
 30
0.0
 10
546.188372
 20
560.759216
 30
0.0
 10
527.311426
 20
578.491021
 30
0.0
 10
525.885982
 20
601.253532
 30
0.0
  0
SPLINE
  5
296
100
AcDbEntity
  8
1
 62
5
100
AcDbSpline
 70
8
 71
3
 72
8
 73
4
 74
0
 40
0
 40
0
 40
0
 40
0
 40
1
 40
1
 40
1
 40
1
 10
590.592442
 20
454.124184
 30
0.0
 10
570.766531
 20
454.124184
 30
0.0
 10
554.310422
 20
469.443988
 30
0.0
 10
552.894285
 20
489.219258
 30
0.0
  0
SPLINE
  5
297
100
AcDbEntity
  8
1
 62
5
100
AcDbSpline
 70
8
 71
3
 72
8
 73
4
 74
0
 40
0
 40
0
 40
0
 40
0
 40
1
 40
1
 40
1
 40
1
 10
784.965158
 20
400.131763
 30
0.0
 10
765.139248
 20
400.131763
 30
0.0
 10
748.683139
 20
415.451567
 30
0.0
 10
747.267000
 20
435.226837
 30
0.0
  0
SPLINE
  5
298
100
AcDbEntity
  8
1
 62
5
100
AcDbSpline
 70
8
 71
3
 72
8
 73
4
 74
0
 40
0
 40
0
 40
0
 40
0
 40
1
 40
1
 40
1
 40
1
 10
419.166504
 20
416.329490
 30
0.0
 10
419.166504
 20
396.503579
 30
0.0
 10
434.486308
 20
380.047470
 30
0.0
 10
454.261578
 20
378.631333
 30
0.0
  0
SPLINE
  5
299
100
AcDbEntity
  8
1
 62
5
100
AcDbSpline
 70
8
 71
3
 72
8
 73
4
 74
0
 40
0
 40
0
 40
0
 40
0
 40
1
 40
1
 40
1
 40
1
 10
496.915591
 20
630.949364
 30
0.0
 10
496.915591
 20
654.699487
 30
0.0
 10
514.643276
 20
674.713014
 30
0.0
 10
538.219793
 20
677.579409
 30
0.0
  0
LWPOLYLINE
  5
29a
100
AcDbEntity
  8
1
 62
5
100
AcDbPolyline
 90
2
 70
0
 10
729.892889
 20
513.515848
 30
0.0
 10
729.892889
 20
512.975924
 30
0.0
  0
LWPOLYLINE
  5
29b
100
AcDbEntity
  8
1
 62
5
100
AcDbPolyline
 90
2
 70
0
 10
582.223620
 20
511.491271
 30
0.0
 10
582.223620
 20
524.719149
 30
0.0
  0
LWPOLYLINE
  5
29c
100
AcDbEntity
  8
1
 62
5
100
AcDbPolyline
 90
2
 70
0
 10
588.837559
 20
518.105210
 30
0.0
 10
575.609681
 20
518.105210
 30
0.0
  0
LWPOLYLINE
  5
29d
100
AcDbEntity
  8
1
 62
5
100
AcDbPolyline
 90
2
 70
0
 10
582.223620
 20
522.289751
 30
0.0
 10
582.223620
 20
535.517629
 30
0.0
  0
LWPOLYLINE
  5
29e
100
AcDbEntity
  8
1
 62
5
100
AcDbPolyline
 90
2
 70
0
 10
588.837559
 20
528.903690
 30
0.0
 10
575.609681
 20
528.903690
 30
0.0
  0
SPLINE
  5
29f
100
AcDbEntity
  8
1
 62
7
100
AcDbSpline
 70
8
 71
3
 72
8
 73
4
 74
0
 40
0
 40
0
 40
0
 40
0
 40
1
 40
1
 40
1
 40
1
 10
948.726561
 20
383.977839
 30
0.0
 10
948.937499
 20
383.759089
 30
0.0
 10
949.144530
 20
383.477839
 30
0.0
 10
949.351562
 20
383.134089
 30
0.0
  0
SPLINE
  5
2a0
100
AcDbEntity
  8
1
 62
7
100
AcDbSpline
 70
8
 71
3
 72
8
 73
4
 74
0
 40
0
 40
0
 40
0
 40
0
 40
1
 40
1
 40
1
 40
1
 10
949.351562
 20
383.134089
 30
0.0
 10
949.562499
 20
382.778621
 30
0.0
 10
949.710937
 20
382.462214
 30
0.0
 10
949.804686
 20
382.180964
 30
0.0
  0
LWPOLYLINE
  5
2a1
100
AcDbEntity
  8
1
 62
7
100
AcDbPolyline
 90
3
 70
0
 10
954.445311
 20
384.868464
 30
0.0
 10
954.445311
 20
383.977839
 30
0.0
 10
948.726561
 20
383.977839
 30
0.0
  0
SPLINE
  5
2a2
100
AcDbEntity
  8
1
 62
7
100
AcDbSpline
 70
8
 71
3
 72
8
 73
4
 74
0
 40
0
 40
0
 40
0
 40
0
 40
1
 40
1
 40
1
 40
1
 10
948.945312
 20
382.180964
 30
0.0
 10
948.718749
 20
382.680964
 30
0.0
 10
948.429687
 20
383.118464
 30
0.0
 10
948.085936
 20
383.493464
 30
0.0
  0
SPLINE
  5
2a3
100
AcDbEntity
  8
1
 62
7
100
AcDbSpline
 70
8
 71
3
 72
8
 73
4
 74
0
 40
0
 40
0
 40
0
 40
0
 40
1
 40
1
 40
1
 40
1
 10
948.085936
 20
383.493464
 30
0.0
 10
947.753905
 20
383.868464
 30
0.0
 10
947.429687
 20
384.134089
 30
0.0
 10
947.117187
 20
384.290339
 30
0.0
  0
LWPOLYLINE
  5
2a4
100
AcDbEntity
  8
1
 62
7
100
AcDbPolyline
 90
2
 70
0
 10
949.804686
 20
382.180964
 30
0.0
 10
948.945312
 20
382.180964
 30
0.0
  0
LWPOLYLINE
  5
2a5
100
AcDbEntity
  8
1
 62
7
100
AcDbPolyline
 90
3
 70
0
 10
947.117187
 20
384.290339
 30
0.0
 10
947.117187
 20
384.868464
 30
0.0
 10
954.445311
 20
384.868464
 30
0.0
  0
SPLINE
  5
2a6
100
AcDbEntity
  8
1
 62
7
100
AcDbSpline
 70
8
 71
3
 72
8
 73
4
 74
0
 40
0
 40
0
 40
0
 40
0
 40
1
 40
1
 40
1
 40
1
 10
948.726561
 20
388.891902
 30
0.0
 10
948.937499
 20
388.673152
 30
0.0
 10
949.144530
 20
388.391902
 30
0.0
 10
949.351562
 20
388.048152
 30
0.0
  0
SPLINE
  5
2a7
100
AcDbEntity
  8
1
 62
7
100
AcDbSpline
 70
8
 71
3
 72
8
 73
4
 74
0
 40
0
 40
0
 40
0
 40
0
 40
1
 40
1
 40
1
 40
1
 10
949.351562
 20
388.048152
 30
0.0
 10
949.562499
 20
387.692683
 30
0.0
 10
949.710937
 20
387.376277
 30
0.0
 10
949.804686
 20
387.095027
 30
0.0
  0
LWPOLYLINE
  5
2a8
100
AcDbEntity
  8
1
 62
7
100
AcDbPolyline
 90
3
 70
0
 10
954.445311
 20
389.782527
 30
0.0
 10
954.445311
 20
388.891902
 30
0.0
 10
948.726561
 20
388.891902
 30
0.0
  0
SPLINE
  5
2a9
100
AcDbEntity
  8
1
 62
7
100
AcDbSpline
 70
8
 71
3
 72
8
 73
4
 74
0
 40
0
 40
0
 40
0
 40
0
 40
1
 40
1
 40
1
 40
1
 10
948.945312
 20
387.095027
 30
0.0
 10
948.718749
 20
387.595027
 30
0.0
 10
948.429687
 20
388.032527
 30
0.0
 10
948.085936
 20
388.407527
 30
0.0
  0
SPLINE
  5
2aa
100
AcDbEntity
  8
1
 62
7
100
AcDbSpline
 70
8
 71
3
 72
8
 73
4
 74
0
 40
0
 40
0
 40
0
 40
0
 40
1
 40
1
 40
1
 40
1
 10
948.085936
 20
388.407527
 30
0.0
 10
947.753905
 20
388.782527
 30
0.0
 10
947.429687
 20
389.048152
 30
0.0
 10
947.117187
 20
389.204402
 30
0.0
  0
LWPOLYLINE
  5
2ab
100
AcDbEntity
  8
1
 62
7
100
AcDbPolyline
 90
2
 70
0
 10
949.804686
 20
387.095027
 30
0.0
 10
948.945312
 20
387.095027
 30
0.0
  0
SPLINE
  5
2ac
100
AcDbEntity
  8
1
 62
7
100
AcDbSpline
 70
8
 71
3
 72
8
 73
4
 74
0
 40
0
 40
0
 40
0
 40
0
 40
1
 40
1
 40
1
 40
1
 10
950.492187
 20
393.450496
 30
0.0
 10
950.359374
 20
393.075495
 30
0.0
 10
950.160155
 20
392.798152
 30
0.0
 10
949.898437
 20
392.622371
 30
0.0
  0
SPLINE
  5
2ad
100
AcDbEntity
  8
1
 62
7
100
AcDbSpline
 70
8
 71
3
 72
8
 73
4
 74
0
 40
0
 40
0
 40
0
 40
0
 40
1
 40
1
 40
1
 40
1
 10
949.898437
 20
392.622371
 30
0.0
 10
949.648436
 20
392.442683
 30
0.0
 10
949.304687
 20
392.356745
 30
0.0
 10
948.867187
 20
392.356745
 30
0.0
  0
SPLINE
  5
2ae
100
AcDbEntity
  8
1
 62
7
100
AcDbSpline
 70
8
 71
3
 72
8
 73
4
 74
0
 40
0
 40
0
 40
0
 40
0
 40
1
 40
1
 40
1
 40
1
 10
948.867187
 20
392.356745
 30
0.0
 10
948.421874
 20
392.356745
 30
0.0
 10
948.015624
 20
392.548152
 30
0.0
 10
947.648436
 20
392.934871
 30
0.0
  0
SPLINE
  5
2af
100
AcDbEntity
  8
1
 62
7
100
AcDbSpline
 70
8
 71
3
 72
8
 73
4
 74
0
 40
0
 40
0
 40
0
 40
0
 40
1
 40
1
 40
1
 40
1
 10
947.648436
 20
392.934871
 30
0.0
 10
947.296874
 20
393.317683
 30
0.0
 10
947.117187
 20
393.829402
 30
0.0
 10
947.117187
 20
394.466120
 30
0.0
  0
SPLINE
  5
2b0
100
AcDbEntity
  8
1
 62
7
100
AcDbSpline
 70
8
 71
3
 72
8
 73
4
 74
0
 40
0
 40
0
 40
0
 40
0
 40
1
 40
1
 40
1
 40
1
 10
947.117187
 20
394.466120
 30
0.0
 10
947.117187
 20
395.098933
 30
0.0
 10
947.300780
 20
395.610652
 30
0.0
 10
947.664062
 20
395.997370
 30
0.0
  0
SPLINE
  5
2b1
100
AcDbEntity
  8
1
 62
7
100
AcDbSpline
 70
8
 71
3
 72
8
 73
4
 74
0
 40
0
 40
0
 40
0
 40
0
 40
1
 40
1
 40
1
 40
1
 10
947.664062
 20
395.997370
 30
0.0
 10
948.039062
 20
396.380183
 30
0.0
 10
948.492186
 20
396.575495
 30
0.0
 10
949.023437
 20
396.575495
 30
0.0
  0
SPLINE
  5
2b2
100
AcDbEntity
  8
1
 62
7
100
AcDbSpline
 70
8
 71
3
 72
8
 73
4
 74
0
 40
0
 40
0
 40
0
 40
0
 40
1
 40
1
 40
1
 40
1
 10
949.023437
 20
396.575495
 30
0.0
 10
949.359374
 20
396.575495
 30
0.0
 10
949.648436
 20
396.485652
 30
0.0
 10
949.898437
 20
396.309870
 30
0.0
  0
SPLINE
  5
2b3
100
AcDbEntity
  8
1
 62
7
100
AcDbSpline
 70
8
 71
3
 72
8
 73
4
 74
0
 40
0
 40
0
 40
0
 40
0
 40
1
 40
1
 40
1
 40
1
 10
949.898437
 20
396.309870
 30
0.0
 10
950.160155
 20
396.130183
 30
0.0
 10
950.359374
 20
395.860652
 30
0.0
 10
950.492187
 20
395.497370
 30
0.0
  0
SPLINE
  5
2b4
100
AcDbEntity
  8
1
 62
7
100
AcDbSpline
 70
8
 71
3
 72
8
 73
4
 74
0
 40
0
 40
0
 40
0
 40
0
 40
1
 40
1
 40
1
 40
1
 10
950.492187
 20
395.497370
 30
0.0
 10
950.640624
 20
395.954402
 30
0.0
 10
950.874999
 20
396.298152
 30
0.0
 10
951.195312
 20
396.528620
 30
0.0
  0
SPLINE
  5
2b5
100
AcDbEntity
  8
1
 62
7
100
AcDbSpline
 70
8
 71
3
 72
8
 73
4
 74
0
 40
0
 40
0
 40
0
 40
0
 40
1
 40
1
 40
1
 40
1
 10
951.195312
 20
396.528620
 30
0.0
 10
951.519530
 20
396.755183
 30
0.0
 10
951.906249
 20
396.872370
 30
0.0
 10
952.351561
 20
396.872370
 30
0.0
  0
SPLINE
  5
2b6
100
AcDbEntity
  8
1
 62
7
100
AcDbSpline
 70
8
 71
3
 72
8
 73
4
 74
0
 40
0
 40
0
 40
0
 40
0
 40
1
 40
1
 40
1
 40
1
 10
952.351561
 20
396.872370
 30
0.0
 10
952.988280
 20
396.872370
 30
0.0
 10
953.515624
 20
396.653620
 30
0.0
 10
953.929686
 20
396.216120
 30
0.0
  0
SPLINE
  5
2b7
100
AcDbEntity
  8
1
 62
7
100
AcDbSpline
 70
8
 71
3
 72
8
 73
4
 74
0
 40
0
 40
0
 40
0
 40
0
 40
1
 40
1
 40
1
 40
1
 10
953.929686
 20
396.216120
 30
0.0
 10
954.359374
 20
395.766902
 30
0.0
 10
954.570311
 20
395.184870
 30
0.0
 10
954.570311
 20
394.466120
 30
0.0
  0
SPLINE
  5
2b8
100
AcDbEntity
  8
1
 62
7
100
AcDbSpline
 70
8
 71
3
 72
8
 73
4
 74
0
 40
0
 40
0
 40
0
 40
0
 40
1
 40
1
 40
1
 40
1
 10
954.570311
 20
394.466120
 30
0.0
 10
954.570311
 20
393.747370
 30
0.0
 10
954.359374
 20
393.169245
 30
0.0
 10
953.929686
 20
392.731746
 30
0.0
  0
SPLINE
  5
2b9
100
AcDbEntity
  8
1
 62
7
100
AcDbSpline
 70
8
 71
3
 72
8
 73
4
 74
0
 40
0
 40
0
 40
0
 40
0
 40
1
 40
1
 40
1
 40
1
 10
953.929686
 20
392.731746
 30
0.0
 10
953.503905
 20
392.282527
 30
0.0
 10
952.972655
 20
392.059871
 30
0.0
 10
952.335937
 20
392.059871
 30
0.0
  0
SPLINE
  5
2ba
100
AcDbEntity
  8
1
 62
7
100
AcDbSpline
 70
8
 71
3
 72
8
 73
4
 74
0
 40
0
 40
0
 40
0
 40
0
 40
1
 40
1
 40
1
 40
1
 10
952.335937
 20
392.059871
 30
0.0
 10
951.867187
 20
392.059871
 30
0.0
 10
951.468749
 20
392.184871
 30
0.0
 10
951.132812
 20
392.434870
 30
0.0
  0
SPLINE
  5
2bb
100
AcDbEntity
  8
1
 62
7
100
AcDbSpline
 70
8
 71
3
 72
8
 73
4
 74
0
 40
0
 40
0
 40
0
 40
0
 40
1
 40
1
 40
1
 40
1
 10
951.132812
 20
392.434870
 30
0.0
 10
950.820312
 20
392.673152
 30
0.0
 10
950.609374
 20
393.012996
 30
0.0
 10
950.492187
 20
393.450496
 30
0.0
  0
LWPOLYLINE
  5
2bc
100
AcDbEntity
  8
1
 62
7
100
AcDbPolyline
 90
3
 70
0
 10
947.117187
 20
389.204402
 30
0.0
 10
947.117187
 20
389.782527
 30
0.0
 10
954.445311
 20
389.782527
 30
0.0
  0
SPLINE
  5
2bd
100
AcDbEntity
  8
1
 62
7
100
AcDbSpline
 70
8
 71
3
 72
8
 73
4
 74
0
 40
0
 40
0
 40
0
 40
0
 40
1
 40
1
 40
1
 40
1
 10
948.960936
 20
393.278620
 30
0.0
 10
949.304687
 20
393.278620
 30
0.0
 10
949.585937
 20
393.387995
 30
0.0
 10
949.804686
 20
393.606745
 30
0.0
  0
SPLINE
  5
2be
100
AcDbEntity
  8
1
 62
7
100
AcDbSpline
 70
8
 71
3
 72
8
 73
4
 74
0
 40
0
 40
0
 40
0
 40
0
 40
1
 40
1
 40
1
 40
1
 10
949.804686
 20
393.606745
 30
0.0
 10
950.035155
 20
393.833308
 30
0.0
 10
950.148437
 20
394.126276
 30
0.0
 10
950.148437
 20
394.481745
 30
0.0
  0
SPLINE
  5
2bf
100
AcDbEntity
  8
1
 62
7
100
AcDbSpline
 70
8
 71
3
 72
8
 73
4
 74
0
 40
0
 40
0
 40
0
 40
0
 40
1
 40
1
 40
1
 40
1
 10
950.148437
 20
394.481745
 30
0.0
 10
950.148437
 20
394.825495
 30
0.0
 10
950.035155
 20
395.106745
 30
0.0
 10
949.804686
 20
395.325496
 30
0.0
  0
SPLINE
  5
2c0
100
AcDbEntity
  8
1
 62
7
100
AcDbSpline
 70
8
 71
3
 72
8
 73
4
 74
0
 40
0
 40
0
 40
0
 40
0
 40
1
 40
1
 40
1
 40
1
 10
949.804686
 20
395.325496
 30
0.0
 10
949.597655
 20
395.544245
 30
0.0
 10
949.332030
 20
395.653620
 30
0.0
 10
949.007811
 20
395.653620
 30
0.0
  0
SPLINE
  5
2c1
100
AcDbEntity
  8
1
 62
7
100
AcDbSpline
 70
8
 71
3
 72
8
 73
4
 74
0
 40
0
 40
0
 40
0
 40
0
 40
1
 40
1
 40
1
 40
1
 10
949.007811
 20
395.653620
 30
0.0
 10
948.687499
 20
395.653620
 30
0.0
 10
948.410155
 20
395.544245
 30
0.0
 10
948.179686
 20
395.325496
 30
0.0
  0
SPLINE
  5
2c2
100
AcDbEntity
  8
1
 62
7
100
AcDbSpline
 70
8
 71
3
 72
8
 73
4
 74
0
 40
0
 40
0
 40
0
 40
0
 40
1
 40
1
 40
1
 40
1
 10
948.179686
 20
395.325496
 30
0.0
 10
947.960937
 20
395.095027
 30
0.0
 10
947.851561
 20
394.809871
 30
0.0
 10
947.851561
 20
394.466120
 30
0.0
  0
SPLINE
  5
2c3
100
AcDbEntity
  8
1
 62
7
100
AcDbSpline
 70
8
 71
3
 72
8
 73
4
 74
0
 40
0
 40
0
 40
0
 40
0
 40
1
 40
1
 40
1
 40
1
 10
947.851561
 20
394.466120
 30
0.0
 10
947.851561
 20
394.122370
 30
0.0
 10
947.960937
 20
393.841120
 30
0.0
 10
948.179686
 20
393.622370
 30
0.0
  0
SPLINE
  5
2c4
100
AcDbEntity
  8
1
 62
7
100
AcDbSpline
 70
8
 71
3
 72
8
 73
4
 74
0
 40
0
 40
0
 40
0
 40
0
 40
1
 40
1
 40
1
 40
1
 10
948.179686
 20
393.622370
 30
0.0
 10
948.398437
 20
393.391902
 30
0.0
 10
948.660155
 20
393.278620
 30
0.0
 10
948.960936
 20
393.278620
 30
0.0
  0
LWPOLYLINE
  5
2c5
100
AcDbEntity
  8
1
 62
7
100
AcDbPolyline
 90
1
 70
1
 10
950.492187
 20
393.450496
 30
0.0
  0
SPLINE
  5
2c6
100
AcDbEntity
  8
1
 62
7
100
AcDbSpline
 70
8
 71
3
 72
8
 73
4
 74
0
 40
0
 40
0
 40
0
 40
0
 40
1
 40
1
 40
1
 40
1
 10
952.335937
 20
392.981745
 30
0.0
 10
952.597655
 20
392.981745
 30
0.0
 10
952.847655
 20
393.044245
 30
0.0
 10
953.085937
 20
393.169245
 30
0.0
  0
SPLINE
  5
2c7
100
AcDbEntity
  8
1
 62
7
100
AcDbSpline
 70
8
 71
3
 72
8
 73
4
 74
0
 40
0
 40
0
 40
0
 40
0
 40
1
 40
1
 40
1
 40
1
 10
953.085937
 20
393.169245
 30
0.0
 10
953.328124
 20
393.294246
 30
0.0
 10
953.507812
 20
393.473933
 30
0.0
 10
953.632811
 20
393.716120
 30
0.0
  0
SPLINE
  5
2c8
100
AcDbEntity
  8
1
 62
7
100
AcDbSpline
 70
8
 71
3
 72
8
 73
4
 74
0
 40
0
 40
0
 40
0
 40
0
 40
1
 40
1
 40
1
 40
1
 10
953.632811
 20
393.716120
 30
0.0
 10
953.769530
 20
393.954402
 30
0.0
 10
953.835936
 20
394.247371
 30
0.0
 10
953.835936
 20
394.591120
 30
0.0
  0
SPLINE
  5
2c9
100
AcDbEntity
  8
1
 62
7
100
AcDbSpline
 70
8
 71
3
 72
8
 73
4
 74
0
 40
0
 40
0
 40
0
 40
0
 40
1
 40
1
 40
1
 40
1
 10
953.835936
 20
394.591120
 30
0.0
 10
953.835936
 20
394.942683
 30
0.0
 10
953.695311
 20
395.262995
 30
0.0
 10
953.414061
 20
395.544245
 30
0.0
  0
SPLINE
  5
2ca
100
AcDbEntity
  8
1
 62
7
100
AcDbSpline
 70
8
 71
3
 72
8
 73
4
 74
0
 40
0
 40
0
 40
0
 40
0
 40
1
 40
1
 40
1
 40
1
 10
953.414061
 20
395.544245
 30
0.0
 10
953.144530
 20
395.825495
 30
0.0
 10
952.796874
 20
395.966121
 30
0.0
 10
952.367186
 20
395.966121
 30
0.0
  0
SPLINE
  5
2cb
100
AcDbEntity
  8
1
 62
7
100
AcDbSpline
 70
8
 71
3
 72
8
 73
4
 74
0
 40
0
 40
0
 40
0
 40
0
 40
1
 40
1
 40
1
 40
1
 10
952.367186
 20
395.966121
 30
0.0
 10
951.941405
 20
395.954401
 30
0.0
 10
951.582030
 20
395.809870
 30
0.0
 10
951.289062
 20
395.528621
 30
0.0
  0
SPLINE
  5
2cc
100
AcDbEntity
  8
1
 62
7
100
AcDbSpline
 70
8
 71
3
 72
8
 73
4
 74
0
 40
0
 40
0
 40
0
 40
0
 40
1
 40
1
 40
1
 40
1
 10
951.289062
 20
395.528621
 30
0.0
 10
951.007812
 20
395.247371
 30
0.0
 10
950.867187
 20
394.887996
 30
0.0
 10
950.867187
 20
394.450496
 30
0.0
  0
SPLINE
  5
2cd
100
AcDbEntity
  8
1
 62
7
100
AcDbSpline
 70
8
 71
3
 72
8
 73
4
 74
0
 40
0
 40
0
 40
0
 40
0
 40
1
 40
1
 40
1
 40
1
 10
950.867187
 20
394.450496
 30
0.0
 10
950.867187
 20
394.020808
 30
0.0
 10
951.007812
 20
393.673152
 30
0.0
 10
951.289062
 20
393.403620
 30
0.0
  0
SPLINE
  5
2ce
100
AcDbEntity
  8
1
 62
7
100
AcDbSpline
 70
8
 71
3
 72
8
 73
4
 74
0
 40
0
 40
0
 40
0
 40
0
 40
1
 40
1
 40
1
 40
1
 10
951.289062
 20
393.403620
 30
0.0
 10
951.570311
 20
393.122370
 30
0.0
 10
951.921874
 20
392.981745
 30
0.0
 10
952.335937
 20
392.981745
 30
0.0
  0
LWPOLYLINE
  5
2cf
100
AcDbEntity
  8
1
 62
7
100
AcDbPolyline
 90
1
 70
1
 10
948.960936
 20
393.278620
 30
0.0
  0
LWPOLYLINE
  5
2d0
100
AcDbEntity
  8
1
 62
7
100
AcDbPolyline
 90
1
 70
1
 10
952.335937
 20
392.981745
 30
0.0
  0
SPLINE
  5
2d1
100
AcDbEntity
  8
1
 62
7
100
AcDbSpline
 70
8
 71
3
 72
8
 73
4
 74
0
 40
0
 40
0
 40
0
 40
0
 40
1
 40
1
 40
1
 40
1
 10
952.445311
 20
398.684870
 30
0.0
 10
952.906249
 20
398.755183
 30
0.0
 10
953.249999
 20
398.923152
 30
0.0
 10
953.476561
 20
399.184870
 30
0.0
  0
SPLINE
  5
2d2
100
AcDbEntity
  8
1
 62
7
100
AcDbSpline
 70
8
 71
3
 72
8
 73
4
 74
0
 40
0
 40
0
 40
0
 40
0
 40
1
 40
1
 40
1
 40
1
 10
953.476561
 20
399.184870
 30
0.0
 10
953.718749
 20
399.434870
 30
0.0
 10
953.835936
 20
399.735652
 30
0.0
 10
953.835936
 20
400.091120
 30
0.0
  0
SPLINE
  5
2d3
100
AcDbEntity
  8
1
 62
7
100
AcDbSpline
 70
8
 71
3
 72
8
 73
4
 74
0
 40
0
 40
0
 40
0
 40
0
 40
1
 40
1
 40
1
 40
1
 10
953.835936
 20
400.091120
 30
0.0
 10
953.835936
 20
400.528620
 30
0.0
 10
953.675780
 20
400.891902
 30
0.0
 10
953.351561
 20
401.184870
 30
0.0
  0
SPLINE
  5
2d4
100
AcDbEntity
  8
1
 62
7
100
AcDbSpline
 70
8
 71
3
 72
8
 73
4
 74
0
 40
0
 40
0
 40
0
 40
0
 40
1
 40
1
 40
1
 40
1
 10
953.351561
 20
401.184870
 30
0.0
 10
953.031249
 20
401.485652
 30
0.0
 10
952.597655
 20
401.637995
 30
0.0
 10
952.054687
 20
401.637995
 30
0.0
  0
SPLINE
  5
2d5
100
AcDbEntity
  8
1
 62
7
100
AcDbSpline
 70
8
 71
3
 72
8
 73
4
 74
0
 40
0
 40
0
 40
0
 40
0
 40
1
 40
1
 40
1
 40
1
 10
952.054687
 20
401.637995
 30
0.0
 10
951.546874
 20
401.637995
 30
0.0
 10
951.140624
 20
401.497370
 30
0.0
 10
950.835937
 20
401.216120
 30
0.0
  0
SPLINE
  5
2d6
100
AcDbEntity
  8
1
 62
7
100
AcDbSpline
 70
8
 71
3
 72
8
 73
4
 74
0
 40
0
 40
0
 40
0
 40
0
 40
1
 40
1
 40
1
 40
1
 10
950.835937
 20
401.216120
 30
0.0
 10
950.546874
 20
400.923152
 30
0.0
 10
950.398436
 20
400.544246
 30
0.0
 10
950.398436
 20
400.075495
 30
0.0
  0
SPLINE
  5
2d7
100
AcDbEntity
  8
1
 62
7
100
AcDbSpline
 70
8
 71
3
 72
8
 73
4
 74
0
 40
0
 40
0
 40
0
 40
0
 40
1
 40
1
 40
1
 40
1
 10
950.398436
 20
400.075495
 30
0.0
 10
950.398436
 20
399.794245
 30
0.0
 10
950.460937
 20
399.532527
 30
0.0
 10
950.585937
 20
399.294245
 30
0.0
  0
SPLINE
  5
2d8
100
AcDbEntity
  8
1
 62
7
100
AcDbSpline
 70
8
 71
3
 72
8
 73
4
 74
0
 40
0
 40
0
 40
0
 40
0
 40
1
 40
1
 40
1
 40
1
 10
950.585937
 20
399.294245
 30
0.0
 10
950.722655
 20
399.063776
 30
0.0
 10
950.894530
 20
398.880183
 30
0.0
 10
951.101562
 20
398.747370
 30
0.0
  0
LWPOLYLINE
  5
2d9
100
AcDbEntity
  8
1
 62
7
100
AcDbPolyline
 90
2
 70
0
 10
952.539061
 20
397.747370
 30
0.0
 10
952.445311
 20
398.684870
 30
0.0
  0
SPLINE
  5
2da
100
AcDbEntity
  8
1
 62
7
100
AcDbSpline
 70
8
 71
3
 72
8
 73
4
 74
0
 40
0
 40
0
 40
0
 40
0
 40
1
 40
1
 40
1
 40
1
 10
950.054687
 20
398.934870
 30
0.0
 10
949.753905
 20
399.372370
 30
0.0
 10
949.601561
 20
399.833308
 30
0.0
 10
949.601561
 20
400.325495
 30
0.0
  0
SPLINE
  5
2db
100
AcDbEntity
  8
1
 62
7
100
AcDbSpline
 70
8
 71
3
 72
8
 73
4
 74
0
 40
0
 40
0
 40
0
 40
0
 40
1
 40
1
 40
1
 40
1
 10
949.601561
 20
400.325495
 30
0.0
 10
949.601561
 20
400.958308
 30
0.0
 10
949.820312
 20
401.497370
 30
0.0
 10
950.257812
 20
401.934870
 30
0.0
  0
SPLINE
  5
2dc
100
AcDbEntity
  8
1
 62
7
100
AcDbSpline
 70
8
 71
3
 72
8
 73
4
 74
0
 40
0
 40
0
 40
0
 40
0
 40
1
 40
1
 40
1
 40
1
 10
950.257812
 20
401.934870
 30
0.0
 10
950.707030
 20
402.372370
 30
0.0
 10
951.281249
 20
402.591120
 30
0.0
 10
951.976561
 20
402.591120
 30
0.0
  0
SPLINE
  5
2dd
100
AcDbEntity
  8
1
 62
7
100
AcDbSpline
 70
8
 71
3
 72
8
 73
4
 74
0
 40
0
 40
0
 40
0
 40
0
 40
1
 40
1
 40
1
 40
1
 10
951.976561
 20
402.591120
 30
0.0
 10
952.632811
 20
402.591120
 30
0.0
 10
953.203124
 20
402.395808
 30
0.0
 10
953.679686
 20
402.012995
 30
0.0
  0
SPLINE
  5
2de
100
AcDbEntity
  8
1
 62
7
100
AcDbSpline
 70
8
 71
3
 72
8
 73
4
 74
0
 40
0
 40
0
 40
0
 40
0
 40
1
 40
1
 40
1
 40
1
 10
953.679686
 20
402.012995
 30
0.0
 10
954.273436
 20
401.544245
 30
0.0
 10
954.570311
 20
400.903620
 30
0.0
 10
954.570311
 20
400.091120
 30
0.0
  0
SPLINE
  5
2df
100
AcDbEntity
  8
1
 62
7
100
AcDbSpline
 70
8
 71
3
 72
8
 73
4
 74
0
 40
0
 40
0
 40
0
 40
0
 40
1
 40
1
 40
1
 40
1
 10
954.570311
 20
400.091120
 30
0.0
 10
954.570311
 20
399.434870
 30
0.0
 10
954.382811
 20
398.891902
 30
0.0
 10
954.007811
 20
398.466120
 30
0.0
  0
SPLINE
  5
2e0
100
AcDbEntity
  8
1
 62
7
100
AcDbSpline
 70
8
 71
3
 72
8
 73
4
 74
0
 40
0
 40
0
 40
0
 40
0
 40
1
 40
1
 40
1
 40
1
 10
954.007811
 20
398.466120
 30
0.0
 10
953.644530
 20
398.048152
 30
0.0
 10
953.156249
 20
397.809870
 30
0.0
 10
952.539061
 20
397.747370
 30
0.0
  0
LWPOLYLINE
  5
2e1
100
AcDbEntity
  8
1
 62
7
100
AcDbPolyline
 90
7
 70
0
 10
951.101562
 20
398.747370
 30
0.0
 10
950.992187
 20
397.903620
 30
0.0
 10
947.242187
 20
398.622370
 30
0.0
 10
947.242187
 20
402.247370
 30
0.0
 10
948.101562
 20
402.247370
 30
0.0
 10
948.101562
 20
399.325495
 30
0.0
 10
950.054687
 20
398.934870
 30
0.0
  0
LWPOLYLINE
  5
2e2
100
AcDbEntity
  8
1
 62
7
100
AcDbPolyline
 90
1
 70
1
 10
952.539061
 20
397.747370
 30
0.0
  0
LWPOLYLINE
  5
2e3
100
AcDbEntity
  8
1
 62
5
100
AcDbPolyline
 90
2
 70
0
 10
958.262916
 20
711.937996
 30
0.0
 10
958.262916
 20
72.127804
 30
0.0
  0
LWPOLYLINE
  5
2e4
100
AcDbEntity
  8
1
 62
5
100
AcDbPolyline
 90
2
 70
0
 10
911.847348
 20
72.127804
 30
0.0
 10
962.193486
 20
72.127804
 30
0.0
  0
LWPOLYLINE
  5
2e5
100
AcDbEntity
  8
1
 62
5
100
AcDbPolyline
 90
2
 70
0
 10
911.847348
 20
711.937996
 30
0.0
 10
962.193486
 20
711.937996
 30
0.0
  0
LWPOLYLINE
  5
2e6
100
AcDbEntity
  8
1
 62
5
100
AcDbPolyline
 90
3
 70
1
 10
958.262940
 20
72.127810
 30
0.0
 10
958.766859
 20
75.151325
 30
0.0
 10
957.759021
 20
75.151325
 30
0.0
  0
LWPOLYLINE
  5
2e7
100
AcDbEntity
  8
1
 62
5
100
AcDbPolyline
 90
3
 70
1
 10
958.262940
 20
711.938004
 30
0.0
 10
957.759021
 20
708.914489
 30
0.0
 10
958.766859
 20
708.914489
 30
0.0
  0
SPLINE
  5
2e8
100
AcDbEntity
  8
1
 62
7
100
AcDbSpline
 70
8
 71
3
 72
8
 73
4
 74
0
 40
0
 40
0
 40
0
 40
0
 40
1
 40
1
 40
1
 40
1
 10
336.074222
 20
44.786430
 30
0.0
 10
335.855472
 20
44.575493
 30
0.0
 10
335.574222
 20
44.368462
 30
0.0
 10
335.230472
 20
44.161430
 30
0.0
  0
SPLINE
  5
2e9
100
AcDbEntity
  8
1
 62
7
100
AcDbSpline
 70
8
 71
3
 72
8
 73
4
 74
0
 40
0
 40
0
 40
0
 40
0
 40
1
 40
1
 40
1
 40
1
 10
335.230472
 20
44.161430
 30
0.0
 10
334.875003
 20
43.950493
 30
0.0
 10
334.558597
 20
43.802055
 30
0.0
 10
334.277347
 20
43.708306
 30
0.0
  0
LWPOLYLINE
  5
2ea
100
AcDbEntity
  8
1
 62
7
100
AcDbPolyline
 90
3
 70
0
 10
336.964847
 20
39.067680
 30
0.0
 10
336.074222
 20
39.067680
 30
0.0
 10
336.074222
 20
44.786430
 30
0.0
  0
SPLINE
  5
2eb
100
AcDbEntity
  8
1
 62
7
100
AcDbSpline
 70
8
 71
3
 72
8
 73
4
 74
0
 40
0
 40
0
 40
0
 40
0
 40
1
 40
1
 40
1
 40
1
 10
334.277347
 20
44.567680
 30
0.0
 10
334.777347
 20
44.794243
 30
0.0
 10
335.214847
 20
45.083305
 30
0.0
 10
335.589847
 20
45.427055
 30
0.0
  0
SPLINE
  5
2ec
100
AcDbEntity
  8
1
 62
7
100
AcDbSpline
 70
8
 71
3
 72
8
 73
4
 74
0
 40
0
 40
0
 40
0
 40
0
 40
1
 40
1
 40
1
 40
1
 10
335.589847
 20
45.427055
 30
0.0
 10
335.964847
 20
45.759087
 30
0.0
 10
336.230472
 20
46.083305
 30
0.0
 10
336.386722
 20
46.395805
 30
0.0
  0
LWPOLYLINE
  5
2ed
100
AcDbEntity
  8
1
 62
7
100
AcDbPolyline
 90
2
 70
0
 10
334.277347
 20
43.708306
 30
0.0
 10
334.277347
 20
44.567680
 30
0.0
  0
LWPOLYLINE
  5
2ee
100
AcDbEntity
  8
1
 62
7
100
AcDbPolyline
 90
3
 70
0
 10
336.386722
 20
46.395805
 30
0.0
 10
336.964847
 20
46.395805
 30
0.0
 10
336.964847
 20
39.067680
 30
0.0
  0
SPLINE
  5
2ef
100
AcDbEntity
  8
1
 62
7
100
AcDbSpline
 70
8
 71
3
 72
8
 73
4
 74
0
 40
0
 40
0
 40
0
 40
0
 40
1
 40
1
 40
1
 40
1
 10
340.164065
 20
41.114555
 30
0.0
 10
340.265628
 20
40.602837
 30
0.0
 10
340.445315
 20
40.239555
 30
0.0
 10
340.695316
 20
40.020805
 30
0.0
  0
SPLINE
  5
2f0
100
AcDbEntity
  8
1
 62
7
100
AcDbSpline
 70
8
 71
3
 72
8
 73
4
 74
0
 40
0
 40
0
 40
0
 40
0
 40
1
 40
1
 40
1
 40
1
 10
340.695316
 20
40.020805
 30
0.0
 10
340.933597
 20
39.790337
 30
0.0
 10
341.230472
 20
39.677055
 30
0.0
 10
341.585941
 20
39.677055
 30
0.0
  0
SPLINE
  5
2f1
100
AcDbEntity
  8
1
 62
7
100
AcDbSpline
 70
8
 71
3
 72
8
 73
4
 74
0
 40
0
 40
0
 40
0
 40
0
 40
1
 40
1
 40
1
 40
1
 10
341.585941
 20
39.677055
 30
0.0
 10
342.000003
 20
39.677055
 30
0.0
 10
342.359378
 20
39.821587
 30
0.0
 10
342.664066
 20
40.114555
 30
0.0
  0
SPLINE
  5
2f2
100
AcDbEntity
  8
1
 62
7
100
AcDbSpline
 70
8
 71
3
 72
8
 73
4
 74
0
 40
0
 40
0
 40
0
 40
0
 40
1
 40
1
 40
1
 40
1
 10
342.664066
 20
40.114555
 30
0.0
 10
342.953128
 20
40.403618
 30
0.0
 10
343.101566
 20
40.770805
 30
0.0
 10
343.101566
 20
41.208305
 30
0.0
  0
SPLINE
  5
2f3
100
AcDbEntity
  8
1
 62
7
100
AcDbSpline
 70
8
 71
3
 72
8
 73
4
 74
0
 40
0
 40
0
 40
0
 40
0
 40
1
 40
1
 40
1
 40
1
 10
343.101566
 20
41.208305
 30
0.0
 10
343.101566
 20
41.614555
 30
0.0
 10
342.964847
 20
41.950493
 30
0.0
 10
342.695316
 20
42.223930
 30
0.0
  0
SPLINE
  5
2f4
100
AcDbEntity
  8
1
 62
7
100
AcDbSpline
 70
8
 71
3
 72
8
 73
4
 74
0
 40
0
 40
0
 40
0
 40
0
 40
1
 40
1
 40
1
 40
1
 10
342.695316
 20
42.223930
 30
0.0
 10
342.421878
 20
42.481743
 30
0.0
 10
342.078128
 20
42.618462
 30
0.0
 10
341.664066
 20
42.630180
 30
0.0
  0
SPLINE
  5
2f5
100
AcDbEntity
  8
1
 62
7
100
AcDbSpline
 70
8
 71
3
 72
8
 73
4
 74
0
 40
0
 40
0
 40
0
 40
0
 40
1
 40
1
 40
1
 40
1
 10
341.664066
 20
42.630180
 30
0.0
 10
341.496097
 20
42.618462
 30
0.0
 10
341.289066
 20
42.583305
 30
0.0
 10
341.039066
 20
42.520805
 30
0.0
  0
LWPOLYLINE
  5
2f6
100
AcDbEntity
  8
1
 62
7
100
AcDbPolyline
 90
2
 70
0
 10
339.257816
 20
40.989555
 30
0.0
 10
340.164065
 20
41.114555
 30
0.0
  0
SPLINE
  5
2f7
100
AcDbEntity
  8
1
 62
7
100
AcDbSpline
 70
8
 71
3
 72
8
 73
4
 74
0
 40
0
 40
0
 40
0
 40
0
 40
1
 40
1
 40
1
 40
1
 10
341.132816
 20
43.317680
 30
0.0
 10
341.195316
 20
43.305960
 30
0.0
 10
341.242190
 20
43.302056
 30
0.0
 10
341.273441
 20
43.302056
 30
0.0
  0
SPLINE
  5
2f8
100
AcDbEntity
  8
1
 62
7
100
AcDbSpline
 70
8
 71
3
 72
8
 73
4
 74
0
 40
0
 40
0
 40
0
 40
0
 40
1
 40
1
 40
1
 40
1
 10
341.273441
 20
43.302056
 30
0.0
 10
341.656253
 20
43.302056
 30
0.0
 10
342.000003
 20
43.399712
 30
0.0
 10
342.304691
 20
43.598931
 30
0.0
  0
SPLINE
  5
2f9
100
AcDbEntity
  8
1
 62
7
100
AcDbSpline
 70
8
 71
3
 72
8
 73
4
 74
0
 40
0
 40
0
 40
0
 40
0
 40
1
 40
1
 40
1
 40
1
 10
342.304691
 20
43.598931
 30
0.0
 10
342.605472
 20
43.794244
 30
0.0
 10
342.761722
 20
44.102837
 30
0.0
 10
342.773441
 20
44.520806
 30
0.0
  0
SPLINE
  5
2fa
100
AcDbEntity
  8
1
 62
7
100
AcDbSpline
 70
8
 71
3
 72
8
 73
4
 74
0
 40
0
 40
0
 40
0
 40
0
 40
1
 40
1
 40
1
 40
1
 10
342.773441
 20
44.520806
 30
0.0
 10
342.773441
 20
44.852838
 30
0.0
 10
342.656253
 20
45.122368
 30
0.0
 10
342.429691
 20
45.333306
 30
0.0
  0
SPLINE
  5
2fb
100
AcDbEntity
  8
1
 62
7
100
AcDbSpline
 70
8
 71
3
 72
8
 73
4
 74
0
 40
0
 40
0
 40
0
 40
0
 40
1
 40
1
 40
1
 40
1
 10
342.429691
 20
45.333306
 30
0.0
 10
342.210941
 20
45.552056
 30
0.0
 10
341.921878
 20
45.661431
 30
0.0
 10
341.570316
 20
45.661431
 30
0.0
  0
SPLINE
  5
2fc
100
AcDbEntity
  8
1
 62
7
100
AcDbSpline
 70
8
 71
3
 72
8
 73
4
 74
0
 40
0
 40
0
 40
0
 40
0
 40
1
 40
1
 40
1
 40
1
 10
341.570316
 20
45.661431
 30
0.0
 10
341.226566
 20
45.661431
 30
0.0
 10
340.933597
 20
45.552056
 30
0.0
 10
340.695316
 20
45.333306
 30
0.0
  0
SPLINE
  5
2fd
100
AcDbEntity
  8
1
 62
7
100
AcDbSpline
 70
8
 71
3
 72
8
 73
4
 74
0
 40
0
 40
0
 40
0
 40
0
 40
1
 40
1
 40
1
 40
1
 10
340.695316
 20
45.333306
 30
0.0
 10
340.464847
 20
45.114556
 30
0.0
 10
340.320316
 20
44.786431
 30
0.0
 10
340.257816
 20
44.348931
 30
0.0
  0
LWPOLYLINE
  5
2fe
100
AcDbEntity
  8
1
 62
7
100
AcDbPolyline
 90
2
 70
0
 10
341.039066
 20
42.520805
 30
0.0
 10
341.132816
 20
43.317680
 30
0.0
  0
SPLINE
  5
2ff
100
AcDbEntity
  8
1
 62
7
100
AcDbSpline
 70
8
 71
3
 72
8
 73
4
 74
0
 40
0
 40
0
 40
0
 40
0
 40
1
 40
1
 40
1
 40
1
 10
339.351566
 20
44.505181
 30
0.0
 10
339.464847
 20
45.106744
 30
0.0
 10
339.714847
 20
45.575494
 30
0.0
 10
340.101566
 20
45.911431
 30
0.0
  0
SPLINE
  5
300
100
AcDbEntity
  8
1
 62
7
100
AcDbSpline
 70
8
 71
3
 72
8
 73
4
 74
0
 40
0
 40
0
 40
0
 40
0
 40
1
 40
1
 40
1
 40
1
 10
340.101566
 20
45.911431
 30
0.0
 10
340.484378
 20
46.231744
 30
0.0
 10
340.968753
 20
46.395806
 30
0.0
 10
341.554691
 20
46.395806
 30
0.0
  0
SPLINE
  5
301
100
AcDbEntity
  8
1
 62
7
100
AcDbSpline
 70
8
 71
3
 72
8
 73
4
 74
0
 40
0
 40
0
 40
0
 40
0
 40
1
 40
1
 40
1
 40
1
 10
341.554691
 20
46.395806
 30
0.0
 10
341.949222
 20
46.395806
 30
0.0
 10
342.312503
 20
46.309869
 30
0.0
 10
342.648441
 20
46.145806
 30
0.0
  0
SPLINE
  5
302
100
AcDbEntity
  8
1
 62
7
100
AcDbSpline
 70
8
 71
3
 72
8
 73
4
 74
0
 40
0
 40
0
 40
0
 40
0
 40
1
 40
1
 40
1
 40
1
 10
342.648441
 20
46.145806
 30
0.0
 10
342.980472
 20
45.966118
 30
0.0
 10
343.242191
 20
45.731744
 30
0.0
 10
343.429690
 20
45.442681
 30
0.0
  0
SPLINE
  5
303
100
AcDbEntity
  8
1
 62
7
100
AcDbSpline
 70
8
 71
3
 72
8
 73
4
 74
0
 40
0
 40
0
 40
0
 40
0
 40
1
 40
1
 40
1
 40
1
 10
343.429690
 20
45.442681
 30
0.0
 10
343.593753
 20
45.149712
 30
0.0
 10
343.683597
 20
44.837212
 30
0.0
 10
343.695316
 20
44.505181
 30
0.0
  0
SPLINE
  5
304
100
AcDbEntity
  8
1
 62
7
100
AcDbSpline
 70
8
 71
3
 72
8
 73
4
 74
0
 40
0
 40
0
 40
0
 40
0
 40
1
 40
1
 40
1
 40
1
 10
343.695316
 20
44.505181
 30
0.0
 10
343.695316
 20
44.192681
 30
0.0
 10
343.605472
 20
43.903619
 30
0.0
 10
343.429690
 20
43.645806
 30
0.0
  0
SPLINE
  5
305
100
AcDbEntity
  8
1
 62
7
100
AcDbSpline
 70
8
 71
3
 72
8
 73
4
 74
0
 40
0
 40
0
 40
0
 40
0
 40
1
 40
1
 40
1
 40
1
 10
343.429690
 20
43.645806
 30
0.0
 10
343.261722
 20
43.384087
 30
0.0
 10
343.011722
 20
43.177056
 30
0.0
 10
342.679691
 20
43.020806
 30
0.0
  0
SPLINE
  5
306
100
AcDbEntity
  8
1
 62
7
100
AcDbSpline
 70
8
 71
3
 72
8
 73
4
 74
0
 40
0
 40
0
 40
0
 40
0
 40
1
 40
1
 40
1
 40
1
 10
342.679691
 20
43.020806
 30
0.0
 10
343.117191
 20
42.927056
 30
0.0
 10
343.453128
 20
42.723931
 30
0.0
 10
343.695316
 20
42.411431
 30
0.0
  0
SPLINE
  5
307
100
AcDbEntity
  8
1
 62
7
100
AcDbSpline
 70
8
 71
3
 72
8
 73
4
 74
0
 40
0
 40
0
 40
0
 40
0
 40
1
 40
1
 40
1
 40
1
 10
343.695316
 20
42.411431
 30
0.0
 10
343.933597
 20
42.087212
 30
0.0
 10
344.054691
 20
41.692681
 30
0.0
 10
344.054691
 20
41.223931
 30
0.0
  0
SPLINE
  5
308
100
AcDbEntity
  8
1
 62
7
100
AcDbSpline
 70
8
 71
3
 72
8
 73
4
 74
0
 40
0
 40
0
 40
0
 40
0
 40
1
 40
1
 40
1
 40
1
 10
344.054691
 20
41.223931
 30
0.0
 10
344.042971
 20
40.587212
 30
0.0
 10
343.808597
 20
40.044244
 30
0.0
 10
343.351565
 20
39.598931
 30
0.0
  0
SPLINE
  5
309
100
AcDbEntity
  8
1
 62
7
100
AcDbSpline
 70
8
 71
3
 72
8
 73
4
 74
0
 40
0
 40
0
 40
0
 40
0
 40
1
 40
1
 40
1
 40
1
 10
343.351565
 20
39.598931
 30
0.0
 10
342.882816
 20
39.161431
 30
0.0
 10
342.292972
 20
38.942681
 30
0.0
 10
341.585941
 20
38.942681
 30
0.0
  0
SPLINE
  5
30a
100
AcDbEntity
  8
1
 62
7
100
AcDbSpline
 70
8
 71
3
 72
8
 73
4
 74
0
 40
0
 40
0
 40
0
 40
0
 40
1
 40
1
 40
1
 40
1
 10
341.585941
 20
38.942681
 30
0.0
 10
340.937503
 20
38.934868
 30
0.0
 10
340.406253
 20
39.118462
 30
0.0
 10
339.992191
 20
39.505180
 30
0.0
  0
SPLINE
  5
30b
100
AcDbEntity
  8
1
 62
7
100
AcDbSpline
 70
8
 71
3
 72
8
 73
4
 74
0
 40
0
 40
0
 40
0
 40
0
 40
1
 40
1
 40
1
 40
1
 10
339.992191
 20
39.505180
 30
0.0
 10
339.562503
 20
39.887993
 30
0.0
 10
339.320316
 20
40.384087
 30
0.0
 10
339.257816
 20
40.989555
 30
0.0
  0
LWPOLYLINE
  5
30c
100
AcDbEntity
  8
1
 62
7
100
AcDbPolyline
 90
2
 70
0
 10
340.257816
 20
44.348931
 30
0.0
 10
339.351566
 20
44.505181
 30
0.0
  0
SPLINE
  5
30d
100
AcDbEntity
  8
1
 62
7
100
AcDbSpline
 70
8
 71
3
 72
8
 73
4
 74
0
 40
0
 40
0
 40
0
 40
0
 40
1
 40
1
 40
1
 40
1
 10
344.925784
 20
42.677055
 30
0.0
 10
344.925784
 20
43.528618
 30
0.0
 10
345.011722
 20
44.223931
 30
0.0
 10
345.191409
 20
44.755180
 30
0.0
  0
SPLINE
  5
30e
100
AcDbEntity
  8
1
 62
7
100
AcDbSpline
 70
8
 71
3
 72
8
 73
4
 74
0
 40
0
 40
0
 40
0
 40
0
 40
1
 40
1
 40
1
 40
1
 10
345.191409
 20
44.755180
 30
0.0
 10
345.367191
 20
45.274712
 30
0.0
 10
345.632816
 20
45.680962
 30
0.0
 10
345.988284
 20
45.973931
 30
0.0
  0
SPLINE
  5
30f
100
AcDbEntity
  8
1
 62
7
100
AcDbSpline
 70
8
 71
3
 72
8
 73
4
 74
0
 40
0
 40
0
 40
0
 40
0
 40
1
 40
1
 40
1
 40
1
 10
345.988284
 20
45.973931
 30
0.0
 10
346.332034
 20
46.255181
 30
0.0
 10
346.773440
 20
46.395805
 30
0.0
 10
347.316409
 20
46.395805
 30
0.0
  0
SPLINE
  5
310
100
AcDbEntity
  8
1
 62
7
100
AcDbSpline
 70
8
 71
3
 72
8
 73
4
 74
0
 40
0
 40
0
 40
0
 40
0
 40
1
 40
1
 40
1
 40
1
 10
347.316409
 20
46.395805
 30
0.0
 10
347.699222
 20
46.395805
 30
0.0
 10
348.042972
 20
46.317680
 30
0.0
 10
348.347659
 20
46.161430
 30
0.0
  0
SPLINE
  5
311
100
AcDbEntity
  8
1
 62
7
100
AcDbSpline
 70
8
 71
3
 72
8
 73
4
 74
0
 40
0
 40
0
 40
0
 40
0
 40
1
 40
1
 40
1
 40
1
 10
348.347659
 20
46.161430
 30
0.0
 10
348.636722
 20
46.005180
 30
0.0
 10
348.878909
 20
45.778618
 30
0.0
 10
349.066409
 20
45.489555
 30
0.0
  0
SPLINE
  5
312
100
AcDbEntity
  8
1
 62
7
100
AcDbSpline
 70
8
 71
3
 72
8
 73
4
 74
0
 40
0
 40
0
 40
0
 40
0
 40
1
 40
1
 40
1
 40
1
 10
349.066409
 20
45.489555
 30
0.0
 10
349.261722
 20
45.184868
 30
0.0
 10
349.414066
 20
44.821587
 30
0.0
 10
349.519534
 20
44.395805
 30
0.0
  0
SPLINE
  5
313
100
AcDbEntity
  8
1
 62
7
100
AcDbSpline
 70
8
 71
3
 72
8
 73
4
 74
0
 40
0
 40
0
 40
0
 40
0
 40
1
 40
1
 40
1
 40
1
 10
349.519534
 20
44.395805
 30
0.0
 10
349.632816
 20
43.966118
 30
0.0
 10
349.691409
 20
43.395805
 30
0.0
 10
349.691409
 20
42.677055
 30
0.0
  0
SPLINE
  5
314
100
AcDbEntity
  8
1
 62
7
100
AcDbSpline
 70
8
 71
3
 72
8
 73
4
 74
0
 40
0
 40
0
 40
0
 40
0
 40
1
 40
1
 40
1
 40
1
 10
349.691409
 20
42.677055
 30
0.0
 10
349.691409
 20
41.809868
 30
0.0
 10
349.601565
 20
41.118462
 30
0.0
 10
349.425784
 20
40.598930
 30
0.0
  0
SPLINE
  5
315
100
AcDbEntity
  8
1
 62
7
100
AcDbSpline
 70
8
 71
3
 72
8
 73
4
 74
0
 40
0
 40
0
 40
0
 40
0
 40
1
 40
1
 40
1
 40
1
 10
349.425784
 20
40.598930
 30
0.0
 10
349.246097
 20
40.067680
 30
0.0
 10
348.988284
 20
39.661430
 30
0.0
 10
348.644534
 20
39.380180
 30
0.0
  0
SPLINE
  5
316
100
AcDbEntity
  8
1
 62
7
100
AcDbSpline
 70
8
 71
3
 72
8
 73
4
 74
0
 40
0
 40
0
 40
0
 40
0
 40
1
 40
1
 40
1
 40
1
 10
348.644534
 20
39.380180
 30
0.0
 10
348.289065
 20
39.087212
 30
0.0
 10
347.847659
 20
38.942680
 30
0.0
 10
347.316409
 20
38.942680
 30
0.0
  0
SPLINE
  5
317
100
AcDbEntity
  8
1
 62
7
100
AcDbSpline
 70
8
 71
3
 72
8
 73
4
 74
0
 40
0
 40
0
 40
0
 40
0
 40
1
 40
1
 40
1
 40
1
 10
347.316409
 20
38.942680
 30
0.0
 10
346.605472
 20
38.942680
 30
0.0
 10
346.050784
 20
39.192680
 30
0.0
 10
345.644534
 20
39.692680
 30
0.0
  0
SPLINE
  5
318
100
AcDbEntity
  8
1
 62
7
100
AcDbSpline
 70
8
 71
3
 72
8
 73
4
 74
0
 40
0
 40
0
 40
0
 40
0
 40
1
 40
1
 40
1
 40
1
 10
345.644534
 20
39.692680
 30
0.0
 10
345.164066
 20
40.305962
 30
0.0
 10
344.925784
 20
41.302055
 30
0.0
 10
344.925784
 20
42.677055
 30
0.0
  0
LWPOLYLINE
  5
319
100
AcDbEntity
  8
1
 62
7
100
AcDbPolyline
 90
1
 70
1
 10
339.257816
 20
40.989555
 30
0.0
  0
SPLINE
  5
31a
100
AcDbEntity
  8
1
 62
7
100
AcDbSpline
 70
8
 71
3
 72
8
 73
4
 74
0
 40
0
 40
0
 40
0
 40
0
 40
1
 40
1
 40
1
 40
1
 10
345.847659
 20
42.677055
 30
0.0
 10
345.847659
 20
41.466118
 30
0.0
 10
345.988284
 20
40.665337
 30
0.0
 10
346.269534
 20
40.270805
 30
0.0
  0
SPLINE
  5
31b
100
AcDbEntity
  8
1
 62
7
100
AcDbSpline
 70
8
 71
3
 72
8
 73
4
 74
0
 40
0
 40
0
 40
0
 40
0
 40
1
 40
1
 40
1
 40
1
 10
346.269534
 20
40.270805
 30
0.0
 10
346.550784
 20
39.872368
 30
0.0
 10
346.898440
 20
39.677055
 30
0.0
 10
347.316409
 20
39.677055
 30
0.0
  0
SPLINE
  5
31c
100
AcDbEntity
  8
1
 62
7
100
AcDbSpline
 70
8
 71
3
 72
8
 73
4
 74
0
 40
0
 40
0
 40
0
 40
0
 40
1
 40
1
 40
1
 40
1
 10
347.316409
 20
39.677055
 30
0.0
 10
347.722659
 20
39.677055
 30
0.0
 10
348.066409
 20
39.872368
 30
0.0
 10
348.347659
 20
40.270805
 30
0.0
  0
SPLINE
  5
31d
100
AcDbEntity
  8
1
 62
7
100
AcDbSpline
 70
8
 71
3
 72
8
 73
4
 74
0
 40
0
 40
0
 40
0
 40
0
 40
1
 40
1
 40
1
 40
1
 10
348.347659
 20
40.270805
 30
0.0
 10
348.628909
 20
40.677055
 30
0.0
 10
348.769534
 20
41.477837
 30
0.0
 10
348.769534
 20
42.677055
 30
0.0
  0
SPLINE
  5
31e
100
AcDbEntity
  8
1
 62
7
100
AcDbSpline
 70
8
 71
3
 72
8
 73
4
 74
0
 40
0
 40
0
 40
0
 40
0
 40
1
 40
1
 40
1
 40
1
 10
348.769534
 20
42.677055
 30
0.0
 10
348.769534
 20
43.872368
 30
0.0
 10
348.628909
 20
44.669243
 30
0.0
 10
348.347659
 20
45.067680
 30
0.0
  0
SPLINE
  5
31f
100
AcDbEntity
  8
1
 62
7
100
AcDbSpline
 70
8
 71
3
 72
8
 73
4
 74
0
 40
0
 40
0
 40
0
 40
0
 40
1
 40
1
 40
1
 40
1
 10
348.347659
 20
45.067680
 30
0.0
 10
348.066409
 20
45.462212
 30
0.0
 10
347.714847
 20
45.661430
 30
0.0
 10
347.300784
 20
45.661430
 30
0.0
  0
SPLINE
  5
320
100
AcDbEntity
  8
1
 62
7
100
AcDbSpline
 70
8
 71
3
 72
8
 73
4
 74
0
 40
0
 40
0
 40
0
 40
0
 40
1
 40
1
 40
1
 40
1
 10
347.300784
 20
45.661430
 30
0.0
 10
346.882816
 20
45.661430
 30
0.0
 10
346.554691
 20
45.481743
 30
0.0
 10
346.316409
 20
45.130180
 30
0.0
  0
SPLINE
  5
321
100
AcDbEntity
  8
1
 62
7
100
AcDbSpline
 70
8
 71
3
 72
8
 73
4
 74
0
 40
0
 40
0
 40
0
 40
0
 40
1
 40
1
 40
1
 40
1
 10
346.316409
 20
45.130180
 30
0.0
 10
346.003909
 20
44.692680
 30
0.0
 10
345.847659
 20
43.872368
 30
0.0
 10
345.847659
 20
42.677055
 30
0.0
  0
LWPOLYLINE
  5
322
100
AcDbEntity
  8
1
 62
7
100
AcDbPolyline
 90
1
 70
1
 10
344.925784
 20
42.677055
 30
0.0
  0
SPLINE
  5
323
100
AcDbEntity
  8
1
 62
7
100
AcDbSpline
 70
8
 71
3
 72
8
 73
4
 74
0
 40
0
 40
0
 40
0
 40
0
 40
1
 40
1
 40
1
 40
1
 10
350.597659
 20
42.677055
 30
0.0
 10
350.597659
 20
43.528618
 30
0.0
 10
350.683597
 20
44.223931
 30
0.0
 10
350.863284
 20
44.755180
 30
0.0
  0
SPLINE
  5
324
100
AcDbEntity
  8
1
 62
7
100
AcDbSpline
 70
8
 71
3
 72
8
 73
4
 74
0
 40
0
 40
0
 40
0
 40
0
 40
1
 40
1
 40
1
 40
1
 10
350.863284
 20
44.755180
 30
0.0
 10
351.039065
 20
45.274712
 30
0.0
 10
351.304691
 20
45.680962
 30
0.0
 10
351.660159
 20
45.973931
 30
0.0
  0
SPLINE
  5
325
100
AcDbEntity
  8
1
 62
7
100
AcDbSpline
 70
8
 71
3
 72
8
 73
4
 74
0
 40
0
 40
0
 40
0
 40
0
 40
1
 40
1
 40
1
 40
1
 10
351.660159
 20
45.973931
 30
0.0
 10
352.003909
 20
46.255181
 30
0.0
 10
352.445316
 20
46.395805
 30
0.0
 10
352.988284
 20
46.395805
 30
0.0
  0
SPLINE
  5
326
100
AcDbEntity
  8
1
 62
7
100
AcDbSpline
 70
8
 71
3
 72
8
 73
4
 74
0
 40
0
 40
0
 40
0
 40
0
 40
1
 40
1
 40
1
 40
1
 10
352.988284
 20
46.395805
 30
0.0
 10
353.371097
 20
46.395805
 30
0.0
 10
353.714847
 20
46.317680
 30
0.0
 10
354.019534
 20
46.161430
 30
0.0
  0
SPLINE
  5
327
100
AcDbEntity
  8
1
 62
7
100
AcDbSpline
 70
8
 71
3
 72
8
 73
4
 74
0
 40
0
 40
0
 40
0
 40
0
 40
1
 40
1
 40
1
 40
1
 10
354.019534
 20
46.161430
 30
0.0
 10
354.308597
 20
46.005180
 30
0.0
 10
354.550784
 20
45.778618
 30
0.0
 10
354.738284
 20
45.489555
 30
0.0
  0
SPLINE
  5
328
100
AcDbEntity
  8
1
 62
7
100
AcDbSpline
 70
8
 71
3
 72
8
 73
4
 74
0
 40
0
 40
0
 40
0
 40
0
 40
1
 40
1
 40
1
 40
1
 10
354.738284
 20
45.489555
 30
0.0
 10
354.933597
 20
45.184868
 30
0.0
 10
355.085941
 20
44.821587
 30
0.0
 10
355.191409
 20
44.395805
 30
0.0
  0
SPLINE
  5
329
100
AcDbEntity
  8
1
 62
7
100
AcDbSpline
 70
8
 71
3
 72
8
 73
4
 74
0
 40
0
 40
0
 40
0
 40
0
 40
1
 40
1
 40
1
 40
1
 10
355.191409
 20
44.395805
 30
0.0
 10
355.304690
 20
43.966118
 30
0.0
 10
355.363284
 20
43.395805
 30
0.0
 10
355.363284
 20
42.677055
 30
0.0
  0
SPLINE
  5
32a
100
AcDbEntity
  8
1
 62
7
100
AcDbSpline
 70
8
 71
3
 72
8
 73
4
 74
0
 40
0
 40
0
 40
0
 40
0
 40
1
 40
1
 40
1
 40
1
 10
355.363284
 20
42.677055
 30
0.0
 10
355.363284
 20
41.809868
 30
0.0
 10
355.273441
 20
41.118462
 30
0.0
 10
355.097659
 20
40.598930
 30
0.0
  0
SPLINE
  5
32b
100
AcDbEntity
  8
1
 62
7
100
AcDbSpline
 70
8
 71
3
 72
8
 73
4
 74
0
 40
0
 40
0
 40
0
 40
0
 40
1
 40
1
 40
1
 40
1
 10
355.097659
 20
40.598930
 30
0.0
 10
354.917972
 20
40.067680
 30
0.0
 10
354.660159
 20
39.661430
 30
0.0
 10
354.316409
 20
39.380180
 30
0.0
  0
SPLINE
  5
32c
100
AcDbEntity
  8
1
 62
7
100
AcDbSpline
 70
8
 71
3
 72
8
 73
4
 74
0
 40
0
 40
0
 40
0
 40
0
 40
1
 40
1
 40
1
 40
1
 10
354.316409
 20
39.380180
 30
0.0
 10
353.960941
 20
39.087212
 30
0.0
 10
353.519534
 20
38.942680
 30
0.0
 10
352.988284
 20
38.942680
 30
0.0
  0
SPLINE
  5
32d
100
AcDbEntity
  8
1
 62
7
100
AcDbSpline
 70
8
 71
3
 72
8
 73
4
 74
0
 40
0
 40
0
 40
0
 40
0
 40
1
 40
1
 40
1
 40
1
 10
352.988284
 20
38.942680
 30
0.0
 10
352.277347
 20
38.942680
 30
0.0
 10
351.722659
 20
39.192680
 30
0.0
 10
351.316409
 20
39.692680
 30
0.0
  0
SPLINE
  5
32e
100
AcDbEntity
  8
1
 62
7
100
AcDbSpline
 70
8
 71
3
 72
8
 73
4
 74
0
 40
0
 40
0
 40
0
 40
0
 40
1
 40
1
 40
1
 40
1
 10
351.316409
 20
39.692680
 30
0.0
 10
350.835940
 20
40.305962
 30
0.0
 10
350.597659
 20
41.302055
 30
0.0
 10
350.597659
 20
42.677055
 30
0.0
  0
LWPOLYLINE
  5
32f
100
AcDbEntity
  8
1
 62
7
100
AcDbPolyline
 90
1
 70
1
 10
345.847659
 20
42.677055
 30
0.0
  0
SPLINE
  5
330
100
AcDbEntity
  8
1
 62
7
100
AcDbSpline
 70
8
 71
3
 72
8
 73
4
 74
0
 40
0
 40
0
 40
0
 40
0
 40
1
 40
1
 40
1
 40
1
 10
351.519534
 20
42.677055
 30
0.0
 10
351.519534
 20
41.466118
 30
0.0
 10
351.660159
 20
40.665337
 30
0.0
 10
351.941409
 20
40.270805
 30
0.0
  0
SPLINE
  5
331
100
AcDbEntity
  8
1
 62
7
100
AcDbSpline
 70
8
 71
3
 72
8
 73
4
 74
0
 40
0
 40
0
 40
0
 40
0
 40
1
 40
1
 40
1
 40
1
 10
351.941409
 20
40.270805
 30
0.0
 10
352.222659
 20
39.872368
 30
0.0
 10
352.570316
 20
39.677055
 30
0.0
 10
352.988284
 20
39.677055
 30
0.0
  0
SPLINE
  5
332
100
AcDbEntity
  8
1
 62
7
100
AcDbSpline
 70
8
 71
3
 72
8
 73
4
 74
0
 40
0
 40
0
 40
0
 40
0
 40
1
 40
1
 40
1
 40
1
 10
352.988284
 20
39.677055
 30
0.0
 10
353.394534
 20
39.677055
 30
0.0
 10
353.738284
 20
39.872368
 30
0.0
 10
354.019534
 20
40.270805
 30
0.0
  0
SPLINE
  5
333
100
AcDbEntity
  8
1
 62
7
100
AcDbSpline
 70
8
 71
3
 72
8
 73
4
 74
0
 40
0
 40
0
 40
0
 40
0
 40
1
 40
1
 40
1
 40
1
 10
354.019534
 20
40.270805
 30
0.0
 10
354.300784
 20
40.677055
 30
0.0
 10
354.441409
 20
41.477837
 30
0.0
 10
354.441409
 20
42.677055
 30
0.0
  0
SPLINE
  5
334
100
AcDbEntity
  8
1
 62
7
100
AcDbSpline
 70
8
 71
3
 72
8
 73
4
 74
0
 40
0
 40
0
 40
0
 40
0
 40
1
 40
1
 40
1
 40
1
 10
354.441409
 20
42.677055
 30
0.0
 10
354.441409
 20
43.872368
 30
0.0
 10
354.300784
 20
44.669243
 30
0.0
 10
354.019534
 20
45.067680
 30
0.0
  0
SPLINE
  5
335
100
AcDbEntity
  8
1
 62
7
100
AcDbSpline
 70
8
 71
3
 72
8
 73
4
 74
0
 40
0
 40
0
 40
0
 40
0
 40
1
 40
1
 40
1
 40
1
 10
354.019534
 20
45.067680
 30
0.0
 10
353.738284
 20
45.462212
 30
0.0
 10
353.386722
 20
45.661430
 30
0.0
 10
352.972659
 20
45.661430
 30
0.0
  0
SPLINE
  5
336
100
AcDbEntity
  8
1
 62
7
100
AcDbSpline
 70
8
 71
3
 72
8
 73
4
 74
0
 40
0
 40
0
 40
0
 40
0
 40
1
 40
1
 40
1
 40
1
 10
352.972659
 20
45.661430
 30
0.0
 10
352.554690
 20
45.661430
 30
0.0
 10
352.226565
 20
45.481743
 30
0.0
 10
351.988284
 20
45.130180
 30
0.0
  0
SPLINE
  5
337
100
AcDbEntity
  8
1
 62
7
100
AcDbSpline
 70
8
 71
3
 72
8
 73
4
 74
0
 40
0
 40
0
 40
0
 40
0
 40
1
 40
1
 40
1
 40
1
 10
351.988284
 20
45.130180
 30
0.0
 10
351.675784
 20
44.692680
 30
0.0
 10
351.519534
 20
43.872368
 30
0.0
 10
351.519534
 20
42.677055
 30
0.0
  0
LWPOLYLINE
  5
338
100
AcDbEntity
  8
1
 62
7
100
AcDbPolyline
 90
1
 70
1
 10
350.597659
 20
42.677055
 30
0.0
  0
LWPOLYLINE
  5
339
100
AcDbEntity
  8
1
 62
7
100
AcDbPolyline
 90
1
 70
1
 10
351.519534
 20
42.677055
 30
0.0
  0
LWPOLYLINE
  5
33a
100
AcDbEntity
  8
1
 62
5
100
AcDbPolyline
 90
2
 70
0
 10
911.847348
 20
35.249756
 30
0.0
 10
209.945872
 20
35.249756
 30
0.0
  0
LWPOLYLINE
  5
33b
100
AcDbEntity
  8
1
 62
5
100
AcDbPolyline
 90
2
 70
0
 10
209.945872
 20
72.127804
 30
0.0
 10
209.945872
 20
31.319186
 30
0.0
  0
LWPOLYLINE
  5
33c
100
AcDbEntity
  8
1
 62
5
100
AcDbPolyline
 90
2
 70
0
 10
911.847348
 20
72.127804
 30
0.0
 10
911.847348
 20
31.319186
 30
0.0
  0
LWPOLYLINE
  5
33d
100
AcDbEntity
  8
1
 62
5
100
AcDbPolyline
 90
3
 70
1
 10
209.945870
 20
35.249760
 30
0.0
 10
212.969385
 20
34.745841
 30
0.0
 10
212.969385
 20
35.753679
 30
0.0
  0
LWPOLYLINE
  5
33e
100
AcDbEntity
  8
1
 62
5
100
AcDbPolyline
 90
3
 70
1
 10
911.847350
 20
35.249760
 30
0.0
 10
908.823835
 20
35.753679
 30
0.0
 10
908.823835
 20
34.745841
 30
0.0
  0
SPLINE
  5
33f
100
AcDbEntity
  8
1
 62
7
100
AcDbSpline
 70
8
 71
3
 72
8
 73
4
 74
0
 40
0
 40
0
 40
0
 40
0
 40
1
 40
1
 40
1
 40
1
 10
174.195315
 20
526.587221
 30
0.0
 10
174.707033
 20
526.688783
 30
0.0
 10
175.070315
 20
526.868471
 30
0.0
 10
175.289065
 20
527.118471
 30
0.0
  0
SPLINE
  5
340
100
AcDbEntity
  8
1
 62
7
100
AcDbSpline
 70
8
 71
3
 72
8
 73
4
 74
0
 40
0
 40
0
 40
0
 40
0
 40
1
 40
1
 40
1
 40
1
 10
175.289065
 20
527.118471
 30
0.0
 10
175.519533
 20
527.356752
 30
0.0
 10
175.632815
 20
527.653627
 30
0.0
 10
175.632815
 20
528.009096
 30
0.0
  0
SPLINE
  5
341
100
AcDbEntity
  8
1
 62
7
100
AcDbSpline
 70
8
 71
3
 72
8
 73
4
 74
0
 40
0
 40
0
 40
0
 40
0
 40
1
 40
1
 40
1
 40
1
 10
175.632815
 20
528.009096
 30
0.0
 10
175.632815
 20
528.423158
 30
0.0
 10
175.488283
 20
528.782533
 30
0.0
 10
175.195315
 20
529.087221
 30
0.0
  0
SPLINE
  5
342
100
AcDbEntity
  8
1
 62
7
100
AcDbSpline
 70
8
 71
3
 72
8
 73
4
 74
0
 40
0
 40
0
 40
0
 40
0
 40
1
 40
1
 40
1
 40
1
 10
175.195315
 20
529.087221
 30
0.0
 10
174.906252
 20
529.376283
 30
0.0
 10
174.539065
 20
529.524721
 30
0.0
 10
174.101565
 20
529.524721
 30
0.0
  0
SPLINE
  5
343
100
AcDbEntity
  8
1
 62
7
100
AcDbSpline
 70
8
 71
3
 72
8
 73
4
 74
0
 40
0
 40
0
 40
0
 40
0
 40
1
 40
1
 40
1
 40
1
 10
174.101565
 20
529.524721
 30
0.0
 10
173.695315
 20
529.524721
 30
0.0
 10
173.359377
 20
529.388002
 30
0.0
 10
173.085940
 20
529.118471
 30
0.0
  0
SPLINE
  5
344
100
AcDbEntity
  8
1
 62
7
100
AcDbSpline
 70
8
 71
3
 72
8
 73
4
 74
0
 40
0
 40
0
 40
0
 40
0
 40
1
 40
1
 40
1
 40
1
 10
173.085940
 20
529.118471
 30
0.0
 10
172.828127
 20
528.845033
 30
0.0
 10
172.691408
 20
528.501283
 30
0.0
 10
172.679690
 20
528.087221
 30
0.0
  0
SPLINE
  5
345
100
AcDbEntity
  8
1
 62
7
100
AcDbSpline
 70
8
 71
3
 72
8
 73
4
 74
0
 40
0
 40
0
 40
0
 40
0
 40
1
 40
1
 40
1
 40
1
 10
172.679690
 20
528.087221
 30
0.0
 10
172.691408
 20
527.919252
 30
0.0
 10
172.726565
 20
527.712221
 30
0.0
 10
172.789065
 20
527.462221
 30
0.0
  0
LWPOLYLINE
  5
346
100
AcDbEntity
  8
1
 62
7
100
AcDbPolyline
 90
2
 70
0
 10
174.320315
 20
525.680971
 30
0.0
 10
174.195315
 20
526.587221
 30
0.0
  0
SPLINE
  5
347
100
AcDbEntity
  8
1
 62
7
100
AcDbSpline
 70
8
 71
3
 72
8
 73
4
 74
0
 40
0
 40
0
 40
0
 40
0
 40
1
 40
1
 40
1
 40
1
 10
171.992190
 20
527.555971
 30
0.0
 10
172.003910
 20
527.618471
 30
0.0
 10
172.007814
 20
527.665346
 30
0.0
 10
172.007814
 20
527.696596
 30
0.0
  0
SPLINE
  5
348
100
AcDbEntity
  8
1
 62
7
100
AcDbSpline
 70
8
 71
3
 72
8
 73
4
 74
0
 40
0
 40
0
 40
0
 40
0
 40
1
 40
1
 40
1
 40
1
 10
172.007814
 20
527.696596
 30
0.0
 10
172.007814
 20
528.079408
 30
0.0
 10
171.910158
 20
528.423158
 30
0.0
 10
171.710939
 20
528.727846
 30
0.0
  0
SPLINE
  5
349
100
AcDbEntity
  8
1
 62
7
100
AcDbSpline
 70
8
 71
3
 72
8
 73
4
 74
0
 40
0
 40
0
 40
0
 40
0
 40
1
 40
1
 40
1
 40
1
 10
171.710939
 20
528.727846
 30
0.0
 10
171.515626
 20
529.028627
 30
0.0
 10
171.207033
 20
529.184877
 30
0.0
 10
170.789064
 20
529.196596
 30
0.0
  0
SPLINE
  5
34a
100
AcDbEntity
  8
1
 62
7
100
AcDbSpline
 70
8
 71
3
 72
8
 73
4
 74
0
 40
0
 40
0
 40
0
 40
0
 40
1
 40
1
 40
1
 40
1
 10
170.789064
 20
529.196596
 30
0.0
 10
170.457033
 20
529.196596
 30
0.0
 10
170.187501
 20
529.079408
 30
0.0
 10
169.976564
 20
528.852846
 30
0.0
  0
SPLINE
  5
34b
100
AcDbEntity
  8
1
 62
7
100
AcDbSpline
 70
8
 71
3
 72
8
 73
4
 74
0
 40
0
 40
0
 40
0
 40
0
 40
1
 40
1
 40
1
 40
1
 10
169.976564
 20
528.852846
 30
0.0
 10
169.757814
 20
528.634096
 30
0.0
 10
169.648439
 20
528.345033
 30
0.0
 10
169.648439
 20
527.993471
 30
0.0
  0
SPLINE
  5
34c
100
AcDbEntity
  8
1
 62
7
100
AcDbSpline
 70
8
 71
3
 72
8
 73
4
 74
0
 40
0
 40
0
 40
0
 40
0
 40
1
 40
1
 40
1
 40
1
 10
169.648439
 20
527.993471
 30
0.0
 10
169.648439
 20
527.649721
 30
0.0
 10
169.757814
 20
527.356752
 30
0.0
 10
169.976564
 20
527.118471
 30
0.0
  0
SPLINE
  5
34d
100
AcDbEntity
  8
1
 62
7
100
AcDbSpline
 70
8
 71
3
 72
8
 73
4
 74
0
 40
0
 40
0
 40
0
 40
0
 40
1
 40
1
 40
1
 40
1
 10
169.976564
 20
527.118471
 30
0.0
 10
170.195314
 20
526.888002
 30
0.0
 10
170.523439
 20
526.743471
 30
0.0
 10
170.960939
 20
526.680971
 30
0.0
  0
LWPOLYLINE
  5
34e
100
AcDbEntity
  8
1
 62
7
100
AcDbPolyline
 90
2
 70
0
 10
172.789065
 20
527.462221
 30
0.0
 10
171.992190
 20
527.555971
 30
0.0
  0
SPLINE
  5
34f
100
AcDbEntity
  8
1
 62
7
100
AcDbSpline
 70
8
 71
3
 72
8
 73
4
 74
0
 40
0
 40
0
 40
0
 40
0
 40
1
 40
1
 40
1
 40
1
 10
170.804689
 20
525.774721
 30
0.0
 10
170.203126
 20
525.888002
 30
0.0
 10
169.734377
 20
526.138002
 30
0.0
 10
169.398439
 20
526.524721
 30
0.0
  0
SPLINE
  5
350
100
AcDbEntity
  8
1
 62
7
100
AcDbSpline
 70
8
 71
3
 72
8
 73
4
 74
0
 40
0
 40
0
 40
0
 40
0
 40
1
 40
1
 40
1
 40
1
 10
169.398439
 20
526.524721
 30
0.0
 10
169.078126
 20
526.907533
 30
0.0
 10
168.914064
 20
527.391908
 30
0.0
 10
168.914064
 20
527.977846
 30
0.0
  0
SPLINE
  5
351
100
AcDbEntity
  8
1
 62
7
100
AcDbSpline
 70
8
 71
3
 72
8
 73
4
 74
0
 40
0
 40
0
 40
0
 40
0
 40
1
 40
1
 40
1
 40
1
 10
168.914064
 20
527.977846
 30
0.0
 10
168.914064
 20
528.372377
 30
0.0
 10
169.000001
 20
528.735658
 30
0.0
 10
169.164064
 20
529.071596
 30
0.0
  0
SPLINE
  5
352
100
AcDbEntity
  8
1
 62
7
100
AcDbSpline
 70
8
 71
3
 72
8
 73
4
 74
0
 40
0
 40
0
 40
0
 40
0
 40
1
 40
1
 40
1
 40
1
 10
169.164064
 20
529.071596
 30
0.0
 10
169.343752
 20
529.403627
 30
0.0
 10
169.578127
 20
529.665346
 30
0.0
 10
169.867189
 20
529.852846
 30
0.0
  0
SPLINE
  5
353
100
AcDbEntity
  8
1
 62
7
100
AcDbSpline
 70
8
 71
3
 72
8
 73
4
 74
0
 40
0
 40
0
 40
0
 40
0
 40
1
 40
1
 40
1
 40
1
 10
169.867189
 20
529.852846
 30
0.0
 10
170.160158
 20
530.016908
 30
0.0
 10
170.472658
 20
530.106752
 30
0.0
 10
170.804689
 20
530.118471
 30
0.0
  0
SPLINE
  5
354
100
AcDbEntity
  8
1
 62
7
100
AcDbSpline
 70
8
 71
3
 72
8
 73
4
 74
0
 40
0
 40
0
 40
0
 40
0
 40
1
 40
1
 40
1
 40
1
 10
170.804689
 20
530.118471
 30
0.0
 10
171.117189
 20
530.118471
 30
0.0
 10
171.406252
 20
530.028627
 30
0.0
 10
171.664064
 20
529.852846
 30
0.0
  0
SPLINE
  5
355
100
AcDbEntity
  8
1
 62
7
100
AcDbSpline
 70
8
 71
3
 72
8
 73
4
 74
0
 40
0
 40
0
 40
0
 40
0
 40
1
 40
1
 40
1
 40
1
 10
171.664064
 20
529.852846
 30
0.0
 10
171.925783
 20
529.684877
 30
0.0
 10
172.132814
 20
529.434877
 30
0.0
 10
172.289064
 20
529.102846
 30
0.0
  0
SPLINE
  5
356
100
AcDbEntity
  8
1
 62
7
100
AcDbSpline
 70
8
 71
3
 72
8
 73
4
 74
0
 40
0
 40
0
 40
0
 40
0
 40
1
 40
1
 40
1
 40
1
 10
172.289064
 20
529.102846
 30
0.0
 10
172.382814
 20
529.540346
 30
0.0
 10
172.585939
 20
529.876283
 30
0.0
 10
172.898439
 20
530.118471
 30
0.0
  0
SPLINE
  5
357
100
AcDbEntity
  8
1
 62
7
100
AcDbSpline
 70
8
 71
3
 72
8
 73
4
 74
0
 40
0
 40
0
 40
0
 40
0
 40
1
 40
1
 40
1
 40
1
 10
172.898439
 20
530.118471
 30
0.0
 10
173.222658
 20
530.356752
 30
0.0
 10
173.617189
 20
530.477846
 30
0.0
 10
174.085939
 20
530.477846
 30
0.0
  0
SPLINE
  5
358
100
AcDbEntity
  8
1
 62
7
100
AcDbSpline
 70
8
 71
3
 72
8
 73
4
 74
0
 40
0
 40
0
 40
0
 40
0
 40
1
 40
1
 40
1
 40
1
 10
174.085939
 20
530.477846
 30
0.0
 10
174.722658
 20
530.466126
 30
0.0
 10
175.265626
 20
530.231752
 30
0.0
 10
175.710939
 20
529.774721
 30
0.0
  0
SPLINE
  5
359
100
AcDbEntity
  8
1
 62
7
100
AcDbSpline
 70
8
 71
3
 72
8
 73
4
 74
0
 40
0
 40
0
 40
0
 40
0
 40
1
 40
1
 40
1
 40
1
 10
175.710939
 20
529.774721
 30
0.0
 10
176.148440
 20
529.305971
 30
0.0
 10
176.367190
 20
528.716127
 30
0.0
 10
176.367190
 20
528.009096
 30
0.0
  0
SPLINE
  5
35a
100
AcDbEntity
  8
1
 62
7
100
AcDbSpline
 70
8
 71
3
 72
8
 73
4
 74
0
 40
0
 40
0
 40
0
 40
0
 40
1
 40
1
 40
1
 40
1
 10
176.367190
 20
528.009096
 30
0.0
 10
176.375002
 20
527.360658
 30
0.0
 10
176.191408
 20
526.829408
 30
0.0
 10
175.804690
 20
526.415346
 30
0.0
  0
SPLINE
  5
35b
100
AcDbEntity
  8
1
 62
7
100
AcDbSpline
 70
8
 71
3
 72
8
 73
4
 74
0
 40
0
 40
0
 40
0
 40
0
 40
1
 40
1
 40
1
 40
1
 10
175.804690
 20
526.415346
 30
0.0
 10
175.421877
 20
525.985658
 30
0.0
 10
174.925783
 20
525.743471
 30
0.0
 10
174.320315
 20
525.680971
 30
0.0
  0
LWPOLYLINE
  5
35c
100
AcDbEntity
  8
1
 62
7
100
AcDbPolyline
 90
2
 70
0
 10
170.960939
 20
526.680971
 30
0.0
 10
170.804689
 20
525.774721
 30
0.0
  0
SPLINE
  5
35d
100
AcDbEntity
  8
1
 62
7
100
AcDbSpline
 70
8
 71
3
 72
8
 73
4
 74
0
 40
0
 40
0
 40
0
 40
0
 40
1
 40
1
 40
1
 40
1
 10
172.632815
 20
531.348939
 30
0.0
 10
171.781252
 20
531.348939
 30
0.0
 10
171.085940
 20
531.434877
 30
0.0
 10
170.554690
 20
531.614564
 30
0.0
  0
SPLINE
  5
35e
100
AcDbEntity
  8
1
 62
7
100
AcDbSpline
 70
8
 71
3
 72
8
 73
4
 74
0
 40
0
 40
0
 40
0
 40
0
 40
1
 40
1
 40
1
 40
1
 10
170.554690
 20
531.614564
 30
0.0
 10
170.035158
 20
531.790346
 30
0.0
 10
169.628908
 20
532.055971
 30
0.0
 10
169.335940
 20
532.411439
 30
0.0
  0
SPLINE
  5
35f
100
AcDbEntity
  8
1
 62
7
100
AcDbSpline
 70
8
 71
3
 72
8
 73
4
 74
0
 40
0
 40
0
 40
0
 40
0
 40
1
 40
1
 40
1
 40
1
 10
169.335940
 20
532.411439
 30
0.0
 10
169.054690
 20
532.755189
 30
0.0
 10
168.914065
 20
533.196595
 30
0.0
 10
168.914065
 20
533.739564
 30
0.0
  0
SPLINE
  5
360
100
AcDbEntity
  8
1
 62
7
100
AcDbSpline
 70
8
 71
3
 72
8
 73
4
 74
0
 40
0
 40
0
 40
0
 40
0
 40
1
 40
1
 40
1
 40
1
 10
168.914065
 20
533.739564
 30
0.0
 10
168.914065
 20
534.122377
 30
0.0
 10
168.992190
 20
534.466127
 30
0.0
 10
169.148440
 20
534.770814
 30
0.0
  0
SPLINE
  5
361
100
AcDbEntity
  8
1
 62
7
100
AcDbSpline
 70
8
 71
3
 72
8
 73
4
 74
0
 40
0
 40
0
 40
0
 40
0
 40
1
 40
1
 40
1
 40
1
 10
169.148440
 20
534.770814
 30
0.0
 10
169.304690
 20
535.059877
 30
0.0
 10
169.531252
 20
535.302064
 30
0.0
 10
169.820315
 20
535.489564
 30
0.0
  0
SPLINE
  5
362
100
AcDbEntity
  8
1
 62
7
100
AcDbSpline
 70
8
 71
3
 72
8
 73
4
 74
0
 40
0
 40
0
 40
0
 40
0
 40
1
 40
1
 40
1
 40
1
 10
169.820315
 20
535.489564
 30
0.0
 10
170.125002
 20
535.684877
 30
0.0
 10
170.488284
 20
535.837221
 30
0.0
 10
170.914065
 20
535.942689
 30
0.0
  0
SPLINE
  5
363
100
AcDbEntity
  8
1
 62
7
100
AcDbSpline
 70
8
 71
3
 72
8
 73
4
 74
0
 40
0
 40
0
 40
0
 40
0
 40
1
 40
1
 40
1
 40
1
 10
170.914065
 20
535.942689
 30
0.0
 10
171.343752
 20
536.055970
 30
0.0
 10
171.914065
 20
536.114564
 30
0.0
 10
172.632815
 20
536.114564
 30
0.0
  0
SPLINE
  5
364
100
AcDbEntity
  8
1
 62
7
100
AcDbSpline
 70
8
 71
3
 72
8
 73
4
 74
0
 40
0
 40
0
 40
0
 40
0
 40
1
 40
1
 40
1
 40
1
 10
172.632815
 20
536.114564
 30
0.0
 10
173.500002
 20
536.114564
 30
0.0
 10
174.191408
 20
536.024720
 30
0.0
 10
174.710940
 20
535.848939
 30
0.0
  0
SPLINE
  5
365
100
AcDbEntity
  8
1
 62
7
100
AcDbSpline
 70
8
 71
3
 72
8
 73
4
 74
0
 40
0
 40
0
 40
0
 40
0
 40
1
 40
1
 40
1
 40
1
 10
174.710940
 20
535.848939
 30
0.0
 10
175.242190
 20
535.669252
 30
0.0
 10
175.648440
 20
535.411439
 30
0.0
 10
175.929690
 20
535.067690
 30
0.0
  0
SPLINE
  5
366
100
AcDbEntity
  8
1
 62
7
100
AcDbSpline
 70
8
 71
3
 72
8
 73
4
 74
0
 40
0
 40
0
 40
0
 40
0
 40
1
 40
1
 40
1
 40
1
 10
175.929690
 20
535.067690
 30
0.0
 10
176.222658
 20
534.712221
 30
0.0
 10
176.367190
 20
534.270815
 30
0.0
 10
176.367190
 20
533.739564
 30
0.0
  0
SPLINE
  5
367
100
AcDbEntity
  8
1
 62
7
100
AcDbSpline
 70
8
 71
3
 72
8
 73
4
 74
0
 40
0
 40
0
 40
0
 40
0
 40
1
 40
1
 40
1
 40
1
 10
176.367190
 20
533.739564
 30
0.0
 10
176.367190
 20
533.028627
 30
0.0
 10
176.117190
 20
532.473939
 30
0.0
 10
175.617190
 20
532.067689
 30
0.0
  0
SPLINE
  5
368
100
AcDbEntity
  8
1
 62
7
100
AcDbSpline
 70
8
 71
3
 72
8
 73
4
 74
0
 40
0
 40
0
 40
0
 40
0
 40
1
 40
1
 40
1
 40
1
 10
175.617190
 20
532.067689
 30
0.0
 10
175.003908
 20
531.587221
 30
0.0
 10
174.007815
 20
531.348939
 30
0.0
 10
172.632815
 20
531.348939
 30
0.0
  0
LWPOLYLINE
  5
369
100
AcDbEntity
  8
1
 62
7
100
AcDbPolyline
 90
1
 70
1
 10
174.320315
 20
525.680971
 30
0.0
  0
SPLINE
  5
36a
100
AcDbEntity
  8
1
 62
7
100
AcDbSpline
 70
8
 71
3
 72
8
 73
4
 74
0
 40
0
 40
0
 40
0
 40
0
 40
1
 40
1
 40
1
 40
1
 10
172.632815
 20
532.270814
 30
0.0
 10
173.843752
 20
532.270814
 30
0.0
 10
174.644533
 20
532.411439
 30
0.0
 10
175.039065
 20
532.692689
 30
0.0
  0
SPLINE
  5
36b
100
AcDbEntity
  8
1
 62
7
100
AcDbSpline
 70
8
 71
3
 72
8
 73
4
 74
0
 40
0
 40
0
 40
0
 40
0
 40
1
 40
1
 40
1
 40
1
 10
175.039065
 20
532.692689
 30
0.0
 10
175.437502
 20
532.973939
 30
0.0
 10
175.632815
 20
533.321596
 30
0.0
 10
175.632815
 20
533.739564
 30
0.0
  0
SPLINE
  5
36c
100
AcDbEntity
  8
1
 62
7
100
AcDbSpline
 70
8
 71
3
 72
8
 73
4
 74
0
 40
0
 40
0
 40
0
 40
0
 40
1
 40
1
 40
1
 40
1
 10
175.632815
 20
533.739564
 30
0.0
 10
175.632815
 20
534.145814
 30
0.0
 10
175.437502
 20
534.489564
 30
0.0
 10
175.039065
 20
534.770814
 30
0.0
  0
SPLINE
  5
36d
100
AcDbEntity
  8
1
 62
7
100
AcDbSpline
 70
8
 71
3
 72
8
 73
4
 74
0
 40
0
 40
0
 40
0
 40
0
 40
1
 40
1
 40
1
 40
1
 10
175.039065
 20
534.770814
 30
0.0
 10
174.632815
 20
535.052064
 30
0.0
 10
173.832033
 20
535.192689
 30
0.0
 10
172.632815
 20
535.192689
 30
0.0
  0
SPLINE
  5
36e
100
AcDbEntity
  8
1
 62
7
100
AcDbSpline
 70
8
 71
3
 72
8
 73
4
 74
0
 40
0
 40
0
 40
0
 40
0
 40
1
 40
1
 40
1
 40
1
 10
172.632815
 20
535.192689
 30
0.0
 10
171.437502
 20
535.192689
 30
0.0
 10
170.640627
 20
535.052064
 30
0.0
 10
170.242190
 20
534.770814
 30
0.0
  0
SPLINE
  5
36f
100
AcDbEntity
  8
1
 62
7
100
AcDbSpline
 70
8
 71
3
 72
8
 73
4
 74
0
 40
0
 40
0
 40
0
 40
0
 40
1
 40
1
 40
1
 40
1
 10
170.242190
 20
534.770814
 30
0.0
 10
169.847659
 20
534.489564
 30
0.0
 10
169.648440
 20
534.138002
 30
0.0
 10
169.648440
 20
533.723939
 30
0.0
  0
SPLINE
  5
370
100
AcDbEntity
  8
1
 62
7
100
AcDbSpline
 70
8
 71
3
 72
8
 73
4
 74
0
 40
0
 40
0
 40
0
 40
0
 40
1
 40
1
 40
1
 40
1
 10
169.648440
 20
533.723939
 30
0.0
 10
169.648440
 20
533.305971
 30
0.0
 10
169.828127
 20
532.977846
 30
0.0
 10
170.179690
 20
532.739564
 30
0.0
  0
SPLINE
  5
371
100
AcDbEntity
  8
1
 62
7
100
AcDbSpline
 70
8
 71
3
 72
8
 73
4
 74
0
 40
0
 40
0
 40
0
 40
0
 40
1
 40
1
 40
1
 40
1
 10
170.179690
 20
532.739564
 30
0.0
 10
170.617190
 20
532.427064
 30
0.0
 10
171.437502
 20
532.270814
 30
0.0
 10
172.632815
 20
532.270814
 30
0.0
  0
LWPOLYLINE
  5
372
100
AcDbEntity
  8
1
 62
7
100
AcDbPolyline
 90
1
 70
1
 10
172.632815
 20
531.348939
 30
0.0
  0
SPLINE
  5
373
100
AcDbEntity
  8
1
 62
7
100
AcDbSpline
 70
8
 71
3
 72
8
 73
4
 74
0
 40
0
 40
0
 40
0
 40
0
 40
1
 40
1
 40
1
 40
1
 10
172.632815
 20
537.020814
 30
0.0
 10
171.781252
 20
537.020814
 30
0.0
 10
171.085940
 20
537.106752
 30
0.0
 10
170.554690
 20
537.286439
 30
0.0
  0
SPLINE
  5
374
100
AcDbEntity
  8
1
 62
7
100
AcDbSpline
 70
8
 71
3
 72
8
 73
4
 74
0
 40
0
 40
0
 40
0
 40
0
 40
1
 40
1
 40
1
 40
1
 10
170.554690
 20
537.286439
 30
0.0
 10
170.035158
 20
537.462221
 30
0.0
 10
169.628908
 20
537.727845
 30
0.0
 10
169.335940
 20
538.083314
 30
0.0
  0
SPLINE
  5
375
100
AcDbEntity
  8
1
 62
7
100
AcDbSpline
 70
8
 71
3
 72
8
 73
4
 74
0
 40
0
 40
0
 40
0
 40
0
 40
1
 40
1
 40
1
 40
1
 10
169.335940
 20
538.083314
 30
0.0
 10
169.054690
 20
538.427064
 30
0.0
 10
168.914065
 20
538.868471
 30
0.0
 10
168.914065
 20
539.411439
 30
0.0
  0
SPLINE
  5
376
100
AcDbEntity
  8
1
 62
7
100
AcDbSpline
 70
8
 71
3
 72
8
 73
4
 74
0
 40
0
 40
0
 40
0
 40
0
 40
1
 40
1
 40
1
 40
1
 10
168.914065
 20
539.411439
 30
0.0
 10
168.914065
 20
539.794252
 30
0.0
 10
168.992190
 20
540.138002
 30
0.0
 10
169.148440
 20
540.442689
 30
0.0
  0
SPLINE
  5
377
100
AcDbEntity
  8
1
 62
7
100
AcDbSpline
 70
8
 71
3
 72
8
 73
4
 74
0
 40
0
 40
0
 40
0
 40
0
 40
1
 40
1
 40
1
 40
1
 10
169.148440
 20
540.442689
 30
0.0
 10
169.304690
 20
540.731752
 30
0.0
 10
169.531252
 20
540.973939
 30
0.0
 10
169.820315
 20
541.161439
 30
0.0
  0
SPLINE
  5
378
100
AcDbEntity
  8
1
 62
7
100
AcDbSpline
 70
8
 71
3
 72
8
 73
4
 74
0
 40
0
 40
0
 40
0
 40
0
 40
1
 40
1
 40
1
 40
1
 10
169.820315
 20
541.161439
 30
0.0
 10
170.125002
 20
541.356752
 30
0.0
 10
170.488284
 20
541.509095
 30
0.0
 10
170.914065
 20
541.614564
 30
0.0
  0
SPLINE
  5
379
100
AcDbEntity
  8
1
 62
7
100
AcDbSpline
 70
8
 71
3
 72
8
 73
4
 74
0
 40
0
 40
0
 40
0
 40
0
 40
1
 40
1
 40
1
 40
1
 10
170.914065
 20
541.614564
 30
0.0
 10
171.343752
 20
541.727846
 30
0.0
 10
171.914065
 20
541.786439
 30
0.0
 10
172.632815
 20
541.786439
 30
0.0
  0
SPLINE
  5
37a
100
AcDbEntity
  8
1
 62
7
100
AcDbSpline
 70
8
 71
3
 72
8
 73
4
 74
0
 40
0
 40
0
 40
0
 40
0
 40
1
 40
1
 40
1
 40
1
 10
172.632815
 20
541.786439
 30
0.0
 10
173.500002
 20
541.786439
 30
0.0
 10
174.191408
 20
541.696596
 30
0.0
 10
174.710940
 20
541.520814
 30
0.0
  0
SPLINE
  5
37b
100
AcDbEntity
  8
1
 62
7
100
AcDbSpline
 70
8
 71
3
 72
8
 73
4
 74
0
 40
0
 40
0
 40
0
 40
0
 40
1
 40
1
 40
1
 40
1
 10
174.710940
 20
541.520814
 30
0.0
 10
175.242190
 20
541.341127
 30
0.0
 10
175.648440
 20
541.083314
 30
0.0
 10
175.929690
 20
540.739564
 30
0.0
  0
SPLINE
  5
37c
100
AcDbEntity
  8
1
 62
7
100
AcDbSpline
 70
8
 71
3
 72
8
 73
4
 74
0
 40
0
 40
0
 40
0
 40
0
 40
1
 40
1
 40
1
 40
1
 10
175.929690
 20
540.739564
 30
0.0
 10
176.222658
 20
540.384096
 30
0.0
 10
176.367190
 20
539.942689
 30
0.0
 10
176.367190
 20
539.411439
 30
0.0
  0
SPLINE
  5
37d
100
AcDbEntity
  8
1
 62
7
100
AcDbSpline
 70
8
 71
3
 72
8
 73
4
 74
0
 40
0
 40
0
 40
0
 40
0
 40
1
 40
1
 40
1
 40
1
 10
176.367190
 20
539.411439
 30
0.0
 10
176.367190
 20
538.700502
 30
0.0
 10
176.117190
 20
538.145814
 30
0.0
 10
175.617190
 20
537.739564
 30
0.0
  0
SPLINE
  5
37e
100
AcDbEntity
  8
1
 62
7
100
AcDbSpline
 70
8
 71
3
 72
8
 73
4
 74
0
 40
0
 40
0
 40
0
 40
0
 40
1
 40
1
 40
1
 40
1
 10
175.617190
 20
537.739564
 30
0.0
 10
175.003908
 20
537.259095
 30
0.0
 10
174.007815
 20
537.020814
 30
0.0
 10
172.632815
 20
537.020814
 30
0.0
  0
LWPOLYLINE
  5
37f
100
AcDbEntity
  8
1
 62
7
100
AcDbPolyline
 90
1
 70
1
 10
172.632815
 20
532.270814
 30
0.0
  0
SPLINE
  5
380
100
AcDbEntity
  8
1
 62
7
100
AcDbSpline
 70
8
 71
3
 72
8
 73
4
 74
0
 40
0
 40
0
 40
0
 40
0
 40
1
 40
1
 40
1
 40
1
 10
172.632815
 20
537.942689
 30
0.0
 10
173.843752
 20
537.942689
 30
0.0
 10
174.644533
 20
538.083314
 30
0.0
 10
175.039065
 20
538.364564
 30
0.0
  0
SPLINE
  5
381
100
AcDbEntity
  8
1
 62
7
100
AcDbSpline
 70
8
 71
3
 72
8
 73
4
 74
0
 40
0
 40
0
 40
0
 40
0
 40
1
 40
1
 40
1
 40
1
 10
175.039065
 20
538.364564
 30
0.0
 10
175.437502
 20
538.645814
 30
0.0
 10
175.632815
 20
538.993471
 30
0.0
 10
175.632815
 20
539.411439
 30
0.0
  0
SPLINE
  5
382
100
AcDbEntity
  8
1
 62
7
100
AcDbSpline
 70
8
 71
3
 72
8
 73
4
 74
0
 40
0
 40
0
 40
0
 40
0
 40
1
 40
1
 40
1
 40
1
 10
175.632815
 20
539.411439
 30
0.0
 10
175.632815
 20
539.817689
 30
0.0
 10
175.437502
 20
540.161439
 30
0.0
 10
175.039065
 20
540.442689
 30
0.0
  0
SPLINE
  5
383
100
AcDbEntity
  8
1
 62
7
100
AcDbSpline
 70
8
 71
3
 72
8
 73
4
 74
0
 40
0
 40
0
 40
0
 40
0
 40
1
 40
1
 40
1
 40
1
 10
175.039065
 20
540.442689
 30
0.0
 10
174.632815
 20
540.723939
 30
0.0
 10
173.832033
 20
540.864564
 30
0.0
 10
172.632815
 20
540.864564
 30
0.0
  0
SPLINE
  5
384
100
AcDbEntity
  8
1
 62
7
100
AcDbSpline
 70
8
 71
3
 72
8
 73
4
 74
0
 40
0
 40
0
 40
0
 40
0
 40
1
 40
1
 40
1
 40
1
 10
172.632815
 20
540.864564
 30
0.0
 10
171.437502
 20
540.864564
 30
0.0
 10
170.640627
 20
540.723939
 30
0.0
 10
170.242190
 20
540.442689
 30
0.0
  0
SPLINE
  5
385
100
AcDbEntity
  8
1
 62
7
100
AcDbSpline
 70
8
 71
3
 72
8
 73
4
 74
0
 40
0
 40
0
 40
0
 40
0
 40
1
 40
1
 40
1
 40
1
 10
170.242190
 20
540.442689
 30
0.0
 10
169.847659
 20
540.161439
 30
0.0
 10
169.648440
 20
539.809877
 30
0.0
 10
169.648440
 20
539.395814
 30
0.0
  0
SPLINE
  5
386
100
AcDbEntity
  8
1
 62
7
100
AcDbSpline
 70
8
 71
3
 72
8
 73
4
 74
0
 40
0
 40
0
 40
0
 40
0
 40
1
 40
1
 40
1
 40
1
 10
169.648440
 20
539.395814
 30
0.0
 10
169.648440
 20
538.977846
 30
0.0
 10
169.828127
 20
538.649720
 30
0.0
 10
170.179690
 20
538.411439
 30
0.0
  0
SPLINE
  5
387
100
AcDbEntity
  8
1
 62
7
100
AcDbSpline
 70
8
 71
3
 72
8
 73
4
 74
0
 40
0
 40
0
 40
0
 40
0
 40
1
 40
1
 40
1
 40
1
 10
170.179690
 20
538.411439
 30
0.0
 10
170.617190
 20
538.098939
 30
0.0
 10
171.437502
 20
537.942689
 30
0.0
 10
172.632815
 20
537.942689
 30
0.0
  0
LWPOLYLINE
  5
388
100
AcDbEntity
  8
1
 62
7
100
AcDbPolyline
 90
1
 70
1
 10
172.632815
 20
537.020814
 30
0.0
  0
LWPOLYLINE
  5
389
100
AcDbEntity
  8
1
 62
7
100
AcDbPolyline
 90
1
 70
1
 10
172.632815
 20
537.942689
 30
0.0
  0
LWPOLYLINE
  5
38a
100
AcDbEntity
  8
1
 62
5
100
AcDbPolyline
 90
2
 70
0
 10
180.061297
 20
614.751638
 30
0.0
 10
180.061297
 20
452.774374
 30
0.0
  0
LWPOLYLINE
  5
38b
100
AcDbEntity
  8
1
 62
5
100
AcDbPolyline
 90
2
 70
0
 10
226.143598
 20
452.774374
 30
0.0
 10
176.130728
 20
452.774374
 30
0.0
  0
LWPOLYLINE
  5
38c
100
AcDbEntity
  8
1
 62
5
100
AcDbPolyline
 90
2
 70
0
 10
226.143598
 20
614.751638
 30
0.0
 10
176.130728
 20
614.751638
 30
0.0
  0
LWPOLYLINE
  5
38d
100
AcDbEntity
  8
1
 62
5
100
AcDbPolyline
 90
3
 70
1
 10
180.061280
 20
452.774380
 30
0.0
 10
180.565199
 20
455.797895
 30
0.0
 10
179.557361
 20
455.797895
 30
0.0
  0
LWPOLYLINE
  5
38e
100
AcDbEntity
  8
1
 62
5
100
AcDbPolyline
 90
3
 70
1
 10
180.061280
 20
614.751640
 30
0.0
 10
179.557361
 20
611.728125
 30
0.0
 10
180.565199
 20
611.728125
 30
0.0
  0
ENDSEC
  0
SECTION
  2
OBJECTS
  0
DICTIONARY
  5
C
330
0
100
AcDbDictionary
  3
ACAD_GROUP
350
D
  3
ACAD_MLINESTYLE
350
17
  0
DICTIONARY
  5
D
330
C
100
AcDbDictionary
  0
DICTIONARY
  5
1A
330
C
100
AcDbDictionary
  0
DICTIONARY
  5
17
330
C
100
AcDbDictionary
  3
STANDARD
350
18
  0
DICTIONARY
  5
19
330
C
100
AcDbDictionary
  0
ENDSEC
  0
EOF
